<svg width="318" height="314" viewBox="0 0 318 314" fill="none" xmlns="http://www.w3.org/2000/svg">
<rect x="0.75" y="14.75" width="298.5" height="298.5" stroke="black" stroke-width="1.5"/>
<rect x="71" y="85.0001" width="158" height="158" stroke="#4B5DFF" stroke-width="2" stroke-dasharray="4 4"/>
<circle cx="149.5" cy="163.5" r="77.5" stroke="black" stroke-width="2"/>
<path d="M148.471 311.532C148.765 311.824 149.24 311.822 149.532 311.529L154.289 306.739C154.581 306.445 154.579 305.971 154.285 305.679C153.991 305.387 153.516 305.388 153.225 305.682L148.996 309.939L144.739 305.711C144.445 305.419 143.971 305.421 143.679 305.715C143.387 306.009 143.388 306.484 143.682 306.775L148.471 311.532ZM148.525 16.4679C148.231 16.176 147.756 16.1776 147.464 16.4715L142.708 21.2607C142.416 21.5546 142.418 22.0295 142.711 22.3214C143.005 22.6133 143.48 22.6116 143.772 22.3177L148 18.0606L152.257 22.2888C152.551 22.5807 153.026 22.5791 153.318 22.2852C153.61 21.9913 153.608 21.5164 153.314 21.2245L148.525 16.4679ZM149.75 310.997L148.747 16.9974L147.247 17.0026L148.25 311.003L149.75 310.997Z" fill="#FF0000"/>
<path d="M2.43769 163.536C2.14479 163.829 2.14479 164.304 2.43769 164.596L7.21066 169.369C7.50355 169.662 7.97843 169.662 8.27132 169.369C8.56421 169.077 8.56421 168.602 8.27132 168.309L4.02868 164.066L8.27132 159.824C8.56421 159.531 8.56421 159.056 8.27132 158.763C7.97843 158.47 7.50355 158.47 7.21066 158.763L2.43769 163.536ZM297.5 164.596C297.793 164.304 297.793 163.829 297.5 163.536L292.727 158.763C292.434 158.47 291.959 158.47 291.666 158.763C291.374 159.056 291.374 159.531 291.666 159.824L295.909 164.066L291.666 168.309C291.374 168.602 291.374 169.077 291.666 169.369C291.959 169.662 292.434 169.662 292.727 169.369L297.5 164.596ZM2.96802 164.816H296.97V163.316H2.96802V164.816Z" fill="#FF0000"/>
<path d="M154.086 76.7187V71.3125H155.313V76.7187H154.086ZM151.996 74.6289V73.4023H157.402V74.6289H151.996ZM162.366 70V78H160.917V71.4102H160.87L158.999 72.6055V71.2773L160.987 70H162.366Z" fill="black"/>
<path d="M156.363 251.418V252.582H152.762V251.418H156.363ZM161.089 248V256H159.64V249.41H159.593L157.722 250.605V249.277L159.71 248H161.089Z" fill="black"/>
<path d="M57.3633 154.418V155.582H53.7617V154.418H57.3633ZM62.0889 151V159H60.6396V152.41H60.5928L58.7217 153.605V152.277L60.71 151H62.0889Z" fill="black"/>
<path d="M236.086 175.719V170.312H237.313V175.719H236.086ZM233.996 173.629V172.402H239.402V173.629H233.996ZM244.366 169V177H242.917V170.41H242.87L240.999 171.605V170.277L242.987 169H244.366Z" fill="black"/>
<path d="M305.818 160.727L307.42 163.391H307.477L309.085 160.727H310.587L308.347 164.364L310.623 168H309.096L307.477 165.354H307.42L305.8 168H304.281L306.578 164.364L304.309 160.727H305.818Z" fill="black"/>
<path d="M144.242 3H145.879L147.836 6.53906H147.914L149.871 3H151.508L148.598 8.01563V11H147.152V8.01563L144.242 3Z" fill="black"/>
<circle cx="148.5" cy="163.5" r="2.5" fill="black"/>
<path d="M154.078 153C154.078 152.023 154.207 151.126 154.465 150.309C154.725 149.488 155.112 148.73 155.625 148.035H156.957C156.759 148.293 156.574 148.609 156.402 148.984C156.23 149.357 156.081 149.766 155.953 150.211C155.828 150.654 155.729 151.113 155.656 151.59C155.586 152.066 155.551 152.536 155.551 153C155.551 153.617 155.612 154.242 155.734 154.875C155.859 155.508 156.027 156.095 156.238 156.637C156.452 157.176 156.691 157.617 156.957 157.961H155.625C155.112 157.266 154.725 156.509 154.465 155.691C154.207 154.871 154.078 153.974 154.078 153ZM160.997 157.152C160.354 157.152 159.802 156.99 159.341 156.664C158.882 156.336 158.53 155.863 158.282 155.246C158.037 154.626 157.915 153.88 157.915 153.008C157.918 152.135 158.041 151.393 158.286 150.781C158.534 150.167 158.886 149.698 159.345 149.375C159.806 149.052 160.356 148.891 160.997 148.891C161.638 148.891 162.188 149.052 162.649 149.375C163.11 149.698 163.463 150.167 163.708 150.781C163.955 151.396 164.079 152.138 164.079 153.008C164.079 153.883 163.955 154.63 163.708 155.25C163.463 155.867 163.11 156.339 162.649 156.664C162.191 156.99 161.64 157.152 160.997 157.152ZM160.997 155.93C161.497 155.93 161.892 155.684 162.181 155.191C162.472 154.697 162.618 153.969 162.618 153.008C162.618 152.372 162.552 151.839 162.419 151.406C162.286 150.974 162.099 150.648 161.856 150.43C161.614 150.208 161.328 150.098 160.997 150.098C160.5 150.098 160.106 150.345 159.817 150.84C159.528 151.332 159.382 152.055 159.38 153.008C159.377 153.646 159.441 154.182 159.571 154.617C159.704 155.052 159.892 155.38 160.134 155.602C160.376 155.82 160.664 155.93 160.997 155.93ZM166.741 155.906L166.69 156.336C166.654 156.664 166.589 156.997 166.495 157.336C166.404 157.677 166.308 157.991 166.206 158.277C166.104 158.564 166.022 158.789 165.96 158.953H165.007C165.043 158.794 165.093 158.578 165.155 158.305C165.22 158.031 165.283 157.724 165.343 157.383C165.403 157.042 165.443 156.695 165.464 156.344L165.491 155.906H166.741ZM170.955 157.152C170.312 157.152 169.76 156.99 169.299 156.664C168.84 156.336 168.488 155.863 168.24 155.246C167.995 154.626 167.873 153.88 167.873 153.008C167.876 152.135 167.999 151.393 168.244 150.781C168.492 150.167 168.844 149.698 169.303 149.375C169.764 149.052 170.314 148.891 170.955 148.891C171.596 148.891 172.146 149.052 172.607 149.375C173.068 149.698 173.421 150.167 173.666 150.781C173.913 151.396 174.037 152.138 174.037 153.008C174.037 153.883 173.913 154.63 173.666 155.25C173.421 155.867 173.068 156.339 172.607 156.664C172.149 156.99 171.598 157.152 170.955 157.152ZM170.955 155.93C171.455 155.93 171.85 155.684 172.139 155.191C172.43 154.697 172.576 153.969 172.576 153.008C172.576 152.372 172.51 151.839 172.377 151.406C172.244 150.974 172.057 150.648 171.814 150.43C171.572 150.208 171.286 150.098 170.955 150.098C170.458 150.098 170.064 150.345 169.775 150.84C169.486 151.332 169.34 152.055 169.338 153.008C169.335 153.646 169.399 154.182 169.529 154.617C169.662 155.052 169.85 155.38 170.092 155.602C170.334 155.82 170.622 155.93 170.955 155.93ZM177.874 153C177.874 153.974 177.744 154.871 177.483 155.691C177.226 156.509 176.84 157.266 176.327 157.961H174.995C175.196 157.703 175.381 157.388 175.55 157.016C175.722 156.643 175.87 156.234 175.995 155.789C176.123 155.344 176.222 154.883 176.292 154.406C176.365 153.93 176.401 153.461 176.401 153C176.401 152.383 176.339 151.758 176.214 151.125C176.091 150.492 175.924 149.905 175.71 149.363C175.499 148.822 175.261 148.379 174.995 148.035H176.327C176.84 148.73 177.226 149.488 177.483 150.309C177.744 151.126 177.874 152.023 177.874 153Z" fill="black"/>
</svg>
