<svg width="638" height="245" viewBox="0 0 638 245" fill="none" xmlns="http://www.w3.org/2000/svg">
<circle cx="80" cy="112" r="79" stroke="black" stroke-width="2"/>
<path d="M157.707 112.707C158.098 112.317 158.098 111.683 157.707 111.293L151.343 104.929C150.953 104.538 150.319 104.538 149.929 104.929C149.538 105.319 149.538 105.953 149.929 106.343L155.586 112L149.929 117.657C149.538 118.047 149.538 118.681 149.929 119.071C150.319 119.462 150.953 119.462 151.343 119.071L157.707 112.707ZM77 113H157V111H77V113Z" fill="#FF0000"/>
<path d="M104.991 104V95.8182H106.86V97.1818H106.946C107.095 96.7095 107.35 96.3455 107.713 96.0898C108.078 95.8306 108.496 95.701 108.964 95.701C109.071 95.701 109.19 95.7063 109.321 95.717C109.456 95.7241 109.568 95.7365 109.657 95.7543V97.5281C109.575 97.4996 109.446 97.4748 109.268 97.4535C109.094 97.4286 108.925 97.4162 108.762 97.4162C108.411 97.4162 108.094 97.4925 107.814 97.6452C107.537 97.7944 107.319 98.0021 107.159 98.2685C106.999 98.5348 106.919 98.842 106.919 99.19V104H104.991ZM111.249 98.5064V97.0845H117.394V98.5064H111.249ZM111.249 101.461V100.039H117.394V101.461H111.249ZM123.38 94.5455V104H121.667V96.212H121.612L119.401 97.6246V96.055L121.75 94.5455H123.38Z" fill="black"/>
<circle cx="78.5" cy="111.5" r="2.5" fill="black"/>
<rect x="479" y="33" width="158" height="158" stroke="#838FFC" stroke-width="2"/>
<circle cx="557.5" cy="111.5" r="77.5" stroke="black" stroke-width="2"/>
<path d="M635.707 112.707C636.098 112.317 636.098 111.683 635.707 111.293L629.343 104.929C628.953 104.538 628.319 104.538 627.929 104.929C627.538 105.319 627.538 105.953 627.929 106.343L633.586 112L627.929 117.657C627.538 118.047 627.538 118.681 627.929 119.071C628.319 119.462 628.953 119.462 629.343 119.071L635.707 112.707ZM555 113H635V111H555V113Z" fill="#FF0000"/>
<path d="M557.84 222V220.763L561.123 217.545C561.436 217.228 561.698 216.946 561.907 216.7C562.117 216.454 562.274 216.216 562.378 215.985C562.483 215.754 562.535 215.508 562.535 215.246C562.535 214.948 562.467 214.692 562.332 214.48C562.197 214.264 562.01 214.098 561.773 213.981C561.536 213.864 561.267 213.806 560.966 213.806C560.655 213.806 560.382 213.87 560.148 214C559.915 214.126 559.733 214.306 559.604 214.54C559.478 214.774 559.414 215.052 559.414 215.375H557.785C557.785 214.775 557.922 214.254 558.196 213.81C558.47 213.367 558.847 213.024 559.327 212.781C559.81 212.538 560.364 212.416 560.989 212.416C561.623 212.416 562.18 212.535 562.66 212.772C563.14 213.009 563.512 213.333 563.777 213.746C564.045 214.158 564.179 214.629 564.179 215.158C564.179 215.512 564.111 215.86 563.975 216.202C563.84 216.543 563.602 216.922 563.26 217.337C562.921 217.753 562.446 218.256 561.833 218.847L560.204 220.504V220.569H564.322V222H557.84ZM566.065 222V213.818H567.935V215.182H568.02C568.169 214.71 568.425 214.346 568.787 214.09C569.153 213.831 569.57 213.701 570.039 213.701C570.145 213.701 570.264 213.706 570.396 213.717C570.531 213.724 570.642 213.737 570.731 213.754V215.528C570.65 215.5 570.52 215.475 570.342 215.453C570.168 215.429 570 215.416 569.836 215.416C569.485 215.416 569.169 215.493 568.888 215.645C568.611 215.794 568.393 216.002 568.233 216.268C568.073 216.535 567.993 216.842 567.993 217.19V222H566.065Z" fill="black"/>
<path d="M478 202L485.5 206.33V197.67L478 202ZM638 202L630.5 197.67V206.33L638 202ZM484.75 202.75H631.25V201.25H484.75V202.75Z" fill="black"/>
<circle cx="556.5" cy="111.5" r="2.5" fill="black"/>
<path d="M583.991 106V97.8182H585.86V99.1818H585.946C586.095 98.7095 586.35 98.3455 586.713 98.0898C587.078 97.8306 587.496 97.701 587.964 97.701C588.071 97.701 588.19 97.7063 588.321 97.717C588.456 97.7241 588.568 97.7365 588.657 97.7543V99.5281C588.575 99.4996 588.446 99.4748 588.268 99.4535C588.094 99.4286 587.925 99.4162 587.762 99.4162C587.411 99.4162 587.094 99.4925 586.814 99.6452C586.537 99.7944 586.319 100.002 586.159 100.268C585.999 100.535 585.919 100.842 585.919 101.19V106H583.991ZM590.249 100.506V99.0845H596.394V100.506H590.249ZM590.249 103.461V102.039H596.394V103.461H590.249ZM602.38 96.5455V106H600.667V98.212H600.612L598.401 99.6246V98.055L600.75 96.5455H602.38Z" fill="black"/>
<rect x="239" y="33" width="158" height="158" stroke="#838FFC" stroke-width="2"/>
<path d="M394.007 189C394.559 188.996 395.004 188.546 395 187.993L394.94 178.993C394.936 178.441 394.485 177.997 393.933 178C393.381 178.004 392.936 178.455 392.94 179.007L392.993 187.007L384.993 187.06C384.441 187.064 383.997 187.515 384 188.067C384.004 188.619 384.455 189.064 385.007 189.06L394.007 189ZM318.298 114.712L393.298 188.712L394.702 187.288L319.702 113.288L318.298 114.712Z" fill="#42FF00"/>
<path d="M223 114L233 119.774V108.226L223 114ZM412 114L402 108.226V119.774L412 114ZM226.016 115H228.027V113H226.016V115ZM230.037 115H232.048V113H230.037V115ZM234.059 115H236.069V113H234.059V115ZM238.08 115H240.09V113H238.08V115ZM242.101 115H244.112V113H242.101V115ZM246.122 115H248.133V113H246.122V115ZM250.144 115H252.154V113H250.144V115ZM254.165 115H256.176V113H254.165V115ZM258.186 115H260.197V113H258.186V115ZM262.207 115H264.218V113H262.207V115ZM266.229 115H268.239V113H266.229V115ZM270.25 115H272.261V113H270.25V115ZM274.271 115H276.282V113H274.271V115ZM278.293 115H280.303V113H278.293V115ZM282.314 115H284.324V113H282.314V115ZM286.335 115H288.346V113H286.335V115ZM290.356 115H292.367V113H290.356V115ZM294.378 115H296.388V113H294.378V115ZM298.399 115H300.41V113H298.399V115ZM302.42 115H304.431V113H302.42V115ZM306.441 115H308.452V113H306.441V115ZM310.463 115H312.473V113H310.463V115ZM314.484 115H316.495V113H314.484V115ZM318.505 115H320.516V113H318.505V115ZM322.527 115H324.537V113H322.527V115ZM326.548 115H328.558V113H326.548V115ZM330.569 115H332.58V113H330.569V115ZM334.59 115H336.601V113H334.59V115ZM338.612 115H340.622V113H338.612V115ZM342.633 115H344.644V113H342.633V115ZM346.654 115H348.665V113H346.654V115ZM350.675 115H352.686V113H350.675V115ZM354.697 115H356.707V113H354.697V115ZM358.718 115H360.729V113H358.718V115ZM362.739 115H364.75V113H362.739V115ZM366.761 115L368.771 115V113L366.761 113V115ZM370.782 115H372.792V113H370.782V115ZM374.803 115H376.814V113H374.803V115ZM378.824 115H380.835V113H378.824V115ZM382.846 115H384.856V113H382.846V115ZM386.867 115H388.878V113H386.867V115ZM390.888 115H392.899V113H390.888V115ZM394.909 115H396.92V113H394.909V115ZM398.931 115H400.941V113H398.931V115ZM402.952 115H404.963V113H402.952V115ZM406.973 115H408.984V113H406.973V115Z" fill="#FF0000"/>
<path d="M319 206L324.774 196H313.226L319 206ZM319 18L313.226 28H324.774L319 18ZM320 203V201H318V203H320ZM320 199V197H318V199H320ZM320 195V193H318V195H320ZM320 191V189H318V191H320ZM320 187V185H318V187H320ZM320 183V181H318V183H320ZM320 179V177H318V179H320ZM320 175V173H318V175H320ZM320 171V169H318V171H320ZM320 167V165H318V167H320ZM320 163V161H318V163H320ZM320 159V157H318V159H320ZM320 155V153H318V155H320ZM320 151V149H318V151H320ZM320 147V145H318V147H320ZM320 143V141H318V143H320ZM320 139V137H318V139H320ZM320 135V133H318V135H320ZM320 131V129H318V131H320ZM320 127V125H318V127H320ZM320 123V121H318V123H320ZM320 119V117H318V119H320ZM320 115V113H318V115H320ZM320 111V109H318V111H320ZM320 107V105H318V107H320ZM320 103V101H318V103H320ZM320 99V97H318V99H320ZM320 95V93H318V95H320ZM320 91V89H318V91H320ZM320 87V85H318V87H320ZM320 83V81H318V83H320ZM320 79V77H318V79H320ZM320 75V73H318V75H320ZM320 71V69H318V71H320ZM320 67V65H318V67H320ZM320 63V61H318V63H320ZM320 59V57H318V59H320ZM320 55V53H318V55H320ZM320 51L320 49H318L318 51H320ZM320 47V45H318V47H320ZM320 43V41H318V43H320ZM320 39V37H318V39H320ZM320 35V33H318V35H320ZM320 31V29H318V31H320ZM320 27V25H318V27H320ZM320 23V21H318V23H320Z" fill="#FF0000"/>
<path d="M365.686 140.545V150H363.973V142.212H363.918L361.706 143.625V142.055L364.056 140.545H365.686Z" fill="black"/>
<path d="M360.686 234.545V244H358.973V236.212H358.918L356.706 237.625V236.055L359.056 234.545H360.686Z" fill="black"/>
<path d="M280.686 234.545V244H278.973V236.212H278.918L276.706 237.625V236.055L279.056 234.545H280.686Z" fill="black"/>
<path d="M280.373 225.38L278.555 225.377C278.541 222.101 277.958 219.884 276.805 218.726C275.633 217.55 273.418 216.959 270.16 216.953L255.274 216.927C253.21 216.923 251.42 216.712 249.906 216.292C248.373 215.873 247.105 215.236 246.102 214.382C245.1 213.528 244.354 212.457 243.864 211.168C243.374 209.86 243.13 208.326 243.133 206.564L244.952 206.568C244.929 208.537 245.277 210.157 245.994 211.427C246.712 212.679 247.837 213.609 249.37 214.217C250.884 214.807 252.853 215.104 255.277 215.109L270.164 215.135C272.039 215.138 273.629 215.321 274.935 215.683C276.223 216.045 277.273 216.625 278.086 217.422C278.88 218.219 279.465 219.271 279.842 220.578C280.199 221.886 280.376 223.486 280.373 225.38ZM315.861 206.693C315.857 208.455 315.608 209.988 315.114 211.294C314.619 212.581 313.869 213.65 312.864 214.5C311.858 215.351 310.588 215.983 309.054 216.397C307.538 216.811 305.748 217.016 303.683 217.013L288.797 216.986C285.539 216.98 283.332 217.564 282.174 218.736C280.998 219.889 280.398 222.104 280.373 225.38L278.555 225.377C278.577 223.483 278.779 221.883 279.16 220.577C279.522 219.271 280.101 218.221 280.898 217.427C281.695 216.633 282.747 216.057 284.055 215.699C285.343 215.342 286.925 215.165 288.8 215.168L303.686 215.194C306.111 215.199 308.081 214.909 309.597 214.324C311.132 213.721 312.251 212.795 312.954 211.546C313.676 210.278 314.039 208.66 314.042 206.69L315.861 206.693ZM280.373 225.38L278.555 225.377L278.565 219.241L280.384 219.244L280.373 225.38Z" fill="black"/>
<path d="M359.373 225.38L357.555 225.377C357.541 222.101 356.958 219.884 355.805 218.726C354.633 217.55 352.418 216.959 349.16 216.953L334.274 216.927C332.21 216.923 330.42 216.712 328.906 216.292C327.373 215.873 326.105 215.236 325.102 214.382C324.1 213.528 323.354 212.457 322.864 211.168C322.374 209.86 322.13 208.326 322.133 206.564L323.952 206.568C323.929 208.537 324.277 210.157 324.994 211.427C325.712 212.679 326.837 213.609 328.37 214.217C329.884 214.807 331.853 215.104 334.277 215.109L349.164 215.135C351.039 215.138 352.629 215.321 353.935 215.683C355.223 216.045 356.273 216.625 357.086 217.422C357.88 218.219 358.465 219.271 358.842 220.578C359.199 221.886 359.376 223.486 359.373 225.38ZM394.861 206.693C394.857 208.455 394.608 209.988 394.114 211.294C393.619 212.581 392.869 213.65 391.864 214.5C390.858 215.351 389.588 215.983 388.054 216.397C386.538 216.811 384.748 217.016 382.683 217.013L367.797 216.986C364.539 216.98 362.332 217.564 361.174 218.736C359.998 219.889 359.398 222.104 359.373 225.38L357.555 225.377C357.577 223.483 357.779 221.883 358.16 220.577C358.522 219.271 359.101 218.221 359.898 217.427C360.695 216.633 361.747 216.057 363.055 215.699C364.343 215.342 365.925 215.165 367.8 215.168L382.686 215.194C385.111 215.199 387.081 214.909 388.597 214.324C390.132 213.721 391.251 212.795 391.954 211.546C392.676 210.278 393.039 208.66 393.042 206.69L394.861 206.693ZM359.373 225.38L357.555 225.377L357.565 219.241L359.384 219.244L359.373 225.38Z" fill="black"/>
<rect x="320" y="34" width="76" height="79" fill="#BCF9FD" fill-opacity="0.91"/>
<path d="M339.216 6.36364C339.216 7.14725 339.069 7.81842 338.776 8.37713C338.484 8.93348 338.087 9.35961 337.582 9.65554C337.08 9.95147 336.511 10.0994 335.874 10.0994C335.237 10.0994 334.667 9.95147 334.163 9.65554C333.661 9.35724 333.263 8.92992 332.969 8.37358C332.678 7.81487 332.533 7.14489 332.533 6.36364C332.533 5.58002 332.678 4.91004 332.969 4.35369C333.263 3.79498 333.661 3.36766 334.163 3.07173C334.667 2.7758 335.237 2.62784 335.874 2.62784C336.511 2.62784 337.08 2.7758 337.582 3.07173C338.087 3.36766 338.484 3.79498 338.776 4.35369C339.069 4.91004 339.216 5.58002 339.216 6.36364ZM337.891 6.36364C337.891 5.81203 337.805 5.34683 337.632 4.96804C337.462 4.58688 337.225 4.29924 336.922 4.10511C336.619 3.90862 336.27 3.81037 335.874 3.81037C335.479 3.81037 335.13 3.90862 334.827 4.10511C334.524 4.29924 334.286 4.58688 334.113 4.96804C333.942 5.34683 333.857 5.81203 333.857 6.36364C333.857 6.91525 333.942 7.38163 334.113 7.76278C334.286 8.14157 334.524 8.42921 334.827 8.62571C335.13 8.81984 335.479 8.9169 335.874 8.9169C336.27 8.9169 336.619 8.81984 336.922 8.62571C337.225 8.42921 337.462 8.14157 337.632 7.76278C337.805 7.38163 337.891 6.91525 337.891 6.36364ZM341.69 6.80398V10H340.405V4.54545H341.633V5.4723H341.697C341.823 5.1669 342.023 4.92424 342.297 4.74432C342.574 4.56439 342.916 4.47443 343.324 4.47443C343.7 4.47443 344.028 4.55492 344.307 4.71591C344.589 4.87689 344.807 5.11009 344.961 5.41548C345.117 5.72088 345.194 6.09138 345.192 6.52699V10H343.906V6.72585C343.906 6.36127 343.811 6.07599 343.622 5.87003C343.435 5.66406 343.176 5.56108 342.844 5.56108C342.619 5.56108 342.419 5.6108 342.244 5.71023C342.071 5.80729 341.935 5.94815 341.836 6.13281C341.739 6.31747 341.69 6.54119 341.69 6.80398ZM348.913 10.1065C348.366 10.1065 347.894 9.9929 347.496 9.76562C347.101 9.53598 346.797 9.21165 346.584 8.79261C346.371 8.37121 346.264 7.87524 346.264 7.30469C346.264 6.74361 346.371 6.25118 346.584 5.82741C346.799 5.40128 347.1 5.06984 347.486 4.8331C347.872 4.59399 348.325 4.47443 348.846 4.47443C349.182 4.47443 349.499 4.52888 349.797 4.63778C350.098 4.74432 350.363 4.91004 350.593 5.13494C350.825 5.35985 351.007 5.64631 351.14 5.99432C351.272 6.33996 351.339 6.75189 351.339 7.23011V7.62429H346.868V6.75781H350.106C350.104 6.5116 350.051 6.29261 349.947 6.10085C349.842 5.90672 349.697 5.75402 349.51 5.64276C349.325 5.53149 349.11 5.47585 348.863 5.47585C348.601 5.47585 348.37 5.53977 348.171 5.66761C347.972 5.79309 347.817 5.95881 347.706 6.16477C347.597 6.36837 347.541 6.59209 347.539 6.83594V7.59233C347.539 7.90956 347.597 8.18182 347.713 8.40909C347.829 8.634 347.991 8.80682 348.199 8.92756C348.408 9.04593 348.652 9.10511 348.931 9.10511C349.118 9.10511 349.287 9.07907 349.439 9.02699C349.59 8.97254 349.722 8.89323 349.833 8.78906C349.944 8.6849 350.028 8.55587 350.085 8.40199L351.285 8.53693C351.21 8.85417 351.065 9.13116 350.852 9.3679C350.641 9.60227 350.372 9.78456 350.042 9.91477C349.713 10.0426 349.337 10.1065 348.913 10.1065ZM357.673 7.55682H358.866L359.573 8.47301L360.077 9.0696L361.288 10.625H360.01L359.186 9.58097L358.834 9.08381L357.673 7.55682ZM361.462 6.36364C361.462 7.14725 361.315 7.81842 361.022 8.37713C360.73 8.93348 360.333 9.35961 359.828 9.65554C359.327 9.95147 358.757 10.0994 358.12 10.0994C357.484 10.0994 356.913 9.95147 356.409 9.65554C355.907 9.35724 355.509 8.92992 355.216 8.37358C354.924 7.81487 354.779 7.14489 354.779 6.36364C354.779 5.58002 354.924 4.91004 355.216 4.35369C355.509 3.79498 355.907 3.36766 356.409 3.07173C356.913 2.7758 357.484 2.62784 358.12 2.62784C358.757 2.62784 359.327 2.7758 359.828 3.07173C360.333 3.36766 360.73 3.79498 361.022 4.35369C361.315 4.91004 361.462 5.58002 361.462 6.36364ZM360.137 6.36364C360.137 5.81203 360.051 5.34683 359.878 4.96804C359.708 4.58688 359.471 4.29924 359.168 4.10511C358.865 3.90862 358.516 3.81037 358.12 3.81037C357.725 3.81037 357.376 3.90862 357.073 4.10511C356.77 4.29924 356.532 4.58688 356.359 4.96804C356.189 5.34683 356.103 5.81203 356.103 6.36364C356.103 6.91525 356.189 7.38163 356.359 7.76278C356.532 8.14157 356.77 8.42921 357.073 8.62571C357.376 8.81984 357.725 8.9169 358.12 8.9169C358.516 8.9169 358.865 8.81984 359.168 8.62571C359.471 8.42921 359.708 8.14157 359.878 7.76278C360.051 7.38163 360.137 6.91525 360.137 6.36364ZM366.137 7.70597V4.54545H367.423V10H366.176V9.03054H366.119C365.996 9.33594 365.794 9.5857 365.512 9.77983C365.233 9.97396 364.888 10.071 364.479 10.071C364.121 10.071 363.805 9.99171 363.531 9.8331C363.258 9.67211 363.045 9.43892 362.891 9.13352C362.737 8.82576 362.661 8.45407 362.661 8.01847V4.54545H363.946V7.8196C363.946 8.16525 364.041 8.43987 364.23 8.64347C364.42 8.84706 364.668 8.94886 364.976 8.94886C365.165 8.94886 365.349 8.9027 365.526 8.81037C365.704 8.71804 365.849 8.58073 365.963 8.39844C366.079 8.21378 366.137 7.98295 366.137 7.70597ZM370.314 10.1101C369.968 10.1101 369.657 10.0485 369.38 9.92543C369.106 9.79995 368.888 9.61529 368.727 9.37145C368.568 9.1276 368.489 8.82694 368.489 8.46946C368.489 8.1617 368.546 7.9072 368.659 7.70597C368.773 7.50473 368.928 7.34375 369.124 7.22301C369.321 7.10227 369.542 7.01113 369.789 6.94957C370.037 6.88565 370.294 6.83949 370.559 6.81108C370.879 6.77794 371.138 6.74834 371.337 6.7223C371.536 6.69389 371.68 6.65128 371.77 6.59446C371.862 6.53527 371.909 6.44413 371.909 6.32102V6.29972C371.909 6.0322 371.829 5.82505 371.671 5.67827C371.512 5.53149 371.284 5.4581 370.985 5.4581C370.67 5.4581 370.421 5.52675 370.236 5.66406C370.054 5.80137 369.931 5.96354 369.867 6.15057L368.666 5.98011C368.761 5.64867 368.917 5.37169 369.135 5.14915C369.353 4.92424 369.619 4.75616 369.934 4.64489C370.249 4.53125 370.597 4.47443 370.978 4.47443C371.241 4.47443 371.503 4.50521 371.763 4.56676C372.023 4.62831 372.261 4.73011 372.477 4.87216C372.692 5.01184 372.865 5.20241 372.995 5.44389C373.128 5.68537 373.194 5.98722 373.194 6.34943V10H371.958V9.25071H371.916C371.838 9.40223 371.727 9.54427 371.585 9.67685C371.446 9.80705 371.269 9.91241 371.056 9.9929C370.846 10.071 370.598 10.1101 370.314 10.1101ZM370.648 9.16548C370.906 9.16548 371.13 9.11458 371.319 9.01278C371.508 8.90862 371.654 8.77131 371.756 8.60085C371.86 8.4304 371.912 8.24455 371.912 8.04332V7.40057C371.872 7.43371 371.803 7.46449 371.706 7.4929C371.611 7.52131 371.505 7.54616 371.387 7.56747C371.268 7.58878 371.151 7.60772 371.035 7.62429C370.919 7.64086 370.818 7.65507 370.733 7.6669C370.541 7.69294 370.37 7.73556 370.218 7.79474C370.067 7.85393 369.947 7.93679 369.86 8.04332C369.772 8.14749 369.728 8.28243 369.728 8.44815C369.728 8.6849 369.815 8.86364 369.987 8.98438C370.16 9.10511 370.38 9.16548 370.648 9.16548ZM376.511 10.0959C376.082 10.0959 375.699 9.9858 375.36 9.76562C375.022 9.54545 374.754 9.22585 374.558 8.80682C374.361 8.38778 374.263 7.87879 374.263 7.27983C374.263 6.67377 374.362 6.16241 374.561 5.74574C374.762 5.3267 375.034 5.01065 375.374 4.79759C375.715 4.58215 376.095 4.47443 376.514 4.47443C376.834 4.47443 377.097 4.52888 377.303 4.63778C377.509 4.74432 377.672 4.87334 377.793 5.02486C377.914 5.17401 378.007 5.31487 378.073 5.44744H378.127V2.72727H379.416V10H378.151V9.14062H378.073C378.007 9.2732 377.911 9.41406 377.786 9.56321C377.66 9.70999 377.494 9.83546 377.289 9.93963C377.083 10.0438 376.823 10.0959 376.511 10.0959ZM376.869 9.04119C377.142 9.04119 377.374 8.9678 377.566 8.82102C377.757 8.67187 377.903 8.46473 378.002 8.19957C378.102 7.93442 378.151 7.62547 378.151 7.27273C378.151 6.91998 378.102 6.6134 378.002 6.35298C377.905 6.09257 377.761 5.89015 377.569 5.74574C377.38 5.60133 377.146 5.52912 376.869 5.52912C376.583 5.52912 376.344 5.60369 376.152 5.75284C375.96 5.90199 375.816 6.10795 375.719 6.37074C375.622 6.63352 375.573 6.93419 375.573 7.27273C375.573 7.61364 375.622 7.91785 375.719 8.18537C375.818 8.45052 375.964 8.66004 376.156 8.81392C376.35 8.96544 376.588 9.04119 376.869 9.04119ZM380.786 10V4.54545H382.032V5.45455H382.089C382.188 5.13968 382.359 4.89702 382.6 4.72656C382.844 4.55374 383.122 4.46733 383.435 4.46733C383.506 4.46733 383.585 4.47088 383.673 4.47798C383.763 4.48272 383.837 4.491 383.896 4.50284V5.68537C383.842 5.66643 383.755 5.64986 383.637 5.63565C383.521 5.61908 383.409 5.6108 383.3 5.6108C383.065 5.6108 382.855 5.66169 382.668 5.76349C382.483 5.86293 382.337 6.00142 382.231 6.17898C382.124 6.35653 382.071 6.56132 382.071 6.79332V10H380.786ZM386.222 10.1101C385.877 10.1101 385.565 10.0485 385.288 9.92543C385.014 9.79995 384.796 9.61529 384.635 9.37145C384.476 9.1276 384.397 8.82694 384.397 8.46946C384.397 8.1617 384.454 7.9072 384.567 7.70597C384.681 7.50473 384.836 7.34375 385.033 7.22301C385.229 7.10227 385.451 7.01113 385.697 6.94957C385.945 6.88565 386.202 6.83949 386.467 6.81108C386.787 6.77794 387.046 6.74834 387.245 6.7223C387.444 6.69389 387.588 6.65128 387.678 6.59446C387.771 6.53527 387.817 6.44413 387.817 6.32102V6.29972C387.817 6.0322 387.737 5.82505 387.579 5.67827C387.42 5.53149 387.192 5.4581 386.893 5.4581C386.579 5.4581 386.329 5.52675 386.144 5.66406C385.962 5.80137 385.839 5.96354 385.775 6.15057L384.575 5.98011C384.669 5.64867 384.826 5.37169 385.043 5.14915C385.261 4.92424 385.527 4.75616 385.842 4.64489C386.157 4.53125 386.505 4.47443 386.886 4.47443C387.149 4.47443 387.411 4.50521 387.671 4.56676C387.932 4.62831 388.17 4.73011 388.385 4.87216C388.6 5.01184 388.773 5.20241 388.903 5.44389C389.036 5.68537 389.102 5.98722 389.102 6.34943V10H387.866V9.25071H387.824C387.746 9.40223 387.636 9.54427 387.494 9.67685C387.354 9.80705 387.178 9.91241 386.964 9.9929C386.754 10.071 386.506 10.1101 386.222 10.1101ZM386.556 9.16548C386.814 9.16548 387.038 9.11458 387.227 9.01278C387.417 8.90862 387.562 8.77131 387.664 8.60085C387.768 8.4304 387.82 8.24455 387.82 8.04332V7.40057C387.78 7.43371 387.711 7.46449 387.614 7.4929C387.52 7.52131 387.413 7.54616 387.295 7.56747C387.176 7.58878 387.059 7.60772 386.943 7.62429C386.827 7.64086 386.727 7.65507 386.641 7.6669C386.45 7.69294 386.278 7.73556 386.126 7.79474C385.975 7.85393 385.855 7.93679 385.768 8.04332C385.68 8.14749 385.636 8.28243 385.636 8.44815C385.636 8.6849 385.723 8.86364 385.896 8.98438C386.068 9.10511 386.289 9.16548 386.556 9.16548ZM391.68 6.80398V10H390.395V4.54545H391.624V5.4723H391.688C391.813 5.1669 392.013 4.92424 392.288 4.74432C392.565 4.56439 392.907 4.47443 393.314 4.47443C393.69 4.47443 394.018 4.55492 394.298 4.71591C394.579 4.87689 394.797 5.11009 394.951 5.41548C395.107 5.72088 395.184 6.09138 395.182 6.52699V10H393.896V6.72585C393.896 6.36127 393.802 6.07599 393.612 5.87003C393.425 5.66406 393.166 5.56108 392.835 5.56108C392.61 5.56108 392.41 5.6108 392.234 5.71023C392.062 5.80729 391.925 5.94815 391.826 6.13281C391.729 6.31747 391.68 6.54119 391.68 6.80398ZM399.212 4.54545V5.53977H396.077V4.54545H399.212ZM396.851 3.23864H398.136V8.35938C398.136 8.5322 398.162 8.66477 398.214 8.7571C398.269 8.84706 398.34 8.90862 398.428 8.94176C398.515 8.97491 398.612 8.99148 398.719 8.99148C398.799 8.99148 398.873 8.98556 398.939 8.97372C399.008 8.96188 399.06 8.95123 399.095 8.94176L399.312 9.94673C399.243 9.97041 399.145 9.99645 399.017 10.0249C398.892 10.0533 398.738 10.0698 398.555 10.0746C398.233 10.084 397.943 10.0355 397.685 9.92898C397.427 9.82008 397.223 9.65199 397.071 9.42472C396.922 9.19744 396.848 8.91335 396.851 8.57244V3.23864ZM405.147 10.1065C404.615 10.1065 404.153 9.98935 403.762 9.75497C403.372 9.5206 403.069 9.19271 402.853 8.77131C402.64 8.34991 402.534 7.85748 402.534 7.29403C402.534 6.73059 402.64 6.23698 402.853 5.81321C403.069 5.38944 403.372 5.06037 403.762 4.82599C404.153 4.59162 404.615 4.47443 405.147 4.47443C405.68 4.47443 406.142 4.59162 406.532 4.82599C406.923 5.06037 407.225 5.38944 407.438 5.81321C407.653 6.23698 407.761 6.73059 407.761 7.29403C407.761 7.85748 407.653 8.34991 407.438 8.77131C407.225 9.19271 406.923 9.5206 406.532 9.75497C406.142 9.98935 405.68 10.1065 405.147 10.1065ZM405.154 9.0767C405.443 9.0767 405.685 8.9974 405.879 8.83878C406.073 8.67779 406.217 8.46236 406.312 8.19247C406.409 7.92259 406.458 7.62192 406.458 7.29048C406.458 6.95668 406.409 6.65483 406.312 6.38494C406.217 6.11269 406.073 5.89607 405.879 5.73509C405.685 5.5741 405.443 5.49361 405.154 5.49361C404.858 5.49361 404.612 5.5741 404.416 5.73509C404.222 5.89607 404.076 6.11269 403.979 6.38494C403.884 6.65483 403.837 6.95668 403.837 7.29048C403.837 7.62192 403.884 7.92259 403.979 8.19247C404.076 8.46236 404.222 8.67779 404.416 8.83878C404.612 8.9974 404.858 9.0767 405.154 9.0767ZM411.615 4.54545V5.53977H408.39V4.54545H411.615ZM409.196 10V4.03054C409.196 3.66359 409.272 3.35819 409.424 3.11435C409.578 2.8705 409.783 2.68821 410.042 2.56747C410.3 2.44673 410.586 2.38636 410.901 2.38636C411.123 2.38636 411.321 2.40412 411.494 2.43963C411.667 2.47514 411.795 2.5071 411.877 2.53551L411.622 3.52983C411.567 3.51326 411.499 3.49669 411.416 3.48011C411.333 3.46117 411.241 3.4517 411.139 3.4517C410.9 3.4517 410.73 3.50971 410.631 3.62571C410.534 3.73935 410.485 3.9027 410.485 4.11577V10H409.196ZM417.826 4.54545V5.53977H414.69V4.54545H417.826ZM415.464 3.23864H416.75V8.35938C416.75 8.5322 416.776 8.66477 416.828 8.7571C416.882 8.84706 416.953 8.90862 417.041 8.94176C417.128 8.97491 417.225 8.99148 417.332 8.99148C417.413 8.99148 417.486 8.98556 417.552 8.97372C417.621 8.96188 417.673 8.95123 417.708 8.94176L417.925 9.94673C417.856 9.97041 417.758 9.99645 417.63 10.0249C417.505 10.0533 417.351 10.0698 417.169 10.0746C416.847 10.084 416.557 10.0355 416.299 9.92898C416.041 9.82008 415.836 9.65199 415.684 9.42472C415.535 9.19744 415.462 8.91335 415.464 8.57244V3.23864ZM420.303 6.80398V10H419.018V2.72727H420.275V5.4723H420.339C420.467 5.16454 420.664 4.92187 420.932 4.74432C421.202 4.56439 421.545 4.47443 421.962 4.47443C422.341 4.47443 422.671 4.55374 422.953 4.71236C423.234 4.87098 423.452 5.10298 423.606 5.40838C423.762 5.71378 423.84 6.08665 423.84 6.52699V10H422.555V6.72585C422.555 6.3589 422.46 6.07363 422.271 5.87003C422.084 5.66406 421.821 5.56108 421.482 5.56108C421.255 5.56108 421.052 5.6108 420.872 5.71023C420.694 5.80729 420.554 5.94815 420.453 6.13281C420.353 6.31747 420.303 6.54119 420.303 6.80398ZM427.566 10.1065C427.019 10.1065 426.546 9.9929 426.149 9.76562C425.753 9.53598 425.449 9.21165 425.236 8.79261C425.023 8.37121 424.916 7.87524 424.916 7.30469C424.916 6.74361 425.023 6.25118 425.236 5.82741C425.451 5.40128 425.752 5.06984 426.138 4.8331C426.524 4.59399 426.977 4.47443 427.498 4.47443C427.834 4.47443 428.151 4.52888 428.45 4.63778C428.75 4.74432 429.016 4.91004 429.245 5.13494C429.477 5.35985 429.66 5.64631 429.792 5.99432C429.925 6.33996 429.991 6.75189 429.991 7.23011V7.62429H425.52V6.75781H428.759C428.756 6.5116 428.703 6.29261 428.599 6.10085C428.495 5.90672 428.349 5.75402 428.162 5.64276C427.977 5.53149 427.762 5.47585 427.516 5.47585C427.253 5.47585 427.022 5.53977 426.823 5.66761C426.624 5.79309 426.469 5.95881 426.358 6.16477C426.249 6.36837 426.194 6.59209 426.191 6.83594V7.59233C426.191 7.90956 426.249 8.18182 426.365 8.40909C426.481 8.634 426.643 8.80682 426.852 8.92756C427.06 9.04593 427.304 9.10511 427.583 9.10511C427.77 9.10511 427.94 9.07907 428.091 9.02699C428.243 8.97254 428.374 8.89323 428.485 8.78906C428.597 8.6849 428.681 8.55587 428.737 8.40199L429.938 8.53693C429.862 8.85417 429.718 9.13116 429.504 9.3679C429.294 9.60227 429.024 9.78456 428.695 9.91477C428.366 10.0426 427.989 10.1065 427.566 10.1065ZM437.87 5.98722L436.698 6.11506C436.665 5.99669 436.607 5.88542 436.524 5.78125C436.444 5.67708 436.335 5.59304 436.197 5.52912C436.06 5.4652 435.892 5.43324 435.693 5.43324C435.426 5.43324 435.201 5.49124 435.018 5.60724C434.839 5.72325 434.75 5.87358 434.752 6.05824C434.75 6.21686 434.808 6.34588 434.926 6.44531C435.047 6.54474 435.246 6.62642 435.523 6.69034L436.453 6.8892C436.969 7.00047 437.353 7.17685 437.604 7.41832C437.857 7.6598 437.985 7.97585 437.987 8.36648C437.985 8.70975 437.884 9.01278 437.685 9.27557C437.489 9.53598 437.215 9.73958 436.865 9.88636C436.515 10.0331 436.112 10.1065 435.658 10.1065C434.99 10.1065 434.453 9.96686 434.045 9.6875C433.638 9.40578 433.396 9.01397 433.317 8.51207L434.571 8.39134C434.628 8.63755 434.749 8.82339 434.933 8.94886C435.118 9.07434 435.358 9.13707 435.654 9.13707C435.96 9.13707 436.205 9.07434 436.389 8.94886C436.576 8.82339 436.67 8.66832 436.67 8.48366C436.67 8.32741 436.609 8.19839 436.489 8.09659C436.37 7.99479 436.186 7.91667 435.935 7.86222L435.004 7.6669C434.481 7.558 434.094 7.37453 433.843 7.11648C433.592 6.85606 433.468 6.52699 433.47 6.12926C433.468 5.79309 433.559 5.50189 433.744 5.25568C433.931 5.0071 434.19 4.81534 434.521 4.6804C434.855 4.54309 435.24 4.47443 435.675 4.47443C436.315 4.47443 436.818 4.61056 437.185 4.88281C437.554 5.15507 437.782 5.5232 437.87 5.98722ZM442.687 12.0455V9.14062H442.634C442.568 9.2732 442.472 9.41406 442.346 9.56321C442.221 9.70999 442.055 9.83546 441.849 9.93963C441.643 10.0438 441.384 10.0959 441.071 10.0959C440.643 10.0959 440.259 9.9858 439.921 9.76562C439.582 9.54545 439.315 9.22585 439.118 8.80682C438.922 8.38778 438.824 7.87879 438.824 7.27983C438.824 6.67377 438.923 6.16241 439.122 5.74574C439.323 5.3267 439.594 5.01065 439.935 4.79759C440.276 4.58215 440.656 4.47443 441.075 4.47443C441.395 4.47443 441.657 4.52888 441.863 4.63778C442.069 4.74432 442.233 4.87334 442.353 5.02486C442.474 5.17401 442.568 5.31487 442.634 5.44744H442.712V4.54545H443.976V12.0455H442.687ZM441.43 9.04119C441.702 9.04119 441.934 8.9678 442.126 8.82102C442.318 8.67187 442.463 8.46473 442.563 8.19957C442.662 7.93442 442.712 7.62547 442.712 7.27273C442.712 6.91998 442.662 6.6134 442.563 6.35298C442.466 6.09257 442.321 5.89015 442.13 5.74574C441.94 5.60133 441.707 5.52912 441.43 5.52912C441.144 5.52912 440.904 5.60369 440.713 5.75284C440.521 5.90199 440.377 6.10795 440.279 6.37074C440.182 6.63352 440.134 6.93419 440.134 7.27273C440.134 7.61364 440.182 7.91785 440.279 8.18537C440.379 8.45052 440.525 8.66004 440.716 8.81392C440.91 8.96544 441.148 9.04119 441.43 9.04119ZM448.774 7.70597V4.54545H450.059V10H448.813V9.03054H448.756C448.633 9.33594 448.431 9.5857 448.149 9.77983C447.869 9.97396 447.525 10.071 447.115 10.071C446.758 10.071 446.442 9.99171 446.167 9.8331C445.895 9.67211 445.682 9.43892 445.528 9.13352C445.374 8.82576 445.297 8.45407 445.297 8.01847V4.54545H446.583V7.8196C446.583 8.16525 446.677 8.43987 446.867 8.64347C447.056 8.84706 447.305 8.94886 447.613 8.94886C447.802 8.94886 447.985 8.9027 448.163 8.81037C448.341 8.71804 448.486 8.58073 448.6 8.39844C448.716 8.21378 448.774 7.98295 448.774 7.70597ZM452.951 10.1101C452.605 10.1101 452.294 10.0485 452.017 9.92543C451.742 9.79995 451.524 9.61529 451.363 9.37145C451.205 9.1276 451.126 8.82694 451.126 8.46946C451.126 8.1617 451.182 7.9072 451.296 7.70597C451.41 7.50473 451.565 7.34375 451.761 7.22301C451.958 7.10227 452.179 7.01113 452.425 6.94957C452.674 6.88565 452.931 6.83949 453.196 6.81108C453.515 6.77794 453.775 6.74834 453.974 6.7223C454.172 6.69389 454.317 6.65128 454.407 6.59446C454.499 6.53527 454.545 6.44413 454.545 6.32102V6.29972C454.545 6.0322 454.466 5.82505 454.307 5.67827C454.149 5.53149 453.92 5.4581 453.622 5.4581C453.307 5.4581 453.057 5.52675 452.873 5.66406C452.69 5.80137 452.567 5.96354 452.503 6.15057L451.303 5.98011C451.398 5.64867 451.554 5.37169 451.772 5.14915C451.99 4.92424 452.256 4.75616 452.571 4.64489C452.886 4.53125 453.234 4.47443 453.615 4.47443C453.878 4.47443 454.139 4.50521 454.4 4.56676C454.66 4.62831 454.898 4.73011 455.113 4.87216C455.329 5.01184 455.502 5.20241 455.632 5.44389C455.765 5.68537 455.831 5.98722 455.831 6.34943V10H454.595V9.25071H454.552C454.474 9.40223 454.364 9.54427 454.222 9.67685C454.082 9.80705 453.906 9.91241 453.693 9.9929C453.482 10.071 453.235 10.1101 452.951 10.1101ZM453.285 9.16548C453.543 9.16548 453.766 9.11458 453.956 9.01278C454.145 8.90862 454.291 8.77131 454.393 8.60085C454.497 8.4304 454.549 8.24455 454.549 8.04332V7.40057C454.509 7.43371 454.44 7.46449 454.343 7.4929C454.248 7.52131 454.142 7.54616 454.023 7.56747C453.905 7.58878 453.788 7.60772 453.672 7.62429C453.556 7.64086 453.455 7.65507 453.37 7.6669C453.178 7.69294 453.006 7.73556 452.855 7.79474C452.703 7.85393 452.584 7.93679 452.496 8.04332C452.409 8.14749 452.365 8.28243 452.365 8.44815C452.365 8.6849 452.451 8.86364 452.624 8.98438C452.797 9.10511 453.017 9.16548 453.285 9.16548ZM457.123 10V4.54545H458.37V5.45455H458.427C458.526 5.13968 458.697 4.89702 458.938 4.72656C459.182 4.55374 459.46 4.46733 459.773 4.46733C459.844 4.46733 459.923 4.47088 460.01 4.47798C460.1 4.48272 460.175 4.491 460.234 4.50284V5.68537C460.18 5.66643 460.093 5.64986 459.975 5.63565C459.859 5.61908 459.747 5.6108 459.638 5.6108C459.403 5.6108 459.193 5.66169 459.006 5.76349C458.821 5.86293 458.675 6.00142 458.569 6.17898C458.462 6.35653 458.409 6.56132 458.409 6.79332V10H457.123ZM463.278 10.1065C462.732 10.1065 462.259 9.9929 461.862 9.76562C461.466 9.53598 461.162 9.21165 460.949 8.79261C460.736 8.37121 460.629 7.87524 460.629 7.30469C460.629 6.74361 460.736 6.25118 460.949 5.82741C461.164 5.40128 461.465 5.06984 461.851 4.8331C462.237 4.59399 462.69 4.47443 463.211 4.47443C463.547 4.47443 463.864 4.52888 464.163 4.63778C464.463 4.74432 464.728 4.91004 464.958 5.13494C465.19 5.35985 465.372 5.64631 465.505 5.99432C465.638 6.33996 465.704 6.75189 465.704 7.23011V7.62429H461.233V6.75781H464.472C464.469 6.5116 464.416 6.29261 464.312 6.10085C464.208 5.90672 464.062 5.75402 463.875 5.64276C463.69 5.53149 463.475 5.47585 463.229 5.47585C462.966 5.47585 462.735 5.53977 462.536 5.66761C462.337 5.79309 462.182 5.95881 462.071 6.16477C461.962 6.36837 461.906 6.59209 461.904 6.83594V7.59233C461.904 7.90956 461.962 8.18182 462.078 8.40909C462.194 8.634 462.356 8.80682 462.565 8.92756C462.773 9.04593 463.017 9.10511 463.296 9.10511C463.483 9.10511 463.652 9.07907 463.804 9.02699C463.955 8.97254 464.087 8.89323 464.198 8.78906C464.309 8.6849 464.393 8.55587 464.45 8.40199L465.651 8.53693C465.575 8.85417 465.43 9.13116 465.217 9.3679C465.007 9.60227 464.737 9.78456 464.408 9.91477C464.079 10.0426 463.702 10.1065 463.278 10.1065Z" fill="black"/>
<path d="M381.855 39.3519C382.051 39.5471 382.367 39.5471 382.563 39.3519L385.745 36.1699C385.94 35.9746 385.94 35.658 385.745 35.4628C385.549 35.2675 385.233 35.2675 385.037 35.4628L382.209 38.2912L379.381 35.4628C379.185 35.2675 378.869 35.2675 378.674 35.4628C378.478 35.658 378.478 35.9746 378.674 36.1699L381.855 39.3519ZM382.709 38.9983V12.9983H381.709V38.9983H382.709Z" fill="black"/>
<path d="M464.061 114.061C464.646 113.475 464.646 112.525 464.061 111.939L454.515 102.393C453.929 101.808 452.979 101.808 452.393 102.393C451.808 102.979 451.808 103.929 452.393 104.515L460.879 113L452.393 121.485C451.808 122.071 451.808 123.021 452.393 123.607C452.979 124.192 453.929 124.192 454.515 123.607L464.061 114.061ZM430 114.5H463V111.5H430V114.5Z" fill="black"/>
<path d="M194.142 121.26V104.854H196.926V121.26H194.142ZM187.331 114.449V111.665H203.737V114.449H187.331Z" fill="black"/>
</svg>
