<svg width="248" height="221" viewBox="0 0 248 221" fill="none" xmlns="http://www.w3.org/2000/svg">
<circle cx="96" cy="93.9999" r="77" stroke="black" stroke-width="2"/>
<rect x="17" y="14.9999" width="158" height="158" stroke="#7E7E7E" stroke-width="2"/>
<path d="M0 92.9999L5 95.8867L5 90.1132L0 92.9999ZM189 92.9999L184 90.1132V95.8867L189 92.9999ZM3.01596 93.4999H5.0266V92.4999H3.01596V93.4999ZM7.03723 93.4999H9.04787V92.4999H7.03723V93.4999ZM11.0585 93.4999H13.0691V92.4999H11.0585V93.4999ZM15.0798 93.4999H17.0904V92.4999H15.0798V93.4999ZM19.1011 93.4999H21.1117V92.4999H19.1011V93.4999ZM23.1223 93.4999H25.133V92.4999H23.1223V93.4999ZM27.1436 93.4999L29.1543 93.4999V92.4999H27.1436V93.4999ZM31.1649 93.4999H33.1755V92.4999H31.1649V93.4999ZM35.1862 93.4999H37.1968V92.4999H35.1862V93.4999ZM39.2075 93.4999H41.2181V92.4999H39.2075V93.4999ZM43.2287 93.4999H45.2394V92.4999H43.2287V93.4999ZM47.25 93.4999H49.2606V92.4999H47.25V93.4999ZM51.2713 93.4999H53.2819V92.4999H51.2713V93.4999ZM55.2926 93.4999H57.3032V92.4999H55.2926V93.4999ZM59.3138 93.4999H61.3245V92.4999H59.3138V93.4999ZM63.3351 93.4999H65.3458V92.4999H63.3351V93.4999ZM67.3564 93.4999H69.367V92.4999H67.3564V93.4999ZM71.3777 93.4999H73.3883V92.4999H71.3777V93.4999ZM75.3989 93.4999H77.4096V92.4999H75.3989V93.4999ZM79.4202 93.4999H81.4308V92.4999H79.4202V93.4999ZM83.4415 93.4999H85.4521V92.4999H83.4415V93.4999ZM87.4628 93.4999H89.4734V92.4999H87.4628V93.4999ZM91.484 93.4999H93.4947V92.4999H91.484V93.4999ZM95.5053 93.4999H97.5159V92.4999H95.5053V93.4999ZM99.5266 93.4999H101.537V92.4999H99.5266V93.4999ZM103.548 93.4999H105.558V92.4999H103.548V93.4999ZM107.569 93.4999H109.58V92.4999H107.569V93.4999ZM111.59 93.4999H113.601V92.4999H111.59V93.4999ZM115.612 93.4999H117.622V92.4999H115.612V93.4999ZM119.633 93.4999H121.644V92.4999H119.633V93.4999ZM123.654 93.4999H125.665V92.4999H123.654V93.4999ZM127.675 93.4999H129.686V92.4999H127.675V93.4999ZM131.697 93.4999H133.707V92.4999H131.697V93.4999ZM135.718 93.4999H137.729V92.4999H135.718V93.4999ZM139.739 93.4999H141.75V92.4999H139.739V93.4999ZM143.761 93.4999L145.771 93.4999V92.4999L143.761 92.4999V93.4999ZM147.782 93.4999H149.792V92.4999H147.782V93.4999ZM151.803 93.4999H153.814V92.4999H151.803V93.4999ZM155.824 93.4999H157.835V92.4999H155.824V93.4999ZM159.846 93.4999H161.856V92.4999H159.846V93.4999ZM163.867 93.4999H165.878V92.4999H163.867V93.4999ZM167.888 93.4999H169.899V92.4999H167.888V93.4999ZM171.909 93.4999H173.92V92.4999H171.909V93.4999ZM175.931 93.4999H177.941V92.4999H175.931V93.4999ZM179.952 93.4999H181.963V92.4999H179.952V93.4999ZM183.973 93.4999H185.984V92.4999H183.973V93.4999Z" fill="#FF0000"/>
<path d="M95 188L97.8868 183H92.1132L95 188ZM95 5.56817e-06L92.1132 5.00001H97.8868L95 5.56817e-06ZM95.5 185V183H94.5V185H95.5ZM95.5 181V179H94.5V181H95.5ZM95.5 177V175H94.5V177H95.5ZM95.5 173V171H94.5V173H95.5ZM95.5 169V167H94.5V169H95.5ZM95.5 165V163H94.5V165H95.5ZM95.5 161V159H94.5V161H95.5ZM95.5 157V155H94.5V157H95.5ZM95.5 153V151H94.5V153H95.5ZM95.5 149V147H94.5V149H95.5ZM95.5 145V143H94.5V145H95.5ZM95.5 141V139H94.5V141H95.5ZM95.5 137V135H94.5V137H95.5ZM95.5 133V131H94.5V133H95.5ZM95.5 129V127H94.5V129H95.5ZM95.5 125V123H94.5V125H95.5ZM95.5 121V119H94.5V121H95.5ZM95.5 117V115H94.5V117H95.5ZM95.5 113V111H94.5V113H95.5ZM95.5 109V107H94.5V109H95.5ZM95.5 105V103H94.5V105H95.5ZM95.5 101V99H94.5V101H95.5ZM95.5 97V95H94.5V97H95.5ZM95.5 93V91H94.5V93H95.5ZM95.5 89V87H94.5V89H95.5ZM95.5 85V83H94.5V85H95.5ZM95.5 81V79H94.5V81H95.5ZM95.5 77V75H94.5V77H95.5ZM95.5 73L95.5 71H94.5L94.5 73H95.5ZM95.5 69V67H94.5V69H95.5ZM95.5 65V63H94.5V65H95.5ZM95.5 61V59H94.5V61H95.5ZM95.5 57V55H94.5V57H95.5ZM95.5 53V51H94.5V53H95.5ZM95.5 49V47H94.5V49H95.5ZM95.5 45V43H94.5V45H95.5ZM95.5 41V39H94.5V41H95.5ZM95.5 37V35H94.5V37H95.5ZM95.5 33V31H94.5V33H95.5ZM95.5 29V27H94.5V29H95.5ZM95.5 25V23H94.5V25H95.5ZM95.5 21V19H94.5V21H95.5ZM95.5 17V15H94.5V17H95.5ZM95.5 13V11H94.5V13H95.5ZM95.5 9.00001V7.00001H94.5V9.00001H95.5ZM95.5 5.00001V3.00001H94.5V5.00001H95.5Z" fill="#FF0000"/>
<circle cx="95.5" cy="92.4999" r="2.5" fill="black"/>
<circle cx="145.5" cy="20.4999" r="2.5" fill="#0039CD"/>
<circle cx="159.5" cy="29.4999" r="2.5" fill="#0039CD"/>
<circle cx="168.5" cy="22.4999" r="2.5" fill="#0039CD"/>
<circle cx="165.5" cy="46.4999" r="2.5" fill="#0039CD"/>
<circle cx="167.539" cy="144.543" r="2.5" transform="rotate(89.0099 167.539 144.543)" fill="#0039CD"/>
<circle cx="158.782" cy="158.696" r="2.5" transform="rotate(89.0099 158.782 158.696)" fill="#0039CD"/>
<circle cx="165.937" cy="167.574" r="2.5" transform="rotate(89.0099 165.937 167.574)" fill="#0039CD"/>
<circle cx="141.888" cy="164.989" r="2.5" transform="rotate(89.0099 141.888 164.989)" fill="#0039CD"/>
<circle cx="46.3215" cy="166.656" r="2.5" transform="rotate(-179.218 46.3215 166.656)" fill="#0039CD"/>
<circle cx="32.4456" cy="157.466" r="2.5" transform="rotate(-179.218 32.4456 157.466)" fill="#0039CD"/>
<circle cx="23.3509" cy="164.342" r="2.5" transform="rotate(-179.218 23.3509 164.342)" fill="#0039CD"/>
<circle cx="26.6783" cy="140.385" r="2.5" transform="rotate(-179.218 26.6783 140.385)" fill="#0039CD"/>
<circle cx="25.4627" cy="48.4669" r="2.5" transform="rotate(-96.8423 25.4627 48.4669)" fill="#0039CD"/>
<circle cx="32.7306" cy="33.4943" r="2.5" transform="rotate(-96.8423 32.7306 33.4943)" fill="#0039CD"/>
<circle cx="24.7083" cy="25.3924" r="2.5" transform="rotate(-96.8423 24.7083 25.3924)" fill="#0039CD"/>
<circle cx="48.8947" cy="25.5117" r="2.5" transform="rotate(-96.8423 48.8947 25.5117)" fill="#0039CD"/>
<circle cx="105.5" cy="75.4999" r="2.5" fill="#00CD00"/>
<circle cx="122.5" cy="86.5" r="2.5" fill="#00CD00"/>
<circle cx="133.5" cy="71.5" r="2.5" fill="#00CD00"/>
<circle cx="155.5" cy="81.5" r="2.5" fill="#00CD00"/>
<circle cx="145.5" cy="45.5" r="2.5" fill="#00CD00"/>
<circle cx="105.5" cy="39.4999" r="2.5" fill="#00CD00"/>
<circle cx="116.5" cy="28.5" r="2.5" fill="#00CD00"/>
<circle cx="125.5" cy="44.5" r="2.5" fill="#00CD00"/>
<circle cx="149.5" cy="65.5" r="2.5" fill="#00CD00"/>
<circle cx="115.5" cy="58.4999" r="2.5" fill="#00CD00"/>
<circle cx="82.1447" cy="80.3857" r="2.5" transform="rotate(-101.56 82.1447 80.3857)" fill="#00CD00"/>
<circle cx="89.5149" cy="61.5262" r="2.5" transform="rotate(-101.56 89.5149 61.5262)" fill="#00CD00"/>
<circle cx="72.6148" cy="53.7553" r="2.5" transform="rotate(-101.56 72.6148 53.7553)" fill="#00CD00"/>
<circle cx="78.0032" cy="30.1976" r="2.5" transform="rotate(-101.56 78.0032 30.1976)" fill="#00CD00"/>
<circle cx="44.7375" cy="47.2091" r="2.5" transform="rotate(-101.56 44.7375 47.2091)" fill="#00CD00"/>
<circle cx="46.875" cy="87.6" r="2.5" transform="rotate(-101.56 46.875 87.6)" fill="#00CD00"/>
<circle cx="33.8938" cy="79.0275" r="2.5" transform="rotate(-101.56 33.8938 79.0275)" fill="#00CD00"/>
<circle cx="47.7657" cy="67.0037" r="2.5" transform="rotate(-101.56 47.7657 67.0037)" fill="#00CD00"/>
<circle cx="63.5301" cy="39.2822" r="2.5" transform="rotate(-101.56 63.5301 39.2822)" fill="#00CD00"/>
<circle cx="63.4856" cy="73.9953" r="2.5" transform="rotate(-101.56 63.4856 73.9953)" fill="#00CD00"/>
<circle cx="58.2052" cy="150.43" r="2.5" transform="rotate(-40.5484 58.2052 150.43)" fill="#00CD00"/>
<circle cx="78.2738" cy="147.737" r="2.5" transform="rotate(-40.5484 78.2738 147.737)" fill="#00CD00"/>
<circle cx="76.8808" cy="129.188" r="2.5" transform="rotate(-40.5484 76.8808 129.188)" fill="#00CD00"/>
<circle cx="101.525" cy="123.525" r="2.5" transform="rotate(-40.5484 101.525 123.525)" fill="#00CD00"/>
<circle cx="69.0968" cy="101.63" r="2.5" transform="rotate(-40.5484 69.0968 101.63)" fill="#00CD00"/>
<circle cx="34.8019" cy="123.075" r="2.5" transform="rotate(-40.5484 34.8019 123.075)" fill="#00CD00"/>
<circle cx="36.0094" cy="107.565" r="2.5" transform="rotate(-40.5484 36.0094 107.565)" fill="#00CD00"/>
<circle cx="53.2495" cy="113.872" r="2.5" transform="rotate(-40.5484 53.2495 113.872)" fill="#00CD00"/>
<circle cx="85.138" cy="114.227" r="2.5" transform="rotate(-40.5484 85.138 114.227)" fill="#00CD00"/>
<circle cx="54.7522" cy="131.011" r="2.5" transform="rotate(-40.5484 54.7522 131.011)" fill="#00CD00"/>
<circle cx="145.306" cy="147.26" r="2.5" transform="rotate(-99.3058 145.306 147.26)" fill="#00CD00"/>
<circle cx="153.412" cy="128.705" r="2.5" transform="rotate(-99.3058 153.412 128.705)" fill="#00CD00"/>
<circle cx="136.831" cy="120.276" r="2.5" transform="rotate(-99.3058 136.831 120.276)" fill="#00CD00"/>
<circle cx="143.142" cy="96.9481" r="2.5" transform="rotate(-99.3058 143.142 96.9481)" fill="#00CD00"/>
<circle cx="107.871" cy="103.871" r="2.5" transform="rotate(-99.3058 107.871 103.871)" fill="#00CD00"/>
<circle cx="109.779" cy="153.082" r="2.5" transform="rotate(-99.3058 109.779 153.082)" fill="#00CD00"/>
<path d="M99.6126 141.538C100.975 141.315 102.261 142.238 102.484 143.601C102.707 144.963 101.784 146.249 100.421 146.472C99.0585 146.695 97.773 145.772 97.5497 144.409C97.3265 143.047 98.25 141.761 99.6126 141.538Z" fill="#00CD00"/>
<circle cx="116.871" cy="125.871" r="2.5" transform="rotate(-99.3058 116.871 125.871)" fill="#00CD00"/>
<circle cx="128.322" cy="105.456" r="2.5" transform="rotate(-99.3058 128.322 105.456)" fill="#00CD00"/>
<circle cx="126.912" cy="140.141" r="2.5" transform="rotate(-99.3058 126.912 140.141)" fill="#00CD00"/>
<circle cx="26.5" cy="200.5" r="2.5" fill="#00CD00"/>
<path d="M38.8313 196.455V203H37.6456V196.455H38.8313ZM41.2211 200.124V203H40.0642V198.091H41.17V198.925H41.2275C41.3405 198.65 41.5205 198.432 41.7677 198.27C42.017 198.108 42.3248 198.027 42.6913 198.027C43.0301 198.027 43.3252 198.099 43.5766 198.244C43.8302 198.389 44.0262 198.599 44.1647 198.874C44.3053 199.149 44.3746 199.482 44.3724 199.874V203H43.2155V200.053C43.2155 199.725 43.1302 199.468 42.9598 199.283C42.7915 199.098 42.5581 199.005 42.2599 199.005C42.0574 199.005 41.8774 199.05 41.7197 199.139C41.5642 199.227 41.4417 199.353 41.3522 199.52C41.2648 199.686 41.2211 199.887 41.2211 200.124ZM49.4285 199.388L48.3738 199.504C48.344 199.397 48.2918 199.297 48.2172 199.203C48.1448 199.109 48.0468 199.034 47.9232 198.976C47.7996 198.919 47.6483 198.89 47.4694 198.89C47.2286 198.89 47.0262 198.942 46.8621 199.047C46.7002 199.151 46.6203 199.286 46.6224 199.452C46.6203 199.595 46.6725 199.711 46.779 199.801C46.8877 199.89 47.0667 199.964 47.316 200.021L48.1533 200.2C48.6178 200.3 48.963 200.459 49.1888 200.676C49.4168 200.894 49.5319 201.178 49.534 201.53C49.5319 201.839 49.4413 202.112 49.2623 202.348C49.0855 202.582 48.8394 202.766 48.5241 202.898C48.2087 203.03 47.8465 203.096 47.4374 203.096C46.8366 203.096 46.3529 202.97 45.9864 202.719C45.6199 202.465 45.4015 202.113 45.3312 201.661L46.4594 201.552C46.5106 201.774 46.6192 201.941 46.7854 202.054C46.9516 202.167 47.1679 202.223 47.4342 202.223C47.7091 202.223 47.9296 202.167 48.0958 202.054C48.2641 201.941 48.3483 201.801 48.3483 201.635C48.3483 201.495 48.2939 201.379 48.1853 201.287C48.0787 201.195 47.9126 201.125 47.6867 201.076L46.8493 200.9C46.3785 200.802 46.0301 200.637 45.8042 200.405C45.5784 200.17 45.4665 199.874 45.4687 199.516C45.4665 199.214 45.5486 198.952 45.7148 198.73C45.8831 198.506 46.1164 198.334 46.4147 198.212C46.7151 198.089 47.0613 198.027 47.4534 198.027C48.0287 198.027 48.4814 198.15 48.8117 198.395C49.1441 198.64 49.3497 198.971 49.4285 199.388ZM50.488 203V198.091H51.645V203H50.488ZM51.0697 197.394C50.8865 197.394 50.7288 197.333 50.5967 197.212C50.4646 197.088 50.3985 196.94 50.3985 196.768C50.3985 196.593 50.4646 196.445 50.5967 196.324C50.7288 196.2 50.8865 196.138 51.0697 196.138C51.2551 196.138 51.4127 196.2 51.5427 196.324C51.6748 196.445 51.7409 196.593 51.7409 196.768C51.7409 196.94 51.6748 197.088 51.5427 197.212C51.4127 197.333 51.2551 197.394 51.0697 197.394ZM54.6564 203.086C54.2708 203.086 53.9256 202.987 53.6209 202.789C53.3162 202.591 53.0755 202.303 52.8986 201.926C52.7218 201.549 52.6333 201.091 52.6333 200.552C52.6333 200.006 52.7228 199.546 52.9018 199.171C53.0829 198.794 53.3269 198.51 53.6337 198.318C53.9405 198.124 54.2825 198.027 54.6596 198.027C54.9473 198.027 55.1838 198.076 55.3691 198.174C55.5545 198.27 55.7015 198.386 55.8102 198.522C55.9189 198.657 56.003 198.783 56.0627 198.903H56.1106V196.455H57.2708V203H56.133V202.227H56.0627C56.003 202.346 55.9167 202.473 55.8038 202.607C55.6909 202.739 55.5417 202.852 55.3564 202.946C55.171 203.039 54.9377 203.086 54.6564 203.086ZM54.9792 202.137C55.2243 202.137 55.4331 202.071 55.6056 201.939C55.7782 201.805 55.9093 201.618 55.9988 201.38C56.0882 201.141 56.133 200.863 56.133 200.545C56.133 200.228 56.0882 199.952 55.9988 199.718C55.9114 199.483 55.7814 199.301 55.6088 199.171C55.4384 199.041 55.2285 198.976 54.9792 198.976C54.7214 198.976 54.5062 199.043 54.3336 199.178C54.161 199.312 54.0311 199.497 53.9437 199.734C53.8564 199.97 53.8127 200.241 53.8127 200.545C53.8127 200.852 53.8564 201.126 53.9437 201.367C54.0332 201.605 54.1642 201.794 54.3368 201.933C54.5115 202.069 54.7257 202.137 54.9792 202.137ZM60.6769 203.096C60.1847 203.096 59.7597 202.994 59.4017 202.789C59.0459 202.582 58.7721 202.29 58.5803 201.913C58.3886 201.534 58.2927 201.088 58.2927 200.574C58.2927 200.069 58.3886 199.626 58.5803 199.245C58.7742 198.861 59.0448 198.563 59.3921 198.35C59.7394 198.135 60.1475 198.027 60.6162 198.027C60.9188 198.027 61.2043 198.076 61.4727 198.174C61.7433 198.27 61.982 198.419 62.1887 198.621C62.3975 198.824 62.5615 199.082 62.6808 199.395C62.8002 199.706 62.8598 200.077 62.8598 200.507V200.862H58.836V200.082H61.7508C61.7487 199.86 61.7007 199.663 61.607 199.491C61.5132 199.316 61.3822 199.179 61.2139 199.078C61.0477 198.978 60.8538 198.928 60.6322 198.928C60.3957 198.928 60.1879 198.986 60.009 199.101C59.83 199.214 59.6904 199.363 59.5903 199.548C59.4923 199.732 59.4422 199.933 59.4401 200.152V200.833C59.4401 201.119 59.4923 201.364 59.5967 201.568C59.7011 201.771 59.847 201.926 60.0345 202.035C60.222 202.141 60.4415 202.195 60.6929 202.195C60.8612 202.195 61.0136 202.171 61.1499 202.124C61.2863 202.075 61.4046 202.004 61.5047 201.91C61.6048 201.816 61.6805 201.7 61.7316 201.562L62.8119 201.683C62.7437 201.969 62.6137 202.218 62.422 202.431C62.2323 202.642 61.9894 202.806 61.6933 202.923C61.3971 203.038 61.0583 203.096 60.6769 203.096ZM68.5224 198.091V198.986H65.7003V198.091H68.5224ZM66.397 196.915H67.554V201.523C67.554 201.679 67.5774 201.798 67.6243 201.881C67.6733 201.962 67.7372 202.018 67.8161 202.048C67.8949 202.077 67.9822 202.092 68.0781 202.092C68.1506 202.092 68.2166 202.087 68.2763 202.076C68.3381 202.066 68.3849 202.056 68.4169 202.048L68.6119 202.952C68.5501 202.973 68.4616 202.997 68.3466 203.022C68.2337 203.048 68.0952 203.063 67.9311 203.067C67.6413 203.076 67.3803 203.032 67.1481 202.936C66.9158 202.838 66.7315 202.687 66.5952 202.482C66.4609 202.278 66.3949 202.022 66.397 201.715V196.915ZM70.7524 200.124V203H69.5954V196.455H70.7268V198.925H70.7844C70.8994 198.648 71.0773 198.43 71.3181 198.27C71.561 198.108 71.8699 198.027 72.2449 198.027C72.5858 198.027 72.8831 198.098 73.1366 198.241C73.3902 198.384 73.5862 198.593 73.7247 198.868C73.8653 199.142 73.9356 199.478 73.9356 199.874V203H72.7787V200.053C72.7787 199.723 72.6934 199.466 72.523 199.283C72.3547 199.098 72.1182 199.005 71.8135 199.005C71.6089 199.005 71.4257 199.05 71.2638 199.139C71.104 199.227 70.9782 199.353 70.8866 199.52C70.7971 199.686 70.7524 199.887 70.7524 200.124ZM77.2883 203.096C76.7961 203.096 76.371 202.994 76.0131 202.789C75.6572 202.582 75.3834 202.29 75.1917 201.913C74.9999 201.534 74.904 201.088 74.904 200.574C74.904 200.069 74.9999 199.626 75.1917 199.245C75.3856 198.861 75.6562 198.563 76.0035 198.35C76.3508 198.135 76.7588 198.027 77.2275 198.027C77.5301 198.027 77.8156 198.076 78.0841 198.174C78.3547 198.27 78.5933 198.419 78.8 198.621C79.0088 198.824 79.1729 199.082 79.2922 199.395C79.4115 199.706 79.4711 200.077 79.4711 200.507V200.862H75.4474V200.082H78.3621C78.36 199.86 78.3121 199.663 78.2183 199.491C78.1246 199.316 77.9935 199.179 77.8252 199.078C77.659 198.978 77.4651 198.928 77.2435 198.928C77.007 198.928 76.7993 198.986 76.6203 199.101C76.4413 199.214 76.3018 199.363 76.2016 199.548C76.1036 199.732 76.0535 199.933 76.0514 200.152V200.833C76.0514 201.119 76.1036 201.364 76.208 201.568C76.3124 201.771 76.4584 201.926 76.6459 202.035C76.8334 202.141 77.0528 202.195 77.3042 202.195C77.4726 202.195 77.6249 202.171 77.7613 202.124C77.8976 202.075 78.0159 202.004 78.116 201.91C78.2162 201.816 78.2918 201.7 78.343 201.562L79.4232 201.683C79.355 201.969 79.2251 202.218 79.0333 202.431C78.8437 202.642 78.6008 202.806 78.3046 202.923C78.0084 203.038 77.6697 203.096 77.2883 203.096ZM84.8237 203.096C84.3336 203.096 83.9128 202.988 83.5613 202.773C83.2118 202.558 82.9423 202.261 82.7527 201.881C82.5652 201.5 82.4714 201.061 82.4714 200.565C82.4714 200.066 82.5673 199.626 82.7591 199.245C82.9508 198.861 83.2214 198.563 83.5708 198.35C83.9224 198.135 84.3379 198.027 84.8173 198.027C85.2157 198.027 85.5684 198.1 85.8752 198.248C86.1841 198.392 86.4302 198.598 86.6135 198.864C86.7967 199.129 86.9011 199.437 86.9267 199.791H85.8208C85.7761 199.555 85.6696 199.358 85.5012 199.2C85.335 199.04 85.1124 198.96 84.8333 198.96C84.5968 198.96 84.389 199.024 84.21 199.152C84.0311 199.278 83.8915 199.459 83.7914 199.695C83.6934 199.932 83.6444 200.215 83.6444 200.545C83.6444 200.88 83.6934 201.168 83.7914 201.408C83.8894 201.647 84.0268 201.831 84.2037 201.961C84.3826 202.089 84.5925 202.153 84.8333 202.153C85.0037 202.153 85.1561 202.121 85.2903 202.057C85.4267 201.991 85.5407 201.896 85.6323 201.773C85.7239 201.649 85.7868 201.499 85.8208 201.322H86.9267C86.899 201.669 86.7967 201.977 86.6199 202.246C86.443 202.512 86.2022 202.721 85.8975 202.872C85.5929 203.021 85.2349 203.096 84.8237 203.096ZM87.8767 203V198.091H89.0336V203H87.8767ZM88.4584 197.394C88.2751 197.394 88.1175 197.333 87.9854 197.212C87.8532 197.088 87.7872 196.94 87.7872 196.768C87.7872 196.593 87.8532 196.445 87.9854 196.324C88.1175 196.2 88.2751 196.138 88.4584 196.138C88.6437 196.138 88.8014 196.2 88.9314 196.324C89.0635 196.445 89.1295 196.593 89.1295 196.768C89.1295 196.94 89.0635 197.088 88.9314 197.212C88.8014 197.333 88.6437 197.394 88.4584 197.394ZM90.2234 203V198.091H91.3452V198.909H91.3963C91.4858 198.626 91.6392 198.407 91.8565 198.254C92.076 198.098 92.3263 198.021 92.6076 198.021C92.6715 198.021 92.7429 198.024 92.8217 198.03C92.9027 198.034 92.9698 198.042 93.0231 198.053V199.117C92.9741 199.1 92.8963 199.085 92.7898 199.072C92.6854 199.057 92.5842 199.05 92.4862 199.05C92.2752 199.05 92.0856 199.096 91.9173 199.187C91.7511 199.277 91.62 199.401 91.5241 199.561C91.4283 199.721 91.3803 199.905 91.3803 200.114V203H90.2234ZM95.7309 203.096C95.2409 203.096 94.82 202.988 94.4685 202.773C94.1191 202.558 93.8495 202.261 93.6599 201.881C93.4724 201.5 93.3786 201.061 93.3786 200.565C93.3786 200.066 93.4745 199.626 93.6663 199.245C93.858 198.861 94.1286 198.563 94.4781 198.35C94.8296 198.135 95.2451 198.027 95.7245 198.027C96.123 198.027 96.4756 198.1 96.7824 198.248C97.0914 198.392 97.3374 198.598 97.5207 198.864C97.7039 199.129 97.8083 199.437 97.8339 199.791H96.7281C96.6833 199.555 96.5768 199.358 96.4085 199.2C96.2423 199.04 96.0196 198.96 95.7405 198.96C95.504 198.96 95.2963 199.024 95.1173 199.152C94.9383 199.278 94.7987 199.459 94.6986 199.695C94.6006 199.932 94.5516 200.215 94.5516 200.545C94.5516 200.88 94.6006 201.168 94.6986 201.408C94.7966 201.647 94.934 201.831 95.1109 201.961C95.2899 202.089 95.4997 202.153 95.7405 202.153C95.911 202.153 96.0633 202.121 96.1975 202.057C96.3339 201.991 96.4479 201.896 96.5395 201.773C96.6311 201.649 96.694 201.499 96.7281 201.322H97.8339C97.8062 201.669 97.7039 201.977 97.5271 202.246C97.3502 202.512 97.1095 202.721 96.8048 202.872C96.5001 203.021 96.1421 203.096 95.7309 203.096ZM99.9409 196.455V203H98.7839V196.455H99.9409ZM103.304 203.096C102.812 203.096 102.387 202.994 102.029 202.789C101.673 202.582 101.399 202.29 101.207 201.913C101.016 201.534 100.92 201.088 100.92 200.574C100.92 200.069 101.016 199.626 101.207 199.245C101.401 198.861 101.672 198.563 102.019 198.35C102.366 198.135 102.774 198.027 103.243 198.027C103.546 198.027 103.831 198.076 104.1 198.174C104.37 198.27 104.609 198.419 104.816 198.621C105.024 198.824 105.188 199.082 105.308 199.395C105.427 199.706 105.487 200.077 105.487 200.507V200.862H101.463V200.082H104.378C104.376 199.86 104.328 199.663 104.234 199.491C104.14 199.316 104.009 199.179 103.841 199.078C103.675 198.978 103.481 198.928 103.259 198.928C103.023 198.928 102.815 198.986 102.636 199.101C102.457 199.214 102.317 199.363 102.217 199.548C102.119 199.732 102.069 199.933 102.067 200.152V200.833C102.067 201.119 102.119 201.364 102.224 201.568C102.328 201.771 102.474 201.926 102.661 202.035C102.849 202.141 103.068 202.195 103.32 202.195C103.488 202.195 103.641 202.171 103.777 202.124C103.913 202.075 104.032 202.004 104.132 201.91C104.232 201.816 104.307 201.7 104.359 201.562L105.439 201.683C105.371 201.969 105.241 202.218 105.049 202.431C104.859 202.642 104.616 202.806 104.32 202.923C104.024 203.038 103.685 203.096 103.304 203.096ZM108.986 200.331C108.986 199.532 109.091 198.798 109.302 198.129C109.515 197.458 109.831 196.838 110.251 196.269H111.341C111.179 196.48 111.028 196.739 110.887 197.046C110.747 197.35 110.624 197.685 110.52 198.049C110.417 198.412 110.336 198.788 110.277 199.178C110.219 199.567 110.191 199.952 110.191 200.331C110.191 200.836 110.241 201.348 110.341 201.865C110.443 202.383 110.58 202.863 110.753 203.304C110.928 203.747 111.124 204.109 111.341 204.39H110.251C109.831 203.821 109.515 203.202 109.302 202.533C109.091 201.862 108.986 201.128 108.986 200.331ZM112.291 203V196.455H113.477V199.225H116.51V196.455H117.699V203H116.51V200.219H113.477V203H112.291ZM118.937 203V198.091H120.094V203H118.937ZM119.519 197.394C119.336 197.394 119.178 197.333 119.046 197.212C118.914 197.088 118.848 196.94 118.848 196.768C118.848 196.593 118.914 196.445 119.046 196.324C119.178 196.2 119.336 196.138 119.519 196.138C119.704 196.138 119.862 196.2 119.992 196.324C120.124 196.445 120.19 196.593 120.19 196.768C120.19 196.94 120.124 197.088 119.992 197.212C119.862 197.333 119.704 197.394 119.519 197.394ZM123.735 198.091V198.986H120.913V198.091H123.735ZM121.61 196.915H122.767V201.523C122.767 201.679 122.79 201.798 122.837 201.881C122.886 201.962 122.95 202.018 123.029 202.048C123.108 202.077 123.195 202.092 123.291 202.092C123.363 202.092 123.43 202.087 123.489 202.076C123.551 202.066 123.598 202.056 123.63 202.048L123.825 202.952C123.763 202.973 123.675 202.997 123.559 203.022C123.447 203.048 123.308 203.063 123.144 203.067C122.854 203.076 122.593 203.032 122.361 202.936C122.129 202.838 121.944 202.687 121.808 202.482C121.674 202.278 121.608 202.022 121.61 201.715V196.915ZM126.767 200.331C126.767 201.128 126.661 201.862 126.448 202.533C126.237 203.202 125.922 203.821 125.502 204.39H124.412C124.576 204.179 124.727 203.922 124.866 203.617C125.006 203.312 125.128 202.978 125.23 202.613C125.335 202.249 125.416 201.872 125.473 201.482C125.533 201.092 125.563 200.708 125.563 200.331C125.563 199.826 125.511 199.315 125.409 198.797C125.309 198.279 125.172 197.799 124.997 197.356C124.824 196.913 124.629 196.55 124.412 196.269H125.502C125.922 196.838 126.237 197.458 126.448 198.129C126.661 198.798 126.767 199.532 126.767 200.331Z" fill="black"/>
<circle cx="26.5" cy="215.5" r="2.5" fill="#0039CD"/>
<path d="M43.4943 214.727C43.4943 215.433 43.3622 216.037 43.098 216.539C42.8359 217.04 42.478 217.424 42.0241 217.69C41.5724 217.956 41.06 218.089 40.4869 218.089C39.9137 218.089 39.4002 217.956 38.9464 217.69C38.4947 217.422 38.1367 217.037 37.8725 216.536C37.6104 216.033 37.4794 215.43 37.4794 214.727C37.4794 214.022 37.6104 213.419 37.8725 212.918C38.1367 212.415 38.4947 212.031 38.9464 211.765C39.4002 211.498 39.9137 211.365 40.4869 211.365C41.06 211.365 41.5724 211.498 42.0241 211.765C42.478 212.031 42.8359 212.415 43.098 212.918C43.3622 213.419 43.4943 214.022 43.4943 214.727ZM42.3022 214.727C42.3022 214.231 42.2244 213.812 42.0689 213.471C41.9155 213.128 41.7024 212.869 41.4297 212.695C41.157 212.518 40.8427 212.429 40.4869 212.429C40.131 212.429 39.8168 212.518 39.544 212.695C39.2713 212.869 39.0572 213.128 38.9016 213.471C38.7482 213.812 38.6715 214.231 38.6715 214.727C38.6715 215.224 38.7482 215.643 38.9016 215.987C39.0572 216.327 39.2713 216.586 39.544 216.763C39.8168 216.938 40.131 217.025 40.4869 217.025C40.8427 217.025 41.157 216.938 41.4297 216.763C41.7024 216.586 41.9155 216.327 42.0689 215.987C42.2244 215.643 42.3022 215.224 42.3022 214.727ZM47.6931 215.935V213.091H48.8501V218H47.7282V217.127H47.6771C47.5663 217.402 47.3841 217.627 47.1306 217.802C46.8792 217.977 46.5692 218.064 46.2006 218.064C45.8788 218.064 45.5944 217.993 45.3472 217.85C45.1022 217.705 44.9104 217.495 44.7719 217.22C44.6334 216.943 44.5642 216.609 44.5642 216.217V213.091H45.7211V216.038C45.7211 216.349 45.8064 216.596 45.9768 216.779C46.1473 216.962 46.371 217.054 46.648 217.054C46.8184 217.054 46.9836 217.012 47.1434 216.929C47.3032 216.846 47.4342 216.723 47.5365 216.559C47.6409 216.392 47.6931 216.185 47.6931 215.935ZM52.4911 213.091V213.986H49.669V213.091H52.4911ZM50.3658 211.915H51.5227V216.523C51.5227 216.679 51.5462 216.798 51.593 216.881C51.642 216.962 51.706 217.018 51.7848 217.048C51.8636 217.077 51.951 217.092 52.0469 217.092C52.1193 217.092 52.1854 217.087 52.245 217.076C52.3068 217.066 52.3537 217.056 52.3857 217.048L52.5806 217.952C52.5188 217.973 52.4304 217.997 52.3153 218.022C52.2024 218.048 52.0639 218.063 51.8999 218.067C51.6101 218.076 51.3491 218.032 51.1168 217.936C50.8846 217.838 50.7003 217.687 50.5639 217.482C50.4297 217.278 50.3636 217.022 50.3658 216.715V211.915ZM57.2684 214.388L56.2137 214.504C56.1839 214.397 56.1317 214.297 56.0571 214.203C55.9846 214.109 55.8866 214.034 55.7631 213.976C55.6395 213.919 55.4882 213.89 55.3092 213.89C55.0684 213.89 54.866 213.942 54.702 214.047C54.54 214.151 54.4601 214.286 54.4623 214.452C54.4601 214.595 54.5123 214.711 54.6189 214.801C54.7275 214.89 54.9065 214.964 55.1558 215.021L55.9932 215.2C56.4577 215.3 56.8028 215.459 57.0287 215.676C57.2567 215.894 57.3717 216.178 57.3738 216.53C57.3717 216.839 57.2812 217.112 57.1022 217.348C56.9253 217.582 56.6792 217.766 56.3639 217.898C56.0486 218.03 55.6863 218.096 55.2773 218.096C54.6764 218.096 54.1927 217.97 53.8263 217.719C53.4598 217.465 53.2414 217.113 53.1711 216.661L54.2993 216.552C54.3504 216.774 54.4591 216.941 54.6253 217.054C54.7915 217.167 55.0077 217.223 55.2741 217.223C55.5489 217.223 55.7694 217.167 55.9356 217.054C56.104 216.941 56.1881 216.801 56.1881 216.635C56.1881 216.495 56.1338 216.379 56.0251 216.287C55.9186 216.195 55.7524 216.125 55.5265 216.076L54.6892 215.9C54.2183 215.802 53.8699 215.637 53.6441 215.405C53.4182 215.17 53.3064 214.874 53.3085 214.516C53.3064 214.214 53.3884 213.952 53.5546 213.73C53.7229 213.506 53.9562 213.334 54.2545 213.212C54.555 213.089 54.9012 213.027 55.2932 213.027C55.8685 213.027 56.3213 213.15 56.6515 213.395C56.9839 213.64 57.1895 213.971 57.2684 214.388ZM58.3279 218V213.091H59.4848V218H58.3279ZM58.9095 212.394C58.7263 212.394 58.5686 212.333 58.4365 212.212C58.3044 212.088 58.2384 211.94 58.2384 211.768C58.2384 211.593 58.3044 211.445 58.4365 211.324C58.5686 211.2 58.7263 211.138 58.9095 211.138C59.0949 211.138 59.2526 211.2 59.3825 211.324C59.5146 211.445 59.5807 211.593 59.5807 211.768C59.5807 211.94 59.5146 212.088 59.3825 212.212C59.2526 212.333 59.0949 212.394 58.9095 212.394ZM62.4963 218.086C62.1106 218.086 61.7654 217.987 61.4608 217.789C61.1561 217.591 60.9153 217.303 60.7385 216.926C60.5616 216.549 60.4732 216.091 60.4732 215.552C60.4732 215.006 60.5627 214.546 60.7417 214.171C60.9228 213.794 61.1667 213.51 61.4735 213.318C61.7804 213.124 62.1223 213.027 62.4995 213.027C62.7871 213.027 63.0236 213.076 63.209 213.174C63.3944 213.27 63.5414 213.386 63.65 213.522C63.7587 213.657 63.8429 213.783 63.9025 213.903H63.9505V211.455H65.1106V218H63.9728V217.227H63.9025C63.8429 217.346 63.7566 217.473 63.6436 217.607C63.5307 217.739 63.3816 217.852 63.1962 217.946C63.0108 218.039 62.7775 218.086 62.4963 218.086ZM62.8191 217.137C63.0641 217.137 63.2729 217.071 63.4455 216.939C63.6181 216.805 63.7491 216.618 63.8386 216.38C63.9281 216.141 63.9728 215.863 63.9728 215.545C63.9728 215.228 63.9281 214.952 63.8386 214.718C63.7512 214.483 63.6213 214.301 63.4487 214.171C63.2782 214.041 63.0684 213.976 62.8191 213.976C62.5613 213.976 62.3461 214.043 62.1735 214.178C62.0009 214.312 61.8709 214.497 61.7836 214.734C61.6962 214.97 61.6525 215.241 61.6525 215.545C61.6525 215.852 61.6962 216.126 61.7836 216.367C61.873 216.605 62.0041 216.794 62.1767 216.933C62.3514 217.069 62.5655 217.137 62.8191 217.137ZM68.5168 218.096C68.0246 218.096 67.5995 217.994 67.2416 217.789C66.8857 217.582 66.6119 217.29 66.4202 216.913C66.2284 216.534 66.1325 216.088 66.1325 215.574C66.1325 215.069 66.2284 214.626 66.4202 214.245C66.6141 213.861 66.8847 213.563 67.232 213.35C67.5793 213.135 67.9873 213.027 68.4561 213.027C68.7586 213.027 69.0441 213.076 69.3126 213.174C69.5832 213.27 69.8218 213.419 70.0285 213.621C70.2373 213.824 70.4014 214.082 70.5207 214.395C70.64 214.706 70.6997 215.077 70.6997 215.507V215.862H66.6759V215.082H69.5906C69.5885 214.86 69.5406 214.663 69.4468 214.491C69.3531 214.316 69.222 214.179 69.0537 214.078C68.8875 213.978 68.6936 213.928 68.472 213.928C68.2355 213.928 68.0278 213.986 67.8488 214.101C67.6698 214.214 67.5303 214.363 67.4301 214.548C67.3321 214.732 67.282 214.933 67.2799 215.152V215.833C67.2799 216.119 67.3321 216.364 67.4365 216.568C67.5409 216.771 67.6869 216.926 67.8744 217.035C68.0619 217.141 68.2813 217.195 68.5328 217.195C68.7011 217.195 68.8534 217.171 68.9898 217.124C69.1262 217.075 69.2444 217.004 69.3445 216.91C69.4447 216.816 69.5203 216.7 69.5715 216.562L70.6517 216.683C70.5835 216.969 70.4536 217.218 70.2618 217.431C70.0722 217.642 69.8293 217.806 69.5331 217.923C69.2369 218.038 68.8982 218.096 68.5168 218.096ZM76.3622 213.091V213.986H73.5401V213.091H76.3622ZM74.2369 211.915H75.3938V216.523C75.3938 216.679 75.4173 216.798 75.4641 216.881C75.5131 216.962 75.5771 217.018 75.6559 217.048C75.7347 217.077 75.8221 217.092 75.918 217.092C75.9904 217.092 76.0565 217.087 76.1161 217.076C76.1779 217.066 76.2248 217.056 76.2567 217.048L76.4517 217.952C76.3899 217.973 76.3015 217.997 76.1864 218.022C76.0735 218.048 75.935 218.063 75.771 218.067C75.4812 218.076 75.2202 218.032 74.9879 217.936C74.7557 217.838 74.5714 217.687 74.435 217.482C74.3008 217.278 74.2347 217.022 74.2369 216.715V211.915ZM78.5922 215.124V218H77.4353V211.455H78.5667V213.925H78.6242C78.7393 213.648 78.9172 213.43 79.1579 213.27C79.4008 213.108 79.7098 213.027 80.0848 213.027C80.4257 213.027 80.7229 213.098 80.9765 213.241C81.23 213.384 81.426 213.593 81.5645 213.868C81.7052 214.142 81.7755 214.478 81.7755 214.874V218H80.6185V215.053C80.6185 214.723 80.5333 214.466 80.3628 214.283C80.1945 214.098 79.958 214.005 79.6533 214.005C79.4488 214.005 79.2655 214.05 79.1036 214.139C78.9438 214.227 78.8181 214.353 78.7265 214.52C78.637 214.686 78.5922 214.887 78.5922 215.124ZM85.1281 218.096C84.6359 218.096 84.2108 217.994 83.8529 217.789C83.4971 217.582 83.2233 217.29 83.0315 216.913C82.8398 216.534 82.7439 216.088 82.7439 215.574C82.7439 215.069 82.8398 214.626 83.0315 214.245C83.2254 213.861 83.496 213.563 83.8433 213.35C84.1906 213.135 84.5986 213.027 85.0674 213.027C85.3699 213.027 85.6555 213.076 85.9239 213.174C86.1945 213.27 86.4332 213.419 86.6398 213.621C86.8486 213.824 87.0127 214.082 87.132 214.395C87.2513 214.706 87.311 215.077 87.311 215.507V215.862H83.2872V215.082H86.202C86.1998 214.86 86.1519 214.663 86.0582 214.491C85.9644 214.316 85.8334 214.179 85.665 214.078C85.4988 213.978 85.305 213.928 85.0834 213.928C84.8469 213.928 84.6391 213.986 84.4601 214.101C84.2812 214.214 84.1416 214.363 84.0415 214.548C83.9434 214.732 83.8934 214.933 83.8912 215.152V215.833C83.8912 216.119 83.9434 216.364 84.0479 216.568C84.1523 216.771 84.2982 216.926 84.4857 217.035C84.6732 217.141 84.8927 217.195 85.1441 217.195C85.3124 217.195 85.4648 217.171 85.6011 217.124C85.7375 217.075 85.8557 217.004 85.9559 216.91C86.056 216.816 86.1317 216.7 86.1828 216.562L87.2631 216.683C87.1949 216.969 87.0649 217.218 86.8731 217.431C86.6835 217.642 86.4406 217.806 86.1444 217.923C85.8483 218.038 85.5095 218.096 85.1281 218.096ZM92.6635 218.096C92.1735 218.096 91.7527 217.988 91.4011 217.773C91.0517 217.558 90.7821 217.261 90.5925 216.881C90.405 216.5 90.3113 216.061 90.3113 215.565C90.3113 215.066 90.4071 214.626 90.5989 214.245C90.7907 213.861 91.0613 213.563 91.4107 213.35C91.7623 213.135 92.1777 213.027 92.6571 213.027C93.0556 213.027 93.4082 213.1 93.715 213.248C94.024 213.392 94.2701 213.598 94.4533 213.864C94.6365 214.129 94.7409 214.437 94.7665 214.791H93.6607C93.6159 214.555 93.5094 214.358 93.3411 214.2C93.1749 214.04 92.9522 213.96 92.6731 213.96C92.4366 213.96 92.2289 214.024 92.0499 214.152C91.8709 214.278 91.7314 214.459 91.6312 214.695C91.5332 214.932 91.4842 215.215 91.4842 215.545C91.4842 215.88 91.5332 216.168 91.6312 216.408C91.7292 216.647 91.8667 216.831 92.0435 216.961C92.2225 217.089 92.4324 217.153 92.6731 217.153C92.8436 217.153 92.9959 217.121 93.1301 217.057C93.2665 216.991 93.3805 216.896 93.4721 216.773C93.5637 216.649 93.6266 216.499 93.6607 216.322H94.7665C94.7388 216.669 94.6365 216.977 94.4597 217.246C94.2828 217.512 94.0421 217.721 93.7374 217.872C93.4327 218.021 93.0748 218.096 92.6635 218.096ZM95.7165 218V213.091H96.8735V218H95.7165ZM96.2982 212.394C96.115 212.394 95.9573 212.333 95.8252 212.212C95.6931 212.088 95.627 211.94 95.627 211.768C95.627 211.593 95.6931 211.445 95.8252 211.324C95.9573 211.2 96.115 211.138 96.2982 211.138C96.4836 211.138 96.6412 211.2 96.7712 211.324C96.9033 211.445 96.9694 211.593 96.9694 211.768C96.9694 211.94 96.9033 212.088 96.7712 212.212C96.6412 212.333 96.4836 212.394 96.2982 212.394ZM98.0632 218V213.091H99.185V213.909H99.2362C99.3256 213.626 99.479 213.407 99.6964 213.254C99.9158 213.098 100.166 213.021 100.447 213.021C100.511 213.021 100.583 213.024 100.662 213.03C100.743 213.034 100.81 213.042 100.863 213.053V214.117C100.814 214.1 100.736 214.085 100.63 214.072C100.525 214.057 100.424 214.05 100.326 214.05C100.115 214.05 99.9254 214.096 99.7571 214.187C99.5909 214.277 99.4599 214.401 99.364 214.561C99.2681 214.721 99.2202 214.905 99.2202 215.114V218H98.0632ZM103.571 218.096C103.081 218.096 102.66 217.988 102.308 217.773C101.959 217.558 101.689 217.261 101.5 216.881C101.312 216.5 101.218 216.061 101.218 215.565C101.218 215.066 101.314 214.626 101.506 214.245C101.698 213.861 101.968 213.563 102.318 213.35C102.669 213.135 103.085 213.027 103.564 213.027C103.963 213.027 104.315 213.1 104.622 213.248C104.931 213.392 105.177 213.598 105.361 213.864C105.544 214.129 105.648 214.437 105.674 214.791H104.568C104.523 214.555 104.417 214.358 104.248 214.2C104.082 214.04 103.859 213.96 103.58 213.96C103.344 213.96 103.136 214.024 102.957 214.152C102.778 214.278 102.639 214.459 102.538 214.695C102.44 214.932 102.391 215.215 102.391 215.545C102.391 215.88 102.44 216.168 102.538 216.408C102.636 216.647 102.774 216.831 102.951 216.961C103.13 217.089 103.34 217.153 103.58 217.153C103.751 217.153 103.903 217.121 104.037 217.057C104.174 216.991 104.288 216.896 104.379 216.773C104.471 216.649 104.534 216.499 104.568 216.322H105.674C105.646 216.669 105.544 216.977 105.367 217.246C105.19 217.512 104.949 217.721 104.645 217.872C104.34 218.021 103.982 218.096 103.571 218.096ZM107.781 211.455V218H106.624V211.455H107.781ZM111.144 218.096C110.652 218.096 110.226 217.994 109.869 217.789C109.513 217.582 109.239 217.29 109.047 216.913C108.855 216.534 108.759 216.088 108.759 215.574C108.759 215.069 108.855 214.626 109.047 214.245C109.241 213.861 109.512 213.563 109.859 213.35C110.206 213.135 110.614 213.027 111.083 213.027C111.386 213.027 111.671 213.076 111.94 213.174C112.21 213.27 112.449 213.419 112.655 213.621C112.864 213.824 113.028 214.082 113.148 214.395C113.267 214.706 113.327 215.077 113.327 215.507V215.862H109.303V215.082H112.218C112.215 214.86 112.168 214.663 112.074 214.491C111.98 214.316 111.849 214.179 111.681 214.078C111.514 213.978 111.321 213.928 111.099 213.928C110.862 213.928 110.655 213.986 110.476 214.101C110.297 214.214 110.157 214.363 110.057 214.548C109.959 214.732 109.909 214.933 109.907 215.152V215.833C109.907 216.119 109.959 216.364 110.063 216.568C110.168 216.771 110.314 216.926 110.501 217.035C110.689 217.141 110.908 217.195 111.16 217.195C111.328 217.195 111.48 217.171 111.617 217.124C111.753 217.075 111.871 217.004 111.972 216.91C112.072 216.816 112.147 216.7 112.198 216.562L113.279 216.683C113.21 216.969 113.081 217.218 112.889 217.431C112.699 217.642 112.456 217.806 112.16 217.923C111.864 218.038 111.525 218.096 111.144 218.096ZM116.825 214.727C116.825 213.928 116.931 213.194 117.142 212.525C117.355 211.854 117.671 211.234 118.091 210.665H119.181C119.019 210.876 118.868 211.135 118.727 211.442C118.586 211.746 118.464 212.081 118.36 212.445C118.257 212.808 118.176 213.184 118.117 213.574C118.059 213.963 118.03 214.348 118.03 214.727C118.03 215.232 118.08 215.744 118.181 216.261C118.283 216.779 118.42 217.26 118.593 217.703C118.768 218.144 118.964 218.505 119.181 218.786H118.091C117.671 218.217 117.355 217.598 117.142 216.929C116.931 216.258 116.825 215.524 116.825 214.727ZM120.131 211.455H121.582L123.525 216.197H123.602L125.545 211.455H126.996V218H125.858V213.503H125.797L123.989 217.981H123.138L121.329 213.494H121.269V218H120.131V211.455ZM128.236 218V213.091H129.393V218H128.236ZM128.818 212.394C128.634 212.394 128.477 212.333 128.345 212.212C128.213 212.088 128.147 211.94 128.147 211.768C128.147 211.593 128.213 211.445 128.345 211.324C128.477 211.2 128.634 211.138 128.818 211.138C129.003 211.138 129.161 211.2 129.291 211.324C129.423 211.445 129.489 211.593 129.489 211.768C129.489 211.94 129.423 212.088 129.291 212.212C129.161 212.333 129.003 212.394 128.818 212.394ZM134.463 214.388L133.408 214.504C133.378 214.397 133.326 214.297 133.251 214.203C133.179 214.109 133.081 214.034 132.957 213.976C132.834 213.919 132.683 213.89 132.504 213.89C132.263 213.89 132.06 213.942 131.896 214.047C131.734 214.151 131.654 214.286 131.657 214.452C131.654 214.595 131.707 214.711 131.813 214.801C131.922 214.89 132.101 214.964 132.35 215.021L133.188 215.2C133.652 215.3 133.997 215.459 134.223 215.676C134.451 215.894 134.566 216.178 134.568 216.53C134.566 216.839 134.475 217.112 134.297 217.348C134.12 217.582 133.874 217.766 133.558 217.898C133.243 218.03 132.881 218.096 132.472 218.096C131.871 218.096 131.387 217.97 131.021 217.719C130.654 217.465 130.436 217.113 130.365 216.661L131.494 216.552C131.545 216.774 131.653 216.941 131.82 217.054C131.986 217.167 132.202 217.223 132.468 217.223C132.743 217.223 132.964 217.167 133.13 217.054C133.298 216.941 133.382 216.801 133.382 216.635C133.382 216.495 133.328 216.379 133.219 216.287C133.113 216.195 132.947 216.125 132.721 216.076L131.884 215.9C131.413 215.802 131.064 215.637 130.838 215.405C130.613 215.17 130.501 214.874 130.503 214.516C130.501 214.214 130.583 213.952 130.749 213.73C130.917 213.506 131.151 213.334 131.449 213.212C131.749 213.089 132.096 213.027 132.488 213.027C133.063 213.027 133.516 213.15 133.846 213.395C134.178 213.64 134.384 213.971 134.463 214.388ZM139.402 214.388L138.347 214.504C138.318 214.397 138.265 214.297 138.191 214.203C138.118 214.109 138.02 214.034 137.897 213.976C137.773 213.919 137.622 213.89 137.443 213.89C137.202 213.89 137 213.942 136.836 214.047C136.674 214.151 136.594 214.286 136.596 214.452C136.594 214.595 136.646 214.711 136.753 214.801C136.861 214.89 137.04 214.964 137.29 215.021L138.127 215.2C138.591 215.3 138.937 215.459 139.162 215.676C139.39 215.894 139.506 216.178 139.508 216.53C139.506 216.839 139.415 217.112 139.236 217.348C139.059 217.582 138.813 217.766 138.498 217.898C138.182 218.03 137.82 218.096 137.411 218.096C136.81 218.096 136.327 217.97 135.96 217.719C135.594 217.465 135.375 217.113 135.305 216.661L136.433 216.552C136.484 216.774 136.593 216.941 136.759 217.054C136.925 217.167 137.142 217.223 137.408 217.223C137.683 217.223 137.903 217.167 138.069 217.054C138.238 216.941 138.322 216.801 138.322 216.635C138.322 216.495 138.268 216.379 138.159 216.287C138.052 216.195 137.886 216.125 137.66 216.076L136.823 215.9C136.352 215.802 136.004 215.637 135.778 215.405C135.552 215.17 135.44 214.874 135.442 214.516C135.44 214.214 135.522 213.952 135.688 213.73C135.857 213.506 136.09 213.334 136.388 213.212C136.689 213.089 137.035 213.027 137.427 213.027C138.002 213.027 138.455 213.15 138.785 213.395C139.118 213.64 139.323 213.971 139.402 214.388ZM142.526 215.331C142.526 216.128 142.42 216.862 142.207 217.533C141.996 218.202 141.68 218.821 141.261 219.39H140.171C140.335 219.179 140.486 218.922 140.625 218.617C140.765 218.312 140.887 217.978 140.989 217.613C141.093 217.249 141.174 216.872 141.232 216.482C141.292 216.092 141.321 215.708 141.321 215.331C141.321 214.826 141.27 214.315 141.168 213.797C141.068 213.279 140.93 212.799 140.756 212.356C140.583 211.913 140.388 211.55 140.171 211.269H141.261C141.68 211.838 141.996 212.458 142.207 213.129C142.42 213.798 142.526 214.532 142.526 215.331Z" fill="black"/>
<path d="M197.321 55H196.196L198.244 49.1818H199.545L201.597 55H200.472L198.918 50.375H198.872L197.321 55ZM197.358 52.7188H200.426V53.5653H197.358V52.7188ZM203.346 49.1818V55H202.317V49.1818H203.346ZM205.432 49.1818V55H204.403V49.1818H205.432ZM210.093 55.0767C209.75 55.0767 209.443 54.9886 209.173 54.8125C208.902 54.6364 208.688 54.3807 208.531 54.0455C208.373 53.7102 208.295 53.303 208.295 52.8239C208.295 52.339 208.374 51.9299 208.533 51.5966C208.694 51.2614 208.911 51.0085 209.184 50.8381C209.457 50.6657 209.761 50.5795 210.096 50.5795C210.352 50.5795 210.562 50.6231 210.727 50.7102C210.891 50.7955 211.022 50.8987 211.119 51.0199C211.215 51.1392 211.29 51.2519 211.343 51.358H211.386V49.1818H212.417V55H211.406V54.3125H211.343C211.29 54.4186 211.213 54.5312 211.113 54.6506C211.013 54.768 210.88 54.8684 210.715 54.9517C210.55 55.035 210.343 55.0767 210.093 55.0767ZM210.38 54.233C210.598 54.233 210.783 54.1742 210.937 54.0568C211.09 53.9375 211.207 53.7718 211.286 53.5597C211.366 53.3475 211.406 53.1004 211.406 52.8182C211.406 52.536 211.366 52.2907 211.286 52.0824C211.209 51.8741 211.093 51.7121 210.94 51.5966C210.788 51.4811 210.602 51.4233 210.38 51.4233C210.151 51.4233 209.96 51.483 209.806 51.6023C209.653 51.7216 209.537 51.8864 209.46 52.0966C209.382 52.3068 209.343 52.5473 209.343 52.8182C209.343 53.0909 209.382 53.3343 209.46 53.5483C209.539 53.7604 209.656 53.928 209.809 54.0511C209.964 54.1723 210.155 54.233 210.38 54.233ZM214.768 55.0881C214.492 55.0881 214.243 55.0388 214.021 54.9403C213.802 54.84 213.627 54.6922 213.499 54.4972C213.372 54.3021 213.308 54.0616 213.308 53.7756C213.308 53.5294 213.354 53.3258 213.445 53.1648C213.536 53.0038 213.66 52.875 213.817 52.7784C213.974 52.6818 214.151 52.6089 214.348 52.5597C214.547 52.5085 214.752 52.4716 214.964 52.4489C215.22 52.4223 215.428 52.3987 215.587 52.3778C215.746 52.3551 215.861 52.321 215.933 52.2756C216.007 52.2282 216.044 52.1553 216.044 52.0568V52.0398C216.044 51.8258 215.981 51.66 215.854 51.5426C215.727 51.4252 215.544 51.3665 215.305 51.3665C215.054 51.3665 214.854 51.4214 214.706 51.5312C214.56 51.6411 214.462 51.7708 214.411 51.9205L213.45 51.7841C213.526 51.5189 213.651 51.2973 213.825 51.1193C214 50.9394 214.213 50.8049 214.464 50.7159C214.716 50.625 214.995 50.5795 215.3 50.5795C215.51 50.5795 215.719 50.6042 215.928 50.6534C216.136 50.7027 216.326 50.7841 216.499 50.8977C216.671 51.0095 216.809 51.1619 216.913 51.3551C217.019 51.5483 217.072 51.7898 217.072 52.0795V55H216.084V54.4006H216.05C215.987 54.5218 215.899 54.6354 215.786 54.7415C215.674 54.8456 215.533 54.9299 215.362 54.9943C215.194 55.0568 214.996 55.0881 214.768 55.0881ZM215.036 54.3324C215.242 54.3324 215.421 54.2917 215.572 54.2102C215.724 54.1269 215.84 54.017 215.922 53.8807C216.005 53.7443 216.047 53.5956 216.047 53.4347V52.9205C216.015 52.947 215.96 52.9716 215.882 52.9943C215.806 53.017 215.721 53.0369 215.626 53.054C215.532 53.071 215.438 53.0862 215.345 53.0994C215.252 53.1127 215.172 53.1241 215.104 53.1335C214.95 53.1544 214.813 53.1884 214.692 53.2358C214.571 53.2831 214.475 53.3494 214.405 53.4347C214.335 53.518 214.3 53.6259 214.3 53.7585C214.3 53.9479 214.369 54.0909 214.507 54.1875C214.645 54.2841 214.821 54.3324 215.036 54.3324ZM218.107 55V50.6364H219.104V51.3636H219.149C219.229 51.1117 219.365 50.9176 219.558 50.7812C219.753 50.643 219.976 50.5739 220.226 50.5739C220.283 50.5739 220.346 50.5767 220.416 50.5824C220.488 50.5862 220.548 50.5928 220.595 50.6023V51.5483C220.552 51.5331 220.482 51.5199 220.388 51.5085C220.295 51.4953 220.205 51.4886 220.118 51.4886C219.93 51.4886 219.762 51.5294 219.612 51.6108C219.464 51.6903 219.348 51.8011 219.263 51.9432C219.178 52.0852 219.135 52.2491 219.135 52.4347V55H218.107ZM223.692 50.6364V51.4318H221.183V50.6364H223.692ZM221.803 49.5909H222.831V53.6875C222.831 53.8258 222.852 53.9318 222.893 54.0057C222.937 54.0777 222.994 54.1269 223.064 54.1534C223.134 54.1799 223.212 54.1932 223.297 54.1932C223.361 54.1932 223.42 54.1884 223.473 54.179C223.528 54.1695 223.57 54.161 223.598 54.1534L223.771 54.9574C223.716 54.9763 223.638 54.9972 223.536 55.0199C223.435 55.0426 223.312 55.0559 223.166 55.0597C222.909 55.0672 222.677 55.0284 222.47 54.9432C222.264 54.8561 222.1 54.7216 221.979 54.5398C221.859 54.358 221.801 54.1307 221.803 53.858V49.5909ZM227.565 52.4432V55H226.536V49.1818H227.542V51.3778H227.593C227.695 51.1316 227.853 50.9375 228.067 50.7955C228.283 50.6515 228.558 50.5795 228.891 50.5795C229.194 50.5795 229.459 50.643 229.684 50.7699C229.909 50.8968 230.084 51.0824 230.207 51.3267C230.332 51.571 230.394 51.8693 230.394 52.2216V55H229.366V52.3807C229.366 52.0871 229.29 51.8589 229.138 51.696C228.989 51.5312 228.779 51.4489 228.508 51.4489C228.326 51.4489 228.163 51.4886 228.019 51.5682C227.877 51.6458 227.765 51.7585 227.684 51.9062C227.604 52.054 227.565 52.233 227.565 52.4432ZM231.442 55V50.6364H232.471V55H231.442ZM231.96 50.017C231.797 50.017 231.656 49.9631 231.539 49.8551C231.422 49.7453 231.363 49.6136 231.363 49.4602C231.363 49.3049 231.422 49.1733 231.539 49.0653C231.656 48.9555 231.797 48.9006 231.96 48.9006C232.124 48.9006 232.264 48.9555 232.38 49.0653C232.497 49.1733 232.556 49.3049 232.556 49.4602C232.556 49.6136 232.497 49.7453 232.38 49.8551C232.264 49.9631 232.124 50.017 231.96 50.017ZM235.707 50.6364V51.4318H233.199V50.6364H235.707ZM233.818 49.5909H234.847V53.6875C234.847 53.8258 234.867 53.9318 234.909 54.0057C234.953 54.0777 235.009 54.1269 235.08 54.1534C235.15 54.1799 235.227 54.1932 235.312 54.1932C235.377 54.1932 235.436 54.1884 235.489 54.179C235.544 54.1695 235.585 54.161 235.614 54.1534L235.787 54.9574C235.732 54.9763 235.653 54.9972 235.551 55.0199C235.451 55.0426 235.328 55.0559 235.182 55.0597C234.924 55.0672 234.692 55.0284 234.486 54.9432C234.279 54.8561 234.116 54.7216 233.994 54.5398C233.875 54.358 233.816 54.1307 233.818 53.858V49.5909ZM239.954 51.7898L239.016 51.892C238.99 51.7973 238.943 51.7083 238.877 51.625C238.813 51.5417 238.726 51.4744 238.616 51.4233C238.506 51.3722 238.371 51.3466 238.212 51.3466C237.998 51.3466 237.818 51.393 237.673 51.4858C237.529 51.5786 237.458 51.6989 237.46 51.8466C237.458 51.9735 237.504 52.0767 237.599 52.1562C237.695 52.2358 237.854 52.3011 238.076 52.3523L238.82 52.5114C239.233 52.6004 239.54 52.7415 239.741 52.9347C239.943 53.1278 240.046 53.3807 240.048 53.6932C240.046 53.9678 239.965 54.2102 239.806 54.4205C239.649 54.6288 239.43 54.7917 239.15 54.9091C238.87 55.0265 238.548 55.0852 238.184 55.0852C237.65 55.0852 237.22 54.9735 236.894 54.75C236.568 54.5246 236.374 54.2112 236.312 53.8097L237.315 53.7131C237.36 53.91 237.457 54.0587 237.604 54.1591C237.752 54.2595 237.944 54.3097 238.181 54.3097C238.425 54.3097 238.621 54.2595 238.769 54.1591C238.919 54.0587 238.994 53.9347 238.994 53.7869C238.994 53.6619 238.945 53.5587 238.849 53.4773C238.754 53.3958 238.606 53.3333 238.406 53.2898L237.661 53.1335C237.243 53.0464 236.933 52.8996 236.732 52.6932C236.531 52.4848 236.432 52.2216 236.434 51.9034C236.432 51.6345 236.505 51.4015 236.653 51.2045C236.802 51.0057 237.01 50.8523 237.275 50.7443C237.542 50.6345 237.85 50.5795 238.198 50.5795C238.71 50.5795 239.112 50.6884 239.406 50.9062C239.701 51.1241 239.884 51.4186 239.954 51.7898Z" fill="black"/>
<path d="M161.504 77.9391C161.47 78.2131 161.665 78.4626 161.939 78.4963L166.405 79.0448C166.68 79.0784 166.929 78.8835 166.963 78.6095C166.996 78.3354 166.801 78.0859 166.527 78.0522L162.557 77.5647L163.045 73.5945C163.078 73.3204 162.884 73.0709 162.609 73.0373C162.335 73.0036 162.086 73.1985 162.052 73.4726L161.504 77.9391ZM162.308 78.394L194.308 53.394L193.692 52.606L161.692 77.606L162.308 78.394Z" fill="#282828"/>
<path d="M163.902 32.5097C163.631 32.5639 163.456 32.8273 163.51 33.0981L164.392 37.5107C164.446 37.7815 164.71 37.9571 164.981 37.9029C165.251 37.8487 165.427 37.5853 165.373 37.3146L164.588 33.3922L168.511 32.6078C168.781 32.5536 168.957 32.2902 168.903 32.0194C168.849 31.7486 168.585 31.573 168.315 31.6272L163.902 32.5097ZM163.723 33.416L193.723 53.416L194.277 52.584L164.277 32.584L163.723 33.416Z" fill="#282828"/>
</svg>
