<svg width="97" height="102" viewBox="0 0 97 102" fill="none" xmlns="http://www.w3.org/2000/svg">
<rect x="16" y="1" width="80" height="79" stroke="#7E7E7E" stroke-width="2"/>
<path d="M95.9939 80H16L16 1C59.849 1 95.4583 36.278 95.9939 80Z" stroke="black" stroke-width="2"/>
<circle cx="67.5" cy="6.5" r="2.5" fill="#0039CD"/>
<circle cx="81.5" cy="15.5" r="2.5" fill="#0039CD"/>
<circle cx="90.5" cy="8.5" r="2.5" fill="#0039CD"/>
<circle cx="87.5" cy="32.5" r="2.5" fill="#0039CD"/>
<circle cx="25.5" cy="57.5" r="2.5" fill="#00CD00"/>
<circle cx="46.5" cy="72.5" r="2.5" fill="#00CD00"/>
<circle cx="57.5" cy="57.5" r="2.5" fill="#00CD00"/>
<circle cx="79.5" cy="67.5" r="2.5" fill="#00CD00"/>
<circle cx="71.5" cy="36.5" r="2.5" fill="#00CD00"/>
<circle cx="29.5" cy="25.4999" r="2.5" fill="#00CD00"/>
<circle cx="40.5" cy="14.5" r="2.5" fill="#00CD00"/>
<circle cx="49.5" cy="30.5" r="2.5" fill="#00CD00"/>
<circle cx="73.5" cy="51.5" r="2.5" fill="#00CD00"/>
<circle cx="39.5" cy="44.4999" r="2.5" fill="#00CD00"/>
<path d="M17 86L22 88.8868V83.1132L17 86ZM97 86L92 83.1132V88.8868L97 86ZM20 86.5H22V85.5H20V86.5ZM24 86.5H26V85.5H24V86.5ZM28 86.5H30V85.5H28V86.5ZM32 86.5H34V85.5H32V86.5ZM36 86.5H38V85.5H36V86.5ZM40 86.5H42V85.5H40V86.5ZM44 86.5H46V85.5H44V86.5ZM48 86.5H50V85.5H48V86.5ZM52 86.5H54V85.5H52V86.5ZM56 86.5H58V85.5H56V86.5ZM60 86.5H62V85.5H60V86.5ZM64 86.5H66V85.5H64V86.5ZM68 86.5H70V85.5H68V86.5ZM72 86.5H74V85.5H72V86.5ZM76 86.5H78V85.5H76V86.5ZM80 86.5H82V85.5H80V86.5ZM84 86.5H86V85.5H84V86.5ZM88 86.5H90V85.5H88V86.5ZM92 86.5H94V85.5H92V86.5Z" fill="#FF0000"/>
<path d="M10 2L7.11325 7H12.8868L10 2ZM10 82L12.8868 77H7.11325L10 82ZM9.5 5V7H10.5V5H9.5ZM9.5 9V11H10.5V9H9.5ZM9.5 13V15H10.5V13H9.5ZM9.5 17V19H10.5L10.5 17H9.5ZM9.5 21V23H10.5V21H9.5ZM9.5 25V27H10.5V25H9.5ZM9.5 29V31H10.5V29H9.5ZM9.5 33V35H10.5V33H9.5ZM9.5 37V39H10.5V37H9.5ZM9.5 41V43H10.5V41H9.5ZM9.5 45L9.5 47H10.5V45H9.5ZM9.5 49V51H10.5V49H9.5ZM9.5 53V55H10.5V53H9.5ZM9.5 57V59H10.5V57H9.5ZM9.5 61V63H10.5V61H9.5ZM9.5 65V67H10.5V65H9.5ZM9.5 69V71H10.5V69H9.5ZM9.5 73L9.5 75H10.5V73H9.5ZM9.5 77V79H10.5V77H9.5Z" fill="#FF0000"/>
<path d="M54.6605 99V93.5455H55.907V94.4545H55.9638C56.0632 94.1397 56.2337 93.897 56.4751 93.7266C56.719 93.5537 56.9972 93.4673 57.3097 93.4673C57.3807 93.4673 57.46 93.4709 57.5476 93.478C57.6375 93.4827 57.7121 93.491 57.7713 93.5028V94.6854C57.7169 94.6664 57.6304 94.6499 57.5121 94.6357C57.3961 94.6191 57.2836 94.6108 57.1747 94.6108C56.9403 94.6108 56.7296 94.6617 56.5426 94.7635C56.358 94.8629 56.2124 95.0014 56.1058 95.179C55.9993 95.3565 55.946 95.5613 55.946 95.7933V99H54.6605Z" fill="black"/>
<path d="M54.6605 48V42.5455H55.907V43.4545H55.9638C56.0632 43.1397 56.2337 42.897 56.4751 42.7266C56.719 42.5537 56.9972 42.4673 57.3097 42.4673C57.3807 42.4673 57.46 42.4709 57.5476 42.478C57.6375 42.4827 57.7121 42.491 57.7713 42.5028V43.6854C57.7169 43.6664 57.6304 43.6499 57.5121 43.6357C57.3961 43.6191 57.2836 43.6108 57.1747 43.6108C56.9403 43.6108 56.7296 43.6617 56.5426 43.7635C56.358 43.8629 56.2124 44.0014 56.1058 44.179C55.9993 44.3565 55.946 44.5613 55.946 44.7933V48H54.6605Z" fill="black"/>
<path d="M0.660511 45V39.5455H1.90696V40.4545H1.96378C2.06321 40.1397 2.23366 39.897 2.47514 39.7266C2.71899 39.5537 2.99716 39.4673 3.30966 39.4673C3.38068 39.4673 3.45999 39.4709 3.54759 39.478C3.63755 39.4827 3.71212 39.491 3.77131 39.5028V40.6854C3.71686 40.6664 3.63045 40.6499 3.51207 40.6357C3.39607 40.6191 3.28362 40.6108 3.17472 40.6108C2.94034 40.6108 2.72964 40.6617 2.54261 40.7635C2.35795 40.8629 2.21236 41.0014 2.10582 41.179C1.99929 41.3565 1.94602 41.5613 1.94602 41.7933V45H0.660511Z" fill="black"/>
<path d="M70.4999 22.9885C70.4935 22.7124 70.2645 22.4938 69.9885 22.5001L65.4897 22.6038C65.2136 22.6102 64.995 22.8392 65.0013 23.1152C65.0077 23.3913 65.2366 23.6099 65.5127 23.6036L69.5117 23.5114L69.6038 27.5103C69.6102 27.7864 69.8392 28.005 70.1152 27.9987C70.3913 27.9923 70.6099 27.7634 70.6036 27.4873L70.4999 22.9885ZM69.6384 22.6547L16.6385 78.1556L17.3617 78.8463L70.3616 23.3453L69.6384 22.6547Z" fill="black"/>
</svg>
