<svg width="326" height="188" viewBox="0 0 326 188" fill="none" xmlns="http://www.w3.org/2000/svg">
<circle cx="96" cy="93.9999" r="77" stroke="black" stroke-opacity="0.41" stroke-width="2"/>
<rect x="17" y="14.9999" width="158" height="158" stroke="#4F4F4F" stroke-width="2"/>
<path d="M174.119 92.8428L173.864 91.8424L172.41 92.2123L172.665 93.2127L174.119 92.8428ZM173.355 89.8415L172.846 87.8407L171.392 88.2106L171.901 90.2115L173.355 89.8415ZM172.336 85.8398L171.827 83.839L170.374 84.2089L170.883 86.2098L172.336 85.8398ZM171.318 81.8381L170.809 79.8373L169.355 80.2072L169.864 82.2081L171.318 81.8381ZM170.3 77.8364L169.791 75.8356L168.337 76.2055L168.846 78.2064L170.3 77.8364ZM169.281 73.8347L168.772 71.8339L167.318 72.2038L167.828 74.2047L169.281 73.8347ZM168.263 69.833L167.754 67.8322L166.3 68.2021L166.809 70.203L168.263 69.833ZM167.245 65.8313L166.735 63.8305L165.282 64.2004L165.791 66.2013L167.245 65.8313ZM166.226 61.8296L165.717 59.8288L164.263 60.1987L164.773 62.1996L166.226 61.8296ZM165.208 57.8279L164.699 55.8271L163.245 56.197L163.754 58.1979L165.208 57.8279ZM164.189 53.8262L163.68 51.8254L162.227 52.1953L162.736 54.1962L164.189 53.8262ZM163.171 49.8246L162.662 47.8237L161.208 48.1936L161.717 50.1945L163.171 49.8246ZM162.153 45.8229L161.644 43.822L160.19 44.1919L160.699 46.1928L162.153 45.8229ZM161.134 41.8212L160.625 39.8203L159.172 40.1902L159.681 42.1911L161.134 41.8212ZM160.116 37.8195L159.607 35.8186L158.153 36.1885L158.662 38.1894L160.116 37.8195ZM159.098 33.8178L158.843 32.8173L157.389 33.1873L157.644 34.1877L159.098 33.8178Z" fill="#0015CD"/>
<path d="M0 92.9999L5 95.8867L5 90.1132L0 92.9999ZM189 92.9999L184 90.1132V95.8867L189 92.9999ZM3.01596 93.4999H5.0266V92.4999H3.01596V93.4999ZM7.03723 93.4999H9.04787V92.4999H7.03723V93.4999ZM11.0585 93.4999H13.0691V92.4999H11.0585V93.4999ZM15.0798 93.4999H17.0904V92.4999H15.0798V93.4999ZM19.1011 93.4999H21.1117V92.4999H19.1011V93.4999ZM23.1223 93.4999H25.133V92.4999H23.1223V93.4999ZM27.1436 93.4999L29.1543 93.4999V92.4999H27.1436V93.4999ZM31.1649 93.4999H33.1755V92.4999H31.1649V93.4999ZM35.1862 93.4999H37.1968V92.4999H35.1862V93.4999ZM39.2075 93.4999H41.2181V92.4999H39.2075V93.4999ZM43.2287 93.4999H45.2394V92.4999H43.2287V93.4999ZM47.25 93.4999H49.2606V92.4999H47.25V93.4999ZM51.2713 93.4999H53.2819V92.4999H51.2713V93.4999ZM55.2926 93.4999H57.3032V92.4999H55.2926V93.4999ZM59.3138 93.4999H61.3245V92.4999H59.3138V93.4999ZM63.3351 93.4999H65.3458V92.4999H63.3351V93.4999ZM67.3564 93.4999H69.367V92.4999H67.3564V93.4999ZM71.3777 93.4999H73.3883V92.4999H71.3777V93.4999ZM75.3989 93.4999H77.4096V92.4999H75.3989V93.4999ZM79.4202 93.4999H81.4308V92.4999H79.4202V93.4999ZM83.4415 93.4999H85.4521V92.4999H83.4415V93.4999ZM87.4628 93.4999H89.4734V92.4999H87.4628V93.4999ZM91.484 93.4999H93.4947V92.4999H91.484V93.4999ZM95.5053 93.4999H97.5159V92.4999H95.5053V93.4999ZM99.5266 93.4999H101.537V92.4999H99.5266V93.4999ZM103.548 93.4999H105.558V92.4999H103.548V93.4999ZM107.569 93.4999H109.58V92.4999H107.569V93.4999ZM111.59 93.4999H113.601V92.4999H111.59V93.4999ZM115.612 93.4999H117.622V92.4999H115.612V93.4999ZM119.633 93.4999H121.644V92.4999H119.633V93.4999ZM123.654 93.4999H125.665V92.4999H123.654V93.4999ZM127.675 93.4999H129.686V92.4999H127.675V93.4999ZM131.697 93.4999H133.707V92.4999H131.697V93.4999ZM135.718 93.4999H137.729V92.4999H135.718V93.4999ZM139.739 93.4999H141.75V92.4999H139.739V93.4999ZM143.761 93.4999L145.771 93.4999V92.4999L143.761 92.4999V93.4999ZM147.782 93.4999H149.792V92.4999H147.782V93.4999ZM151.803 93.4999H153.814V92.4999H151.803V93.4999ZM155.824 93.4999H157.835V92.4999H155.824V93.4999ZM159.846 93.4999H161.856V92.4999H159.846V93.4999ZM163.867 93.4999H165.878V92.4999H163.867V93.4999ZM167.888 93.4999H169.899V92.4999H167.888V93.4999ZM171.909 93.4999H173.92V92.4999H171.909V93.4999ZM175.931 93.4999H177.941V92.4999H175.931V93.4999ZM179.952 93.4999H181.963V92.4999H179.952V93.4999ZM183.973 93.4999H185.984V92.4999H183.973V93.4999Z" fill="#FF0000"/>
<path d="M95 188L97.8868 183H92.1132L95 188ZM95 5.56817e-06L92.1132 5.00001H97.8868L95 5.56817e-06ZM95.5 185V183H94.5V185H95.5ZM95.5 181V179H94.5V181H95.5ZM95.5 177V175H94.5V177H95.5ZM95.5 173V171H94.5V173H95.5ZM95.5 169V167H94.5V169H95.5ZM95.5 165V163H94.5V165H95.5ZM95.5 161V159H94.5V161H95.5ZM95.5 157V155H94.5V157H95.5ZM95.5 153V151H94.5V153H95.5ZM95.5 149V147H94.5V149H95.5ZM95.5 145V143H94.5V145H95.5ZM95.5 141V139H94.5V141H95.5ZM95.5 137V135H94.5V137H95.5ZM95.5 133V131H94.5V133H95.5ZM95.5 129V127H94.5V129H95.5ZM95.5 125V123H94.5V125H95.5ZM95.5 121V119H94.5V121H95.5ZM95.5 117V115H94.5V117H95.5ZM95.5 113V111H94.5V113H95.5ZM95.5 109V107H94.5V109H95.5ZM95.5 105V103H94.5V105H95.5ZM95.5 101V99H94.5V101H95.5ZM95.5 97V95H94.5V97H95.5ZM95.5 93V91H94.5V93H95.5ZM95.5 89V87H94.5V89H95.5ZM95.5 85V83H94.5V85H95.5ZM95.5 81V79H94.5V81H95.5ZM95.5 77V75H94.5V77H95.5ZM95.5 73L95.5 71H94.5L94.5 73H95.5ZM95.5 69V67H94.5V69H95.5ZM95.5 65V63H94.5V65H95.5ZM95.5 61V59H94.5V61H95.5ZM95.5 57V55H94.5V57H95.5ZM95.5 53V51H94.5V53H95.5ZM95.5 49V47H94.5V49H95.5ZM95.5 45V43H94.5V45H95.5ZM95.5 41V39H94.5V41H95.5ZM95.5 37V35H94.5V37H95.5ZM95.5 33V31H94.5V33H95.5ZM95.5 29V27H94.5V29H95.5ZM95.5 25V23H94.5V25H95.5ZM95.5 21V19H94.5V21H95.5ZM95.5 17V15H94.5V17H95.5ZM95.5 13V11H94.5V13H95.5ZM95.5 9.00001V7.00001H94.5V9.00001H95.5ZM95.5 5.00001V3.00001H94.5V5.00001H95.5Z" fill="#FF0000"/>
<path d="M197.486 26H196.221L198.525 19.4545H199.989L202.296 26H201.031L199.282 20.7969H199.231L197.486 26ZM197.528 23.4336H200.979V24.386H197.528V23.4336ZM205.34 26V21.0909H206.461V21.9091H206.513C206.602 21.6257 206.755 21.4073 206.973 21.2539C207.192 21.0984 207.443 21.0206 207.724 21.0206C207.788 21.0206 207.859 21.0238 207.938 21.0302C208.019 21.0344 208.086 21.0419 208.139 21.0526V22.1168C208.09 22.0998 208.013 22.0849 207.906 22.0721C207.802 22.0572 207.7 22.0497 207.602 22.0497C207.391 22.0497 207.202 22.0955 207.033 22.1871C206.867 22.2766 206.736 22.4013 206.64 22.5611C206.544 22.7209 206.497 22.9052 206.497 23.114V26H205.34ZM210.233 26.0991C209.922 26.0991 209.641 26.0437 209.392 25.9329C209.145 25.82 208.949 25.6538 208.804 25.4343C208.661 25.2148 208.59 24.9442 208.59 24.6225C208.59 24.3455 208.641 24.1165 208.743 23.9354C208.846 23.7543 208.985 23.6094 209.162 23.5007C209.339 23.392 209.538 23.31 209.76 23.2546C209.983 23.1971 210.215 23.1555 210.453 23.13C210.741 23.1001 210.974 23.0735 211.153 23.0501C211.332 23.0245 211.462 22.9862 211.543 22.935C211.626 22.8817 211.668 22.7997 211.668 22.6889V22.6697C211.668 22.429 211.596 22.2425 211.454 22.1104C211.311 21.9783 211.105 21.9123 210.837 21.9123C210.553 21.9123 210.329 21.9741 210.162 22.0977C209.998 22.2212 209.888 22.3672 209.83 22.5355L208.75 22.3821C208.835 22.0838 208.976 21.8345 209.172 21.6342C209.368 21.4318 209.607 21.2805 209.891 21.1804C210.174 21.0781 210.487 21.027 210.83 21.027C211.067 21.027 211.302 21.0547 211.537 21.1101C211.771 21.1655 211.985 21.2571 212.179 21.3849C212.373 21.5107 212.528 21.6822 212.646 21.8995C212.765 22.1168 212.825 22.3885 212.825 22.7145V26H211.712V25.3256H211.674C211.604 25.462 211.505 25.5898 211.377 25.7092C211.251 25.8263 211.092 25.9212 210.901 25.9936C210.711 26.0639 210.488 26.0991 210.233 26.0991ZM210.533 25.2489C210.765 25.2489 210.967 25.2031 211.137 25.1115C211.308 25.0178 211.439 24.8942 211.53 24.7408C211.624 24.5874 211.671 24.4201 211.671 24.239V23.6605C211.635 23.6903 211.573 23.718 211.486 23.7436C211.4 23.7692 211.304 23.7915 211.198 23.8107C211.091 23.8299 210.986 23.8469 210.881 23.8619C210.777 23.8768 210.687 23.8896 210.61 23.9002C210.437 23.9237 210.283 23.962 210.146 24.0153C210.01 24.0685 209.902 24.1431 209.824 24.239C209.745 24.3327 209.705 24.4542 209.705 24.6033C209.705 24.8164 209.783 24.9773 209.939 25.0859C210.094 25.1946 210.292 25.2489 210.533 25.2489ZM215.145 23.1236V26H213.988V21.0909H215.094V21.9251H215.151C215.264 21.6502 215.444 21.4318 215.691 21.2699C215.941 21.108 216.249 21.027 216.615 21.027C216.954 21.027 217.249 21.0994 217.5 21.2443C217.754 21.3892 217.95 21.5991 218.089 21.8739C218.229 22.1488 218.298 22.4822 218.296 22.8743V26H217.139V23.0533C217.139 22.7251 217.054 22.4684 216.884 22.283C216.715 22.0977 216.482 22.005 216.184 22.005C215.981 22.005 215.801 22.0497 215.644 22.1392C215.488 22.2266 215.366 22.3533 215.276 22.5195C215.189 22.6857 215.145 22.8871 215.145 23.1236ZM221.294 26.0863C220.908 26.0863 220.563 25.9872 220.259 25.7891C219.954 25.5909 219.713 25.3033 219.536 24.9261C219.359 24.549 219.271 24.0909 219.271 23.5518C219.271 23.0064 219.361 22.5462 219.54 22.1712C219.721 21.794 219.965 21.5096 220.271 21.3178C220.578 21.1239 220.92 21.027 221.297 21.027C221.585 21.027 221.821 21.076 222.007 21.174C222.192 21.2699 222.339 21.386 222.448 21.5224C222.557 21.6566 222.641 21.7834 222.7 21.9027H222.748V19.4545H223.908V26H222.771V25.2266H222.7C222.641 25.3459 222.554 25.4727 222.441 25.6069C222.329 25.739 222.179 25.8519 221.994 25.9457C221.809 26.0394 221.575 26.0863 221.294 26.0863ZM221.617 25.1371C221.862 25.1371 222.071 25.071 222.243 24.9389C222.416 24.8047 222.547 24.6183 222.636 24.3796C222.726 24.141 222.771 23.8629 222.771 23.5455C222.771 23.228 222.726 22.9521 222.636 22.7177C222.549 22.4833 222.419 22.3011 222.247 22.1712C222.076 22.0412 221.866 21.9762 221.617 21.9762C221.359 21.9762 221.144 22.0433 220.971 22.1776C220.799 22.3118 220.669 22.4972 220.581 22.7337C220.494 22.9702 220.45 23.2408 220.45 23.5455C220.45 23.8523 220.494 24.1261 220.581 24.3668C220.671 24.6055 220.802 24.794 220.975 24.9325C221.149 25.0689 221.363 25.1371 221.617 25.1371ZM227.283 26.0959C226.803 26.0959 226.388 25.9904 226.036 25.7795C225.685 25.5685 225.412 25.2734 225.218 24.8942C225.026 24.5149 224.93 24.0717 224.93 23.5646C224.93 23.0575 225.026 22.6133 225.218 22.2319C225.412 21.8505 225.685 21.5543 226.036 21.3434C226.388 21.1325 226.803 21.027 227.283 21.027C227.762 21.027 228.178 21.1325 228.529 21.3434C228.881 21.5543 229.152 21.8505 229.344 22.2319C229.538 22.6133 229.635 23.0575 229.635 23.5646C229.635 24.0717 229.538 24.5149 229.344 24.8942C229.152 25.2734 228.881 25.5685 228.529 25.7795C228.178 25.9904 227.762 26.0959 227.283 26.0959ZM227.289 25.169C227.549 25.169 227.766 25.0977 227.941 24.9549C228.116 24.81 228.246 24.6161 228.331 24.3732C228.418 24.1303 228.462 23.8597 228.462 23.5614C228.462 23.261 228.418 22.9893 228.331 22.7464C228.246 22.5014 228.116 22.3065 227.941 22.1616C227.766 22.0167 227.549 21.9442 227.289 21.9442C227.023 21.9442 226.801 22.0167 226.624 22.1616C226.45 22.3065 226.319 22.5014 226.231 22.7464C226.146 22.9893 226.103 23.261 226.103 23.5614C226.103 23.8597 226.146 24.1303 226.231 24.3732C226.319 24.6161 226.45 24.81 226.624 24.9549C226.801 25.0977 227.023 25.169 227.289 25.169ZM230.617 26V21.0909H231.723V21.9251H231.78C231.883 21.6438 232.052 21.4244 232.288 21.2667C232.525 21.1069 232.807 21.027 233.135 21.027C233.468 21.027 233.748 21.108 233.976 21.2699C234.206 21.4297 234.368 21.6481 234.462 21.9251H234.513C234.622 21.6523 234.805 21.435 235.063 21.2731C235.323 21.109 235.63 21.027 235.986 21.027C236.438 21.027 236.807 21.1697 237.092 21.4553C237.378 21.7408 237.52 22.1573 237.52 22.7049V26H236.36V22.8839C236.36 22.5792 236.279 22.3565 236.117 22.2159C235.955 22.0732 235.757 22.0018 235.523 22.0018C235.244 22.0018 235.025 22.0891 234.868 22.2638C234.712 22.4364 234.634 22.6612 234.634 22.9382V26H233.5V22.8359C233.5 22.5824 233.423 22.38 233.27 22.2287C233.118 22.0774 232.92 22.0018 232.675 22.0018C232.509 22.0018 232.358 22.0444 232.221 22.1296C232.085 22.2127 231.976 22.331 231.895 22.4844C231.814 22.6357 231.774 22.8125 231.774 23.0149V26H230.617ZM198.416 37.0863C198.031 37.0863 197.685 36.9872 197.381 36.7891C197.076 36.5909 196.835 36.3033 196.658 35.9261C196.482 35.549 196.393 35.0909 196.393 34.5518C196.393 34.0064 196.483 33.5462 196.662 33.1712C196.843 32.794 197.087 32.5096 197.393 32.3178C197.7 32.1239 198.042 32.027 198.419 32.027C198.707 32.027 198.944 32.076 199.129 32.174C199.314 32.2699 199.461 32.386 199.57 32.5224C199.679 32.6566 199.763 32.7834 199.822 32.9027H199.87V30.4545H201.031V37H199.893V36.2266H199.822C199.763 36.3459 199.676 36.4727 199.564 36.6069C199.451 36.739 199.301 36.8519 199.116 36.9457C198.931 37.0394 198.697 37.0863 198.416 37.0863ZM198.739 36.1371C198.984 36.1371 199.193 36.071 199.365 35.9389C199.538 35.8047 199.669 35.6183 199.759 35.3796C199.848 35.141 199.893 34.8629 199.893 34.5455C199.893 34.228 199.848 33.9521 199.759 33.7177C199.671 33.4833 199.541 33.3011 199.369 33.1712C199.198 33.0412 198.988 32.9762 198.739 32.9762C198.481 32.9762 198.266 33.0433 198.093 33.1776C197.921 33.3118 197.791 33.4972 197.703 33.7337C197.616 33.9702 197.572 34.2408 197.572 34.5455C197.572 34.8523 197.616 35.1261 197.703 35.3668C197.793 35.6055 197.924 35.794 198.097 35.9325C198.271 36.0689 198.485 36.1371 198.739 36.1371ZM203.676 37.0991C203.365 37.0991 203.085 37.0437 202.835 36.9329C202.588 36.82 202.392 36.6538 202.247 36.4343C202.105 36.2148 202.033 35.9442 202.033 35.6225C202.033 35.3455 202.084 35.1165 202.187 34.9354C202.289 34.7543 202.429 34.6094 202.605 34.5007C202.782 34.392 202.981 34.31 203.203 34.2546C203.427 34.1971 203.658 34.1555 203.897 34.13C204.184 34.1001 204.418 34.0735 204.597 34.0501C204.775 34.0245 204.905 33.9862 204.986 33.935C205.07 33.8817 205.111 33.7997 205.111 33.6889V33.6697C205.111 33.429 205.04 33.2425 204.897 33.1104C204.754 32.9783 204.549 32.9123 204.28 32.9123C203.997 32.9123 203.772 32.9741 203.606 33.0977C203.442 33.2212 203.331 33.3672 203.273 33.5355L202.193 33.3821C202.278 33.0838 202.419 32.8345 202.615 32.6342C202.811 32.4318 203.051 32.2805 203.334 32.1804C203.617 32.0781 203.931 32.027 204.274 32.027C204.51 32.027 204.746 32.0547 204.98 32.1101C205.214 32.1655 205.429 32.2571 205.622 32.3849C205.816 32.5107 205.972 32.6822 206.089 32.8995C206.208 33.1168 206.268 33.3885 206.268 33.7145V37H205.156V36.3256H205.117C205.047 36.462 204.948 36.5898 204.82 36.7092C204.695 36.8263 204.536 36.9212 204.344 36.9936C204.154 37.0639 203.932 37.0991 203.676 37.0991ZM203.976 36.2489C204.209 36.2489 204.41 36.2031 204.581 36.1115C204.751 36.0178 204.882 35.8942 204.974 35.7408C205.067 35.5874 205.114 35.4201 205.114 35.239V34.6605C205.078 34.6903 205.016 34.718 204.929 34.7436C204.844 34.7692 204.748 34.7915 204.641 34.8107C204.535 34.8299 204.429 34.8469 204.325 34.8619C204.22 34.8768 204.13 34.8896 204.053 34.9002C203.881 34.9237 203.726 34.962 203.59 35.0153C203.453 35.0685 203.346 35.1431 203.267 35.239C203.188 35.3327 203.149 35.4542 203.149 35.6033C203.149 35.8164 203.226 35.9773 203.382 36.0859C203.538 36.1946 203.736 36.2489 203.976 36.2489ZM207.431 37V32.0909H208.553V32.9091H208.604C208.694 32.6257 208.847 32.4073 209.065 32.2539C209.284 32.0984 209.534 32.0206 209.816 32.0206C209.88 32.0206 209.951 32.0238 210.03 32.0302C210.111 32.0344 210.178 32.0419 210.231 32.0526V33.1168C210.182 33.0998 210.104 33.0849 209.998 33.0721C209.893 33.0572 209.792 33.0497 209.694 33.0497C209.483 33.0497 209.294 33.0955 209.125 33.1871C208.959 33.2766 208.828 33.4013 208.732 33.5611C208.636 33.7209 208.588 33.9052 208.588 34.114V37H207.431ZM213.715 32.0909V32.9858H210.893V32.0909H213.715ZM211.589 30.9148H212.746V35.5234C212.746 35.679 212.77 35.7983 212.817 35.8814C212.866 35.9624 212.93 36.0178 213.008 36.0476C213.087 36.0774 213.175 36.0923 213.271 36.0923C213.343 36.0923 213.409 36.087 213.469 36.0763C213.53 36.0657 213.577 36.0561 213.609 36.0476L213.804 36.9521C213.742 36.9734 213.654 36.9968 213.539 37.0224C213.426 37.0479 213.288 37.0629 213.123 37.0671C212.834 37.0756 212.573 37.032 212.34 36.9361C212.108 36.8381 211.924 36.6868 211.788 36.4822C211.653 36.2777 211.587 36.022 211.589 35.7152V30.9148ZM219.366 32.0909V32.9858H216.544V32.0909H219.366ZM217.241 30.9148H218.398V35.5234C218.398 35.679 218.421 35.7983 218.468 35.8814C218.517 35.9624 218.581 36.0178 218.66 36.0476C218.739 36.0774 218.826 36.0923 218.922 36.0923C218.994 36.0923 219.06 36.087 219.12 36.0763C219.182 36.0657 219.229 36.0561 219.261 36.0476L219.456 36.9521C219.394 36.9734 219.305 36.9968 219.19 37.0224C219.077 37.0479 218.939 37.0629 218.775 37.0671C218.485 37.0756 218.224 37.032 217.992 36.9361C217.76 36.8381 217.575 36.6868 217.439 36.4822C217.305 36.2777 217.239 36.022 217.241 35.7152V30.9148ZM221.596 34.1236V37H220.439V30.4545H221.571V32.9251H221.628C221.743 32.6481 221.921 32.4297 222.162 32.2699C222.405 32.108 222.714 32.027 223.089 32.027C223.43 32.027 223.727 32.0984 223.98 32.2411C224.234 32.3839 224.43 32.5927 224.568 32.8675C224.709 33.1424 224.779 33.478 224.779 33.8743V37H223.622V34.0533C223.622 33.723 223.537 33.4663 223.367 33.283C223.198 33.0977 222.962 33.005 222.657 33.005C222.453 33.005 222.269 33.0497 222.108 33.1392C221.948 33.2266 221.822 33.3533 221.73 33.5195C221.641 33.6857 221.596 33.8871 221.596 34.1236ZM225.959 37V32.0909H227.081V32.9091H227.132C227.221 32.6257 227.375 32.4073 227.592 32.2539C227.811 32.0984 228.062 32.0206 228.343 32.0206C228.407 32.0206 228.478 32.0238 228.557 32.0302C228.638 32.0344 228.705 32.0419 228.758 32.0526V33.1168C228.709 33.0998 228.632 33.0849 228.525 33.0721C228.421 33.0572 228.32 33.0497 228.222 33.0497C228.011 33.0497 227.821 33.0955 227.653 33.1871C227.486 33.2766 227.355 33.4013 227.259 33.5611C227.164 33.7209 227.116 33.9052 227.116 34.114V37H225.959ZM231.466 37.0959C230.987 37.0959 230.571 36.9904 230.22 36.7795C229.868 36.5685 229.596 36.2734 229.402 35.8942C229.21 35.5149 229.114 35.0717 229.114 34.5646C229.114 34.0575 229.21 33.6133 229.402 33.2319C229.596 32.8505 229.868 32.5543 230.22 32.3434C230.571 32.1325 230.987 32.027 231.466 32.027C231.946 32.027 232.361 32.1325 232.713 32.3434C233.064 32.5543 233.336 32.8505 233.528 33.2319C233.722 33.6133 233.819 34.0575 233.819 34.5646C233.819 35.0717 233.722 35.5149 233.528 35.8942C233.336 36.2734 233.064 36.5685 232.713 36.7795C232.361 36.9904 231.946 37.0959 231.466 37.0959ZM231.473 36.169C231.733 36.169 231.95 36.0977 232.125 35.9549C232.299 35.81 232.429 35.6161 232.515 35.3732C232.602 35.1303 232.646 34.8597 232.646 34.5614C232.646 34.261 232.602 33.9893 232.515 33.7464C232.429 33.5014 232.299 33.3065 232.125 33.1616C231.95 33.0167 231.733 32.9442 231.473 32.9442C231.206 32.9442 230.985 33.0167 230.808 33.1616C230.633 33.3065 230.502 33.5014 230.415 33.7464C230.33 33.9893 230.287 34.261 230.287 34.5614C230.287 34.8597 230.33 35.1303 230.415 35.3732C230.502 35.6161 230.633 35.81 230.808 35.9549C230.985 36.0977 231.206 36.169 231.473 36.169ZM235.673 37L234.286 32.0909H235.465L236.328 35.5426H236.373L237.255 32.0909H238.422L239.304 35.5234H239.352L240.202 32.0909H241.384L239.994 37H238.789L237.869 33.6825H237.802L236.881 37H235.673Z" fill="black"/>
<path d="M162.586 28.7201C162.431 28.9489 162.491 29.2597 162.72 29.4143L166.449 31.9337C166.678 32.0883 166.988 32.0281 167.143 31.7993C167.298 31.5705 167.237 31.2597 167.009 31.1051L163.694 28.8656L165.934 25.5513C166.088 25.3225 166.028 25.0117 165.799 24.8571C165.57 24.7025 165.26 24.7626 165.105 24.9914L162.586 28.7201ZM163.095 29.4909L194.095 23.4909L193.905 22.5091L162.905 28.5091L163.095 29.4909Z" fill="#282828"/>
<circle cx="159.5" cy="30.5" r="2.5" fill="#7300CD"/>
<path d="M157.5 33.0103C157.506 32.7342 157.286 32.5058 157.01 32.5001L152.511 32.4077C152.235 32.402 152.007 32.6212 152.001 32.8973C151.995 33.1734 152.215 33.4018 152.491 33.4075L156.49 33.4896L156.408 37.4888C156.402 37.7649 156.621 37.9933 156.897 37.9989C157.173 38.0046 157.402 37.7854 157.407 37.5093L157.5 33.0103ZM156.654 32.6393L95.6538 91.1838L96.3462 91.9053L157.346 33.3607L156.654 32.6393Z" fill="#00CD00"/>
<circle cx="95.5" cy="92.4999" r="2.5" fill="black"/>
<path d="M116.641 61V60.0977L120.742 54.2148H116.617V53H122.539V53.9023L118.441 59.7852H122.563V61H116.641Z" fill="black"/>
<path d="M167.605 55.25C167.413 55.25 167.234 55.2344 167.07 55.2031C166.909 55.1745 166.78 55.1406 166.684 55.1016L167.012 54C167.217 54.0599 167.401 54.0885 167.562 54.0859C167.724 54.0833 167.866 54.0326 167.988 53.9336C168.113 53.8372 168.219 53.6758 168.305 53.4492L168.426 53.125L166.25 47H167.75L169.133 51.5312H169.195L170.582 47H172.086L169.684 53.7266C169.572 54.0443 169.423 54.3164 169.238 54.543C169.053 54.7721 168.827 54.9466 168.559 55.0664C168.293 55.1888 167.975 55.25 167.605 55.25Z" fill="black"/>
<path d="M138.883 98L140.094 100.215L141.324 98H142.82L141.012 101L142.852 104H141.363L140.094 101.84L138.836 104H137.336L139.164 101L137.383 98H138.883Z" fill="black"/>
<path d="M298.655 124.162L222.368 123.794L285.32 80.7024L298.655 124.162Z" stroke="#868686" stroke-width="2"/>
<circle cx="286.207" cy="79.0293" r="2.5" fill="#7300CD"/>
<path d="M245.297 93.5293V92.7126L248.109 89.1863V89.1401H245.389V88.0748H249.683V88.9519L247.005 92.4178V92.464H249.775V93.5293H245.297Z" fill="black"/>
<path d="M264.419 134.075L265.52 136.088L266.639 134.075H267.999L266.354 136.802L268.027 139.529H266.674L265.52 137.566L264.376 139.529H263.013L264.675 136.802L263.055 134.075H264.419Z" fill="black"/>
<path d="M303.167 106.575C302.992 106.575 302.83 106.561 302.68 106.532C302.534 106.506 302.416 106.475 302.329 106.44L302.627 105.438C302.814 105.493 302.981 105.519 303.128 105.517C303.275 105.514 303.404 105.468 303.515 105.378C303.629 105.29 303.724 105.144 303.803 104.938L303.913 104.643L301.935 99.0748H303.298L304.555 103.194H304.612L305.873 99.0748H307.24L305.056 105.19C304.954 105.479 304.819 105.726 304.651 105.932C304.483 106.14 304.277 106.299 304.033 106.408C303.792 106.519 303.503 106.575 303.167 106.575Z" fill="black"/>
<path d="M283.199 74.6207C283.249 74.3492 283.07 74.0882 282.799 74.0377L278.375 73.2155C278.103 73.1651 277.842 73.3443 277.792 73.6158C277.741 73.8873 277.92 74.1483 278.192 74.1987L282.124 74.9296L281.394 78.8622C281.343 79.1337 281.522 79.3947 281.794 79.4452C282.065 79.4956 282.326 79.3164 282.377 79.0449L283.199 74.6207ZM282.424 74.1171L215.424 120.117L215.99 120.942L282.99 74.9415L282.424 74.1171Z" fill="#00CD00"/>
<path d="M306.215 124.772L305.918 123.842L304.489 124.298L304.785 125.228L306.215 124.772ZM305.324 121.981L304.73 120.12L303.301 120.576L303.895 122.437L305.324 121.981ZM304.137 118.259L303.543 116.399L302.114 116.855L302.708 118.715L304.137 118.259ZM302.949 114.538L302.356 112.677L300.927 113.133L301.52 114.994L302.949 114.538ZM301.762 110.816L301.168 108.956L299.739 109.412L300.333 111.272L301.762 110.816ZM300.575 107.095L299.981 105.234L298.552 105.69L299.146 107.551L300.575 107.095ZM299.387 103.373L298.794 101.513L297.365 101.969L297.958 103.829L299.387 103.373ZM298.2 99.652L297.606 97.7913L296.177 98.2472L296.771 100.108L298.2 99.652ZM297.013 95.9305L296.419 94.0698L294.99 94.5257L295.583 96.3865L297.013 95.9305ZM295.825 92.209L295.231 90.3483L293.802 90.8042L294.396 92.665L295.825 92.209ZM294.638 88.4876L294.044 86.6268L292.615 87.0827L293.209 88.9435L294.638 88.4876ZM293.45 84.7661L292.857 82.9053L291.428 83.3613L292.021 85.222L293.45 84.7661ZM292.263 81.0446L291.966 80.1142L290.537 80.5702L290.834 81.5005L292.263 81.0446Z" fill="#0015CD"/>
<path d="M220 130.5H220.988V129.5H220V130.5ZM222.963 130.5H224.938V129.5H222.963V130.5ZM226.912 130.5H228.887V129.5H226.912V130.5ZM230.863 130.5H232.838V129.5H230.863V130.5ZM234.813 130.5H236.788V129.5H234.813V130.5ZM238.763 130.5H240.738V129.5H238.763V130.5ZM242.713 130.5H244.688V129.5H242.713V130.5ZM246.663 130.5H248.638V129.5H246.663V130.5ZM250.613 130.5H252.588V129.5H250.613V130.5ZM254.562 130.5H256.537V129.5H254.562V130.5ZM258.512 130.5H260.487V129.5H258.512V130.5ZM262.462 130.5H264.437V129.5H262.462V130.5ZM266.412 130.5H268.387V129.5H266.412V130.5ZM270.362 130.5H272.337V129.5H270.362V130.5ZM274.312 130.5H276.287V129.5H274.312V130.5ZM278.262 130.5H280.237V129.5H278.262V130.5ZM282.212 130.5H284.187V129.5H282.212V130.5ZM286.162 130.5H288.137V129.5H286.162V130.5ZM290.112 130.5H292.087V129.5H290.112V130.5ZM294.062 130.5H296.037V129.5H294.062V130.5ZM298.012 130.5H299V129.5H298.012V130.5Z" fill="#FF0000"/>
</svg>
