<svg width="248" height="257" viewBox="0 0 248 257" fill="none" xmlns="http://www.w3.org/2000/svg">
<circle cx="96" cy="130" r="77" stroke="black" stroke-width="2"/>
<rect x="17" y="50.9999" width="158" height="158" stroke="#7E7E7E" stroke-width="2"/>
<path d="M0 129L5 131.887L5 126.113L0 129ZM189 129L184 126.113V131.887L189 129ZM3.01596 129.5H5.0266V128.5H3.01596V129.5ZM7.03723 129.5H9.04787V128.5H7.03723V129.5ZM11.0585 129.5H13.0691V128.5H11.0585V129.5ZM15.0798 129.5H17.0904V128.5H15.0798V129.5ZM19.1011 129.5H21.1117V128.5H19.1011V129.5ZM23.1223 129.5H25.133V128.5H23.1223V129.5ZM27.1436 129.5H29.1543V128.5H27.1436V129.5ZM31.1649 129.5H33.1755V128.5H31.1649V129.5ZM35.1862 129.5H37.1968V128.5H35.1862V129.5ZM39.2075 129.5H41.2181V128.5H39.2075V129.5ZM43.2287 129.5H45.2394V128.5H43.2287V129.5ZM47.25 129.5H49.2606V128.5H47.25V129.5ZM51.2713 129.5H53.2819V128.5H51.2713V129.5ZM55.2926 129.5H57.3032V128.5H55.2926V129.5ZM59.3138 129.5H61.3245V128.5H59.3138V129.5ZM63.3351 129.5H65.3458V128.5H63.3351V129.5ZM67.3564 129.5H69.367V128.5H67.3564V129.5ZM71.3777 129.5H73.3883V128.5H71.3777V129.5ZM75.3989 129.5H77.4096V128.5H75.3989V129.5ZM79.4202 129.5H81.4308V128.5H79.4202V129.5ZM83.4415 129.5H85.4521V128.5H83.4415V129.5ZM87.4628 129.5H89.4734V128.5H87.4628V129.5ZM91.484 129.5H93.4947V128.5H91.484V129.5ZM95.5053 129.5H97.5159V128.5H95.5053V129.5ZM99.5266 129.5H101.537V128.5H99.5266V129.5ZM103.548 129.5H105.558V128.5H103.548V129.5ZM107.569 129.5H109.58V128.5H107.569V129.5ZM111.59 129.5H113.601V128.5H111.59V129.5ZM115.612 129.5H117.622V128.5H115.612V129.5ZM119.633 129.5H121.644V128.5H119.633V129.5ZM123.654 129.5H125.665V128.5H123.654V129.5ZM127.675 129.5H129.686V128.5H127.675V129.5ZM131.697 129.5H133.707V128.5H131.697V129.5ZM135.718 129.5H137.729V128.5H135.718V129.5ZM139.739 129.5H141.75V128.5H139.739V129.5ZM143.761 129.5H145.771V128.5H143.761V129.5ZM147.782 129.5H149.792V128.5H147.782V129.5ZM151.803 129.5H153.814V128.5H151.803V129.5ZM155.824 129.5H157.835V128.5H155.824V129.5ZM159.846 129.5H161.856V128.5H159.846V129.5ZM163.867 129.5H165.878V128.5H163.867V129.5ZM167.888 129.5H169.899V128.5H167.888V129.5ZM171.909 129.5H173.92V128.5L171.909 128.5V129.5ZM175.931 129.5H177.941V128.5H175.931V129.5ZM179.952 129.5H181.963V128.5H179.952V129.5ZM183.973 129.5H185.984V128.5H183.973V129.5Z" fill="#FF0000"/>
<path d="M95 224L97.8868 219H92.1132L95 224ZM95 36L92.1132 41H97.8868L95 36ZM95.5 221V219H94.5V221H95.5ZM95.5 217V215H94.5V217H95.5ZM95.5 213V211H94.5V213H95.5ZM95.5 209V207H94.5V209H95.5ZM95.5 205V203H94.5V205H95.5ZM95.5 201V199H94.5V201H95.5ZM95.5 197V195H94.5V197H95.5ZM95.5 193V191H94.5V193H95.5ZM95.5 189V187H94.5V189H95.5ZM95.5 185V183H94.5V185H95.5ZM95.5 181V179H94.5V181H95.5ZM95.5 177V175H94.5V177H95.5ZM95.5 173V171H94.5V173H95.5ZM95.5 169V167H94.5V169H95.5ZM95.5 165V163H94.5V165H95.5ZM95.5 161V159H94.5V161H95.5ZM95.5 157V155H94.5V157H95.5ZM95.5 153V151H94.5V153H95.5ZM95.5 149V147H94.5V149H95.5ZM95.5 145V143H94.5V145H95.5ZM95.5 141V139H94.5V141H95.5ZM95.5 137V135H94.5V137H95.5ZM95.5 133V131H94.5V133H95.5ZM95.5 129V127H94.5V129H95.5ZM95.5 125V123H94.5V125H95.5ZM95.5 121V119H94.5V121H95.5ZM95.5 117V115H94.5V117H95.5ZM95.5 113V111H94.5V113H95.5ZM95.5 109L95.5 107H94.5L94.5 109H95.5ZM95.5 105V103H94.5V105H95.5ZM95.5 101V99H94.5V101H95.5ZM95.5 97V95H94.5V97H95.5ZM95.5 93V91H94.5V93H95.5ZM95.5 89V87H94.5V89H95.5ZM95.5 85V83H94.5V85H95.5ZM95.5 81V79H94.5V81H95.5ZM95.5 77V75H94.5V77H95.5ZM95.5 73V71H94.5V73H95.5ZM95.5 69V67H94.5V69H95.5ZM95.5 65V63H94.5V65H95.5ZM95.5 61V59H94.5V61H95.5ZM95.5 57V55H94.5V57H95.5ZM95.5 53V51H94.5V53H95.5ZM95.5 49V47H94.5V49H95.5ZM95.5 45V43H94.5V45H95.5ZM95.5 41V39H94.5V41H95.5Z" fill="#FF0000"/>
<circle cx="95.5" cy="128.5" r="2.5" fill="black"/>
<circle cx="145.5" cy="56.4999" r="2.5" fill="#0039CD"/>
<circle cx="159.5" cy="65.4999" r="2.5" fill="#0039CD"/>
<circle cx="168.5" cy="58.4999" r="2.5" fill="#0039CD"/>
<circle cx="165.5" cy="82.4999" r="2.5" fill="#0039CD"/>
<circle cx="105.5" cy="111.5" r="2.5" fill="#00CD00"/>
<circle cx="122.5" cy="122.5" r="2.5" fill="#00CD00"/>
<circle cx="133.5" cy="107.5" r="2.5" fill="#00CD00"/>
<circle cx="155.5" cy="117.5" r="2.5" fill="#00CD00"/>
<circle cx="145.5" cy="81.5" r="2.5" fill="#00CD00"/>
<circle cx="105.5" cy="75.4999" r="2.5" fill="#00CD00"/>
<circle cx="116.5" cy="64.5" r="2.5" fill="#00CD00"/>
<circle cx="125.5" cy="80.5" r="2.5" fill="#00CD00"/>
<circle cx="149.5" cy="101.5" r="2.5" fill="#00CD00"/>
<circle cx="115.5" cy="94.4999" r="2.5" fill="#00CD00"/>
<circle cx="26.5" cy="236.5" r="2.5" fill="#00CD00"/>
<path d="M38.8313 232.455V239H37.6456V232.455H38.8313ZM41.2211 236.124V239H40.0642V234.091H41.17V234.925H41.2275C41.3405 234.65 41.5205 234.432 41.7677 234.27C42.017 234.108 42.3248 234.027 42.6913 234.027C43.0301 234.027 43.3252 234.099 43.5766 234.244C43.8302 234.389 44.0262 234.599 44.1647 234.874C44.3053 235.149 44.3746 235.482 44.3724 235.874V239H43.2155V236.053C43.2155 235.725 43.1302 235.468 42.9598 235.283C42.7915 235.098 42.5581 235.005 42.2599 235.005C42.0574 235.005 41.8774 235.05 41.7197 235.139C41.5642 235.227 41.4417 235.353 41.3522 235.52C41.2648 235.686 41.2211 235.887 41.2211 236.124ZM49.4285 235.388L48.3738 235.504C48.344 235.397 48.2918 235.297 48.2172 235.203C48.1448 235.109 48.0468 235.034 47.9232 234.976C47.7996 234.919 47.6483 234.89 47.4694 234.89C47.2286 234.89 47.0262 234.942 46.8621 235.047C46.7002 235.151 46.6203 235.286 46.6224 235.452C46.6203 235.595 46.6725 235.711 46.779 235.801C46.8877 235.89 47.0667 235.964 47.316 236.021L48.1533 236.2C48.6178 236.3 48.963 236.459 49.1888 236.676C49.4168 236.894 49.5319 237.178 49.534 237.53C49.5319 237.839 49.4413 238.112 49.2623 238.348C49.0855 238.582 48.8394 238.766 48.5241 238.898C48.2087 239.03 47.8465 239.096 47.4374 239.096C46.8366 239.096 46.3529 238.97 45.9864 238.719C45.6199 238.465 45.4015 238.113 45.3312 237.661L46.4594 237.552C46.5106 237.774 46.6192 237.941 46.7854 238.054C46.9516 238.167 47.1679 238.223 47.4342 238.223C47.7091 238.223 47.9296 238.167 48.0958 238.054C48.2641 237.941 48.3483 237.801 48.3483 237.635C48.3483 237.495 48.2939 237.379 48.1853 237.287C48.0787 237.195 47.9126 237.125 47.6867 237.076L46.8493 236.9C46.3785 236.802 46.0301 236.637 45.8042 236.405C45.5784 236.17 45.4665 235.874 45.4687 235.516C45.4665 235.214 45.5486 234.952 45.7148 234.73C45.8831 234.506 46.1164 234.334 46.4147 234.212C46.7151 234.089 47.0613 234.027 47.4534 234.027C48.0287 234.027 48.4814 234.15 48.8117 234.395C49.1441 234.64 49.3497 234.971 49.4285 235.388ZM50.488 239V234.091H51.645V239H50.488ZM51.0697 233.394C50.8865 233.394 50.7288 233.333 50.5967 233.212C50.4646 233.088 50.3985 232.94 50.3985 232.768C50.3985 232.593 50.4646 232.445 50.5967 232.324C50.7288 232.2 50.8865 232.138 51.0697 232.138C51.2551 232.138 51.4127 232.2 51.5427 232.324C51.6748 232.445 51.7409 232.593 51.7409 232.768C51.7409 232.94 51.6748 233.088 51.5427 233.212C51.4127 233.333 51.2551 233.394 51.0697 233.394ZM54.6564 239.086C54.2708 239.086 53.9256 238.987 53.6209 238.789C53.3162 238.591 53.0755 238.303 52.8986 237.926C52.7218 237.549 52.6333 237.091 52.6333 236.552C52.6333 236.006 52.7228 235.546 52.9018 235.171C53.0829 234.794 53.3269 234.51 53.6337 234.318C53.9405 234.124 54.2825 234.027 54.6596 234.027C54.9473 234.027 55.1838 234.076 55.3691 234.174C55.5545 234.27 55.7015 234.386 55.8102 234.522C55.9189 234.657 56.003 234.783 56.0627 234.903H56.1106V232.455H57.2708V239H56.133V238.227H56.0627C56.003 238.346 55.9167 238.473 55.8038 238.607C55.6909 238.739 55.5417 238.852 55.3564 238.946C55.171 239.039 54.9377 239.086 54.6564 239.086ZM54.9792 238.137C55.2243 238.137 55.4331 238.071 55.6056 237.939C55.7782 237.805 55.9093 237.618 55.9988 237.38C56.0882 237.141 56.133 236.863 56.133 236.545C56.133 236.228 56.0882 235.952 55.9988 235.718C55.9114 235.483 55.7814 235.301 55.6088 235.171C55.4384 235.041 55.2285 234.976 54.9792 234.976C54.7214 234.976 54.5062 235.043 54.3336 235.178C54.161 235.312 54.0311 235.497 53.9437 235.734C53.8564 235.97 53.8127 236.241 53.8127 236.545C53.8127 236.852 53.8564 237.126 53.9437 237.367C54.0332 237.605 54.1642 237.794 54.3368 237.933C54.5115 238.069 54.7257 238.137 54.9792 238.137ZM60.6769 239.096C60.1847 239.096 59.7597 238.994 59.4017 238.789C59.0459 238.582 58.7721 238.29 58.5803 237.913C58.3886 237.534 58.2927 237.088 58.2927 236.574C58.2927 236.069 58.3886 235.626 58.5803 235.245C58.7742 234.861 59.0448 234.563 59.3921 234.35C59.7394 234.135 60.1475 234.027 60.6162 234.027C60.9188 234.027 61.2043 234.076 61.4727 234.174C61.7433 234.27 61.982 234.419 62.1887 234.621C62.3975 234.824 62.5615 235.082 62.6808 235.395C62.8002 235.706 62.8598 236.077 62.8598 236.507V236.862H58.836V236.082H61.7508C61.7487 235.86 61.7007 235.663 61.607 235.491C61.5132 235.316 61.3822 235.179 61.2139 235.078C61.0477 234.978 60.8538 234.928 60.6322 234.928C60.3957 234.928 60.1879 234.986 60.009 235.101C59.83 235.214 59.6904 235.363 59.5903 235.548C59.4923 235.732 59.4422 235.933 59.4401 236.152V236.833C59.4401 237.119 59.4923 237.364 59.5967 237.568C59.7011 237.771 59.847 237.926 60.0345 238.035C60.222 238.141 60.4415 238.195 60.6929 238.195C60.8612 238.195 61.0136 238.171 61.1499 238.124C61.2863 238.075 61.4046 238.004 61.5047 237.91C61.6048 237.816 61.6805 237.7 61.7316 237.562L62.8119 237.683C62.7437 237.969 62.6137 238.218 62.422 238.431C62.2323 238.642 61.9894 238.806 61.6933 238.923C61.3971 239.038 61.0583 239.096 60.6769 239.096ZM68.5224 234.091V234.986H65.7003V234.091H68.5224ZM66.397 232.915H67.554V237.523C67.554 237.679 67.5774 237.798 67.6243 237.881C67.6733 237.962 67.7372 238.018 67.8161 238.048C67.8949 238.077 67.9822 238.092 68.0781 238.092C68.1506 238.092 68.2166 238.087 68.2763 238.076C68.3381 238.066 68.3849 238.056 68.4169 238.048L68.6119 238.952C68.5501 238.973 68.4616 238.997 68.3466 239.022C68.2337 239.048 68.0952 239.063 67.9311 239.067C67.6413 239.076 67.3803 239.032 67.1481 238.936C66.9158 238.838 66.7315 238.687 66.5952 238.482C66.4609 238.278 66.3949 238.022 66.397 237.715V232.915ZM70.7524 236.124V239H69.5954V232.455H70.7268V234.925H70.7844C70.8994 234.648 71.0773 234.43 71.3181 234.27C71.561 234.108 71.8699 234.027 72.2449 234.027C72.5858 234.027 72.8831 234.098 73.1366 234.241C73.3902 234.384 73.5862 234.593 73.7247 234.868C73.8653 235.142 73.9356 235.478 73.9356 235.874V239H72.7787V236.053C72.7787 235.723 72.6934 235.466 72.523 235.283C72.3547 235.098 72.1182 235.005 71.8135 235.005C71.6089 235.005 71.4257 235.05 71.2638 235.139C71.104 235.227 70.9782 235.353 70.8866 235.52C70.7971 235.686 70.7524 235.887 70.7524 236.124ZM77.2883 239.096C76.7961 239.096 76.371 238.994 76.0131 238.789C75.6572 238.582 75.3834 238.29 75.1917 237.913C74.9999 237.534 74.904 237.088 74.904 236.574C74.904 236.069 74.9999 235.626 75.1917 235.245C75.3856 234.861 75.6562 234.563 76.0035 234.35C76.3508 234.135 76.7588 234.027 77.2275 234.027C77.5301 234.027 77.8156 234.076 78.0841 234.174C78.3547 234.27 78.5933 234.419 78.8 234.621C79.0088 234.824 79.1729 235.082 79.2922 235.395C79.4115 235.706 79.4711 236.077 79.4711 236.507V236.862H75.4474V236.082H78.3621C78.36 235.86 78.3121 235.663 78.2183 235.491C78.1246 235.316 77.9935 235.179 77.8252 235.078C77.659 234.978 77.4651 234.928 77.2435 234.928C77.007 234.928 76.7993 234.986 76.6203 235.101C76.4413 235.214 76.3018 235.363 76.2016 235.548C76.1036 235.732 76.0535 235.933 76.0514 236.152V236.833C76.0514 237.119 76.1036 237.364 76.208 237.568C76.3124 237.771 76.4584 237.926 76.6459 238.035C76.8334 238.141 77.0528 238.195 77.3042 238.195C77.4726 238.195 77.6249 238.171 77.7613 238.124C77.8976 238.075 78.0159 238.004 78.116 237.91C78.2162 237.816 78.2918 237.7 78.343 237.562L79.4232 237.683C79.355 237.969 79.2251 238.218 79.0333 238.431C78.8437 238.642 78.6008 238.806 78.3046 238.923C78.0084 239.038 77.6697 239.096 77.2883 239.096ZM84.8237 239.096C84.3336 239.096 83.9128 238.988 83.5613 238.773C83.2118 238.558 82.9423 238.261 82.7527 237.881C82.5652 237.5 82.4714 237.061 82.4714 236.565C82.4714 236.066 82.5673 235.626 82.7591 235.245C82.9508 234.861 83.2214 234.563 83.5708 234.35C83.9224 234.135 84.3379 234.027 84.8173 234.027C85.2157 234.027 85.5684 234.1 85.8752 234.248C86.1841 234.392 86.4302 234.598 86.6135 234.864C86.7967 235.129 86.9011 235.437 86.9267 235.791H85.8208C85.7761 235.555 85.6696 235.358 85.5012 235.2C85.335 235.04 85.1124 234.96 84.8333 234.96C84.5968 234.96 84.389 235.024 84.21 235.152C84.0311 235.278 83.8915 235.459 83.7914 235.695C83.6934 235.932 83.6444 236.215 83.6444 236.545C83.6444 236.88 83.6934 237.168 83.7914 237.408C83.8894 237.647 84.0268 237.831 84.2037 237.961C84.3826 238.089 84.5925 238.153 84.8333 238.153C85.0037 238.153 85.1561 238.121 85.2903 238.057C85.4267 237.991 85.5407 237.896 85.6323 237.773C85.7239 237.649 85.7868 237.499 85.8208 237.322H86.9267C86.899 237.669 86.7967 237.977 86.6199 238.246C86.443 238.512 86.2022 238.721 85.8975 238.872C85.5929 239.021 85.2349 239.096 84.8237 239.096ZM87.8767 239V234.091H89.0336V239H87.8767ZM88.4584 233.394C88.2751 233.394 88.1175 233.333 87.9854 233.212C87.8532 233.088 87.7872 232.94 87.7872 232.768C87.7872 232.593 87.8532 232.445 87.9854 232.324C88.1175 232.2 88.2751 232.138 88.4584 232.138C88.6437 232.138 88.8014 232.2 88.9314 232.324C89.0635 232.445 89.1295 232.593 89.1295 232.768C89.1295 232.94 89.0635 233.088 88.9314 233.212C88.8014 233.333 88.6437 233.394 88.4584 233.394ZM90.2234 239V234.091H91.3452V234.909H91.3963C91.4858 234.626 91.6392 234.407 91.8565 234.254C92.076 234.098 92.3263 234.021 92.6076 234.021C92.6715 234.021 92.7429 234.024 92.8217 234.03C92.9027 234.034 92.9698 234.042 93.0231 234.053V235.117C92.9741 235.1 92.8963 235.085 92.7898 235.072C92.6854 235.057 92.5842 235.05 92.4862 235.05C92.2752 235.05 92.0856 235.096 91.9173 235.187C91.7511 235.277 91.62 235.401 91.5241 235.561C91.4283 235.721 91.3803 235.905 91.3803 236.114V239H90.2234ZM95.7309 239.096C95.2409 239.096 94.82 238.988 94.4685 238.773C94.1191 238.558 93.8495 238.261 93.6599 237.881C93.4724 237.5 93.3786 237.061 93.3786 236.565C93.3786 236.066 93.4745 235.626 93.6663 235.245C93.858 234.861 94.1286 234.563 94.4781 234.35C94.8296 234.135 95.2451 234.027 95.7245 234.027C96.123 234.027 96.4756 234.1 96.7824 234.248C97.0914 234.392 97.3374 234.598 97.5207 234.864C97.7039 235.129 97.8083 235.437 97.8339 235.791H96.7281C96.6833 235.555 96.5768 235.358 96.4085 235.2C96.2423 235.04 96.0196 234.96 95.7405 234.96C95.504 234.96 95.2963 235.024 95.1173 235.152C94.9383 235.278 94.7987 235.459 94.6986 235.695C94.6006 235.932 94.5516 236.215 94.5516 236.545C94.5516 236.88 94.6006 237.168 94.6986 237.408C94.7966 237.647 94.934 237.831 95.1109 237.961C95.2899 238.089 95.4997 238.153 95.7405 238.153C95.911 238.153 96.0633 238.121 96.1975 238.057C96.3339 237.991 96.4479 237.896 96.5395 237.773C96.6311 237.649 96.694 237.499 96.7281 237.322H97.8339C97.8062 237.669 97.7039 237.977 97.5271 238.246C97.3502 238.512 97.1095 238.721 96.8048 238.872C96.5001 239.021 96.1421 239.096 95.7309 239.096ZM99.9409 232.455V239H98.7839V232.455H99.9409ZM103.304 239.096C102.812 239.096 102.387 238.994 102.029 238.789C101.673 238.582 101.399 238.29 101.207 237.913C101.016 237.534 100.92 237.088 100.92 236.574C100.92 236.069 101.016 235.626 101.207 235.245C101.401 234.861 101.672 234.563 102.019 234.35C102.366 234.135 102.774 234.027 103.243 234.027C103.546 234.027 103.831 234.076 104.1 234.174C104.37 234.27 104.609 234.419 104.816 234.621C105.024 234.824 105.188 235.082 105.308 235.395C105.427 235.706 105.487 236.077 105.487 236.507V236.862H101.463V236.082H104.378C104.376 235.86 104.328 235.663 104.234 235.491C104.14 235.316 104.009 235.179 103.841 235.078C103.675 234.978 103.481 234.928 103.259 234.928C103.023 234.928 102.815 234.986 102.636 235.101C102.457 235.214 102.317 235.363 102.217 235.548C102.119 235.732 102.069 235.933 102.067 236.152V236.833C102.067 237.119 102.119 237.364 102.224 237.568C102.328 237.771 102.474 237.926 102.661 238.035C102.849 238.141 103.068 238.195 103.32 238.195C103.488 238.195 103.641 238.171 103.777 238.124C103.913 238.075 104.032 238.004 104.132 237.91C104.232 237.816 104.307 237.7 104.359 237.562L105.439 237.683C105.371 237.969 105.241 238.218 105.049 238.431C104.859 238.642 104.616 238.806 104.32 238.923C104.024 239.038 103.685 239.096 103.304 239.096ZM108.986 236.331C108.986 235.532 109.091 234.798 109.302 234.129C109.515 233.458 109.831 232.838 110.251 232.269H111.341C111.179 232.48 111.028 232.739 110.887 233.046C110.747 233.35 110.624 233.685 110.52 234.049C110.417 234.412 110.336 234.788 110.277 235.178C110.219 235.567 110.191 235.952 110.191 236.331C110.191 236.836 110.241 237.348 110.341 237.865C110.443 238.383 110.58 238.863 110.753 239.304C110.928 239.747 111.124 240.109 111.341 240.39H110.251C109.831 239.821 109.515 239.202 109.302 238.533C109.091 237.862 108.986 237.128 108.986 236.331ZM112.291 239V232.455H113.477V235.225H116.51V232.455H117.699V239H116.51V236.219H113.477V239H112.291ZM118.937 239V234.091H120.094V239H118.937ZM119.519 233.394C119.336 233.394 119.178 233.333 119.046 233.212C118.914 233.088 118.848 232.94 118.848 232.768C118.848 232.593 118.914 232.445 119.046 232.324C119.178 232.2 119.336 232.138 119.519 232.138C119.704 232.138 119.862 232.2 119.992 232.324C120.124 232.445 120.19 232.593 120.19 232.768C120.19 232.94 120.124 233.088 119.992 233.212C119.862 233.333 119.704 233.394 119.519 233.394ZM123.735 234.091V234.986H120.913V234.091H123.735ZM121.61 232.915H122.767V237.523C122.767 237.679 122.79 237.798 122.837 237.881C122.886 237.962 122.95 238.018 123.029 238.048C123.108 238.077 123.195 238.092 123.291 238.092C123.363 238.092 123.43 238.087 123.489 238.076C123.551 238.066 123.598 238.056 123.63 238.048L123.825 238.952C123.763 238.973 123.675 238.997 123.559 239.022C123.447 239.048 123.308 239.063 123.144 239.067C122.854 239.076 122.593 239.032 122.361 238.936C122.129 238.838 121.944 238.687 121.808 238.482C121.674 238.278 121.608 238.022 121.61 237.715V232.915ZM126.767 236.331C126.767 237.128 126.661 237.862 126.448 238.533C126.237 239.202 125.922 239.821 125.502 240.39H124.412C124.576 240.179 124.727 239.922 124.866 239.617C125.006 239.312 125.128 238.978 125.23 238.613C125.335 238.249 125.416 237.872 125.473 237.482C125.533 237.092 125.563 236.708 125.563 236.331C125.563 235.826 125.511 235.315 125.409 234.797C125.309 234.279 125.172 233.799 124.997 233.356C124.824 232.913 124.629 232.55 124.412 232.269H125.502C125.922 232.838 126.237 233.458 126.448 234.129C126.661 234.798 126.767 235.532 126.767 236.331Z" fill="black"/>
<circle cx="26.5" cy="251.5" r="2.5" fill="#0039CD"/>
<path d="M43.4943 250.727C43.4943 251.433 43.3622 252.037 43.098 252.539C42.8359 253.04 42.478 253.424 42.0241 253.69C41.5724 253.956 41.06 254.089 40.4869 254.089C39.9137 254.089 39.4002 253.956 38.9464 253.69C38.4947 253.422 38.1367 253.037 37.8725 252.536C37.6104 252.033 37.4794 251.43 37.4794 250.727C37.4794 250.022 37.6104 249.419 37.8725 248.918C38.1367 248.415 38.4947 248.031 38.9464 247.765C39.4002 247.498 39.9137 247.365 40.4869 247.365C41.06 247.365 41.5724 247.498 42.0241 247.765C42.478 248.031 42.8359 248.415 43.098 248.918C43.3622 249.419 43.4943 250.022 43.4943 250.727ZM42.3022 250.727C42.3022 250.231 42.2244 249.812 42.0689 249.471C41.9155 249.128 41.7024 248.869 41.4297 248.695C41.157 248.518 40.8427 248.429 40.4869 248.429C40.131 248.429 39.8168 248.518 39.544 248.695C39.2713 248.869 39.0572 249.128 38.9016 249.471C38.7482 249.812 38.6715 250.231 38.6715 250.727C38.6715 251.224 38.7482 251.643 38.9016 251.987C39.0572 252.327 39.2713 252.586 39.544 252.763C39.8168 252.938 40.131 253.025 40.4869 253.025C40.8427 253.025 41.157 252.938 41.4297 252.763C41.7024 252.586 41.9155 252.327 42.0689 251.987C42.2244 251.643 42.3022 251.224 42.3022 250.727ZM47.6931 251.935V249.091H48.8501V254H47.7282V253.127H47.6771C47.5663 253.402 47.3841 253.627 47.1306 253.802C46.8792 253.977 46.5692 254.064 46.2006 254.064C45.8788 254.064 45.5944 253.993 45.3472 253.85C45.1022 253.705 44.9104 253.495 44.7719 253.22C44.6334 252.943 44.5642 252.609 44.5642 252.217V249.091H45.7211V252.038C45.7211 252.349 45.8064 252.596 45.9768 252.779C46.1473 252.962 46.371 253.054 46.648 253.054C46.8184 253.054 46.9836 253.012 47.1434 252.929C47.3032 252.846 47.4342 252.723 47.5365 252.559C47.6409 252.392 47.6931 252.185 47.6931 251.935ZM52.4911 249.091V249.986H49.669V249.091H52.4911ZM50.3658 247.915H51.5227V252.523C51.5227 252.679 51.5462 252.798 51.593 252.881C51.642 252.962 51.706 253.018 51.7848 253.048C51.8636 253.077 51.951 253.092 52.0469 253.092C52.1193 253.092 52.1854 253.087 52.245 253.076C52.3068 253.066 52.3537 253.056 52.3857 253.048L52.5806 253.952C52.5188 253.973 52.4304 253.997 52.3153 254.022C52.2024 254.048 52.0639 254.063 51.8999 254.067C51.6101 254.076 51.3491 254.032 51.1168 253.936C50.8846 253.838 50.7003 253.687 50.5639 253.482C50.4297 253.278 50.3636 253.022 50.3658 252.715V247.915ZM57.2684 250.388L56.2137 250.504C56.1839 250.397 56.1317 250.297 56.0571 250.203C55.9846 250.109 55.8866 250.034 55.7631 249.976C55.6395 249.919 55.4882 249.89 55.3092 249.89C55.0684 249.89 54.866 249.942 54.702 250.047C54.54 250.151 54.4601 250.286 54.4623 250.452C54.4601 250.595 54.5123 250.711 54.6189 250.801C54.7275 250.89 54.9065 250.964 55.1558 251.021L55.9932 251.2C56.4577 251.3 56.8028 251.459 57.0287 251.676C57.2567 251.894 57.3717 252.178 57.3738 252.53C57.3717 252.839 57.2812 253.112 57.1022 253.348C56.9253 253.582 56.6792 253.766 56.3639 253.898C56.0486 254.03 55.6863 254.096 55.2773 254.096C54.6764 254.096 54.1927 253.97 53.8263 253.719C53.4598 253.465 53.2414 253.113 53.1711 252.661L54.2993 252.552C54.3504 252.774 54.4591 252.941 54.6253 253.054C54.7915 253.167 55.0077 253.223 55.2741 253.223C55.5489 253.223 55.7694 253.167 55.9356 253.054C56.104 252.941 56.1881 252.801 56.1881 252.635C56.1881 252.495 56.1338 252.379 56.0251 252.287C55.9186 252.195 55.7524 252.125 55.5265 252.076L54.6892 251.9C54.2183 251.802 53.8699 251.637 53.6441 251.405C53.4182 251.17 53.3064 250.874 53.3085 250.516C53.3064 250.214 53.3884 249.952 53.5546 249.73C53.7229 249.506 53.9562 249.334 54.2545 249.212C54.555 249.089 54.9012 249.027 55.2932 249.027C55.8685 249.027 56.3213 249.15 56.6515 249.395C56.9839 249.64 57.1895 249.971 57.2684 250.388ZM58.3279 254V249.091H59.4848V254H58.3279ZM58.9095 248.394C58.7263 248.394 58.5686 248.333 58.4365 248.212C58.3044 248.088 58.2384 247.94 58.2384 247.768C58.2384 247.593 58.3044 247.445 58.4365 247.324C58.5686 247.2 58.7263 247.138 58.9095 247.138C59.0949 247.138 59.2526 247.2 59.3825 247.324C59.5146 247.445 59.5807 247.593 59.5807 247.768C59.5807 247.94 59.5146 248.088 59.3825 248.212C59.2526 248.333 59.0949 248.394 58.9095 248.394ZM62.4963 254.086C62.1106 254.086 61.7654 253.987 61.4608 253.789C61.1561 253.591 60.9153 253.303 60.7385 252.926C60.5616 252.549 60.4732 252.091 60.4732 251.552C60.4732 251.006 60.5627 250.546 60.7417 250.171C60.9228 249.794 61.1667 249.51 61.4735 249.318C61.7804 249.124 62.1223 249.027 62.4995 249.027C62.7871 249.027 63.0236 249.076 63.209 249.174C63.3944 249.27 63.5414 249.386 63.65 249.522C63.7587 249.657 63.8429 249.783 63.9025 249.903H63.9505V247.455H65.1106V254H63.9728V253.227H63.9025C63.8429 253.346 63.7566 253.473 63.6436 253.607C63.5307 253.739 63.3816 253.852 63.1962 253.946C63.0108 254.039 62.7775 254.086 62.4963 254.086ZM62.8191 253.137C63.0641 253.137 63.2729 253.071 63.4455 252.939C63.6181 252.805 63.7491 252.618 63.8386 252.38C63.9281 252.141 63.9728 251.863 63.9728 251.545C63.9728 251.228 63.9281 250.952 63.8386 250.718C63.7512 250.483 63.6213 250.301 63.4487 250.171C63.2782 250.041 63.0684 249.976 62.8191 249.976C62.5613 249.976 62.3461 250.043 62.1735 250.178C62.0009 250.312 61.8709 250.497 61.7836 250.734C61.6962 250.97 61.6525 251.241 61.6525 251.545C61.6525 251.852 61.6962 252.126 61.7836 252.367C61.873 252.605 62.0041 252.794 62.1767 252.933C62.3514 253.069 62.5655 253.137 62.8191 253.137ZM68.5168 254.096C68.0246 254.096 67.5995 253.994 67.2416 253.789C66.8857 253.582 66.6119 253.29 66.4202 252.913C66.2284 252.534 66.1325 252.088 66.1325 251.574C66.1325 251.069 66.2284 250.626 66.4202 250.245C66.6141 249.861 66.8847 249.563 67.232 249.35C67.5793 249.135 67.9873 249.027 68.4561 249.027C68.7586 249.027 69.0441 249.076 69.3126 249.174C69.5832 249.27 69.8218 249.419 70.0285 249.621C70.2373 249.824 70.4014 250.082 70.5207 250.395C70.64 250.706 70.6997 251.077 70.6997 251.507V251.862H66.6759V251.082H69.5906C69.5885 250.86 69.5406 250.663 69.4468 250.491C69.3531 250.316 69.222 250.179 69.0537 250.078C68.8875 249.978 68.6936 249.928 68.472 249.928C68.2355 249.928 68.0278 249.986 67.8488 250.101C67.6698 250.214 67.5303 250.363 67.4301 250.548C67.3321 250.732 67.282 250.933 67.2799 251.152V251.833C67.2799 252.119 67.3321 252.364 67.4365 252.568C67.5409 252.771 67.6869 252.926 67.8744 253.035C68.0619 253.141 68.2813 253.195 68.5328 253.195C68.7011 253.195 68.8534 253.171 68.9898 253.124C69.1262 253.075 69.2444 253.004 69.3445 252.91C69.4447 252.816 69.5203 252.7 69.5715 252.562L70.6517 252.683C70.5835 252.969 70.4536 253.218 70.2618 253.431C70.0722 253.642 69.8293 253.806 69.5331 253.923C69.2369 254.038 68.8982 254.096 68.5168 254.096ZM76.3622 249.091V249.986H73.5401V249.091H76.3622ZM74.2369 247.915H75.3938V252.523C75.3938 252.679 75.4173 252.798 75.4641 252.881C75.5131 252.962 75.5771 253.018 75.6559 253.048C75.7347 253.077 75.8221 253.092 75.918 253.092C75.9904 253.092 76.0565 253.087 76.1161 253.076C76.1779 253.066 76.2248 253.056 76.2567 253.048L76.4517 253.952C76.3899 253.973 76.3015 253.997 76.1864 254.022C76.0735 254.048 75.935 254.063 75.771 254.067C75.4812 254.076 75.2202 254.032 74.9879 253.936C74.7557 253.838 74.5714 253.687 74.435 253.482C74.3008 253.278 74.2347 253.022 74.2369 252.715V247.915ZM78.5922 251.124V254H77.4353V247.455H78.5667V249.925H78.6242C78.7393 249.648 78.9172 249.43 79.1579 249.27C79.4008 249.108 79.7098 249.027 80.0848 249.027C80.4257 249.027 80.7229 249.098 80.9765 249.241C81.23 249.384 81.426 249.593 81.5645 249.868C81.7052 250.142 81.7755 250.478 81.7755 250.874V254H80.6185V251.053C80.6185 250.723 80.5333 250.466 80.3628 250.283C80.1945 250.098 79.958 250.005 79.6533 250.005C79.4488 250.005 79.2655 250.05 79.1036 250.139C78.9438 250.227 78.8181 250.353 78.7265 250.52C78.637 250.686 78.5922 250.887 78.5922 251.124ZM85.1281 254.096C84.6359 254.096 84.2108 253.994 83.8529 253.789C83.4971 253.582 83.2233 253.29 83.0315 252.913C82.8398 252.534 82.7439 252.088 82.7439 251.574C82.7439 251.069 82.8398 250.626 83.0315 250.245C83.2254 249.861 83.496 249.563 83.8433 249.35C84.1906 249.135 84.5986 249.027 85.0674 249.027C85.3699 249.027 85.6555 249.076 85.9239 249.174C86.1945 249.27 86.4332 249.419 86.6398 249.621C86.8486 249.824 87.0127 250.082 87.132 250.395C87.2513 250.706 87.311 251.077 87.311 251.507V251.862H83.2872V251.082H86.202C86.1998 250.86 86.1519 250.663 86.0582 250.491C85.9644 250.316 85.8334 250.179 85.665 250.078C85.4988 249.978 85.305 249.928 85.0834 249.928C84.8469 249.928 84.6391 249.986 84.4601 250.101C84.2812 250.214 84.1416 250.363 84.0415 250.548C83.9434 250.732 83.8934 250.933 83.8912 251.152V251.833C83.8912 252.119 83.9434 252.364 84.0479 252.568C84.1523 252.771 84.2982 252.926 84.4857 253.035C84.6732 253.141 84.8927 253.195 85.1441 253.195C85.3124 253.195 85.4648 253.171 85.6011 253.124C85.7375 253.075 85.8557 253.004 85.9559 252.91C86.056 252.816 86.1317 252.7 86.1828 252.562L87.2631 252.683C87.1949 252.969 87.0649 253.218 86.8731 253.431C86.6835 253.642 86.4406 253.806 86.1444 253.923C85.8483 254.038 85.5095 254.096 85.1281 254.096ZM92.6635 254.096C92.1735 254.096 91.7527 253.988 91.4011 253.773C91.0517 253.558 90.7821 253.261 90.5925 252.881C90.405 252.5 90.3113 252.061 90.3113 251.565C90.3113 251.066 90.4071 250.626 90.5989 250.245C90.7907 249.861 91.0613 249.563 91.4107 249.35C91.7623 249.135 92.1777 249.027 92.6571 249.027C93.0556 249.027 93.4082 249.1 93.715 249.248C94.024 249.392 94.2701 249.598 94.4533 249.864C94.6365 250.129 94.7409 250.437 94.7665 250.791H93.6607C93.6159 250.555 93.5094 250.358 93.3411 250.2C93.1749 250.04 92.9522 249.96 92.6731 249.96C92.4366 249.96 92.2289 250.024 92.0499 250.152C91.8709 250.278 91.7314 250.459 91.6312 250.695C91.5332 250.932 91.4842 251.215 91.4842 251.545C91.4842 251.88 91.5332 252.168 91.6312 252.408C91.7292 252.647 91.8667 252.831 92.0435 252.961C92.2225 253.089 92.4324 253.153 92.6731 253.153C92.8436 253.153 92.9959 253.121 93.1301 253.057C93.2665 252.991 93.3805 252.896 93.4721 252.773C93.5637 252.649 93.6266 252.499 93.6607 252.322H94.7665C94.7388 252.669 94.6365 252.977 94.4597 253.246C94.2828 253.512 94.0421 253.721 93.7374 253.872C93.4327 254.021 93.0748 254.096 92.6635 254.096ZM95.7165 254V249.091H96.8735V254H95.7165ZM96.2982 248.394C96.115 248.394 95.9573 248.333 95.8252 248.212C95.6931 248.088 95.627 247.94 95.627 247.768C95.627 247.593 95.6931 247.445 95.8252 247.324C95.9573 247.2 96.115 247.138 96.2982 247.138C96.4836 247.138 96.6412 247.2 96.7712 247.324C96.9033 247.445 96.9694 247.593 96.9694 247.768C96.9694 247.94 96.9033 248.088 96.7712 248.212C96.6412 248.333 96.4836 248.394 96.2982 248.394ZM98.0632 254V249.091H99.185V249.909H99.2362C99.3256 249.626 99.479 249.407 99.6964 249.254C99.9158 249.098 100.166 249.021 100.447 249.021C100.511 249.021 100.583 249.024 100.662 249.03C100.743 249.034 100.81 249.042 100.863 249.053V250.117C100.814 250.1 100.736 250.085 100.63 250.072C100.525 250.057 100.424 250.05 100.326 250.05C100.115 250.05 99.9254 250.096 99.7571 250.187C99.5909 250.277 99.4599 250.401 99.364 250.561C99.2681 250.721 99.2202 250.905 99.2202 251.114V254H98.0632ZM103.571 254.096C103.081 254.096 102.66 253.988 102.308 253.773C101.959 253.558 101.689 253.261 101.5 252.881C101.312 252.5 101.218 252.061 101.218 251.565C101.218 251.066 101.314 250.626 101.506 250.245C101.698 249.861 101.968 249.563 102.318 249.35C102.669 249.135 103.085 249.027 103.564 249.027C103.963 249.027 104.315 249.1 104.622 249.248C104.931 249.392 105.177 249.598 105.361 249.864C105.544 250.129 105.648 250.437 105.674 250.791H104.568C104.523 250.555 104.417 250.358 104.248 250.2C104.082 250.04 103.859 249.96 103.58 249.96C103.344 249.96 103.136 250.024 102.957 250.152C102.778 250.278 102.639 250.459 102.538 250.695C102.44 250.932 102.391 251.215 102.391 251.545C102.391 251.88 102.44 252.168 102.538 252.408C102.636 252.647 102.774 252.831 102.951 252.961C103.13 253.089 103.34 253.153 103.58 253.153C103.751 253.153 103.903 253.121 104.037 253.057C104.174 252.991 104.288 252.896 104.379 252.773C104.471 252.649 104.534 252.499 104.568 252.322H105.674C105.646 252.669 105.544 252.977 105.367 253.246C105.19 253.512 104.949 253.721 104.645 253.872C104.34 254.021 103.982 254.096 103.571 254.096ZM107.781 247.455V254H106.624V247.455H107.781ZM111.144 254.096C110.652 254.096 110.226 253.994 109.869 253.789C109.513 253.582 109.239 253.29 109.047 252.913C108.855 252.534 108.759 252.088 108.759 251.574C108.759 251.069 108.855 250.626 109.047 250.245C109.241 249.861 109.512 249.563 109.859 249.35C110.206 249.135 110.614 249.027 111.083 249.027C111.386 249.027 111.671 249.076 111.94 249.174C112.21 249.27 112.449 249.419 112.655 249.621C112.864 249.824 113.028 250.082 113.148 250.395C113.267 250.706 113.327 251.077 113.327 251.507V251.862H109.303V251.082H112.218C112.215 250.86 112.168 250.663 112.074 250.491C111.98 250.316 111.849 250.179 111.681 250.078C111.514 249.978 111.321 249.928 111.099 249.928C110.862 249.928 110.655 249.986 110.476 250.101C110.297 250.214 110.157 250.363 110.057 250.548C109.959 250.732 109.909 250.933 109.907 251.152V251.833C109.907 252.119 109.959 252.364 110.063 252.568C110.168 252.771 110.314 252.926 110.501 253.035C110.689 253.141 110.908 253.195 111.16 253.195C111.328 253.195 111.48 253.171 111.617 253.124C111.753 253.075 111.871 253.004 111.972 252.91C112.072 252.816 112.147 252.7 112.198 252.562L113.279 252.683C113.21 252.969 113.081 253.218 112.889 253.431C112.699 253.642 112.456 253.806 112.16 253.923C111.864 254.038 111.525 254.096 111.144 254.096ZM116.825 250.727C116.825 249.928 116.931 249.194 117.142 248.525C117.355 247.854 117.671 247.234 118.091 246.665H119.181C119.019 246.876 118.868 247.135 118.727 247.442C118.586 247.746 118.464 248.081 118.36 248.445C118.257 248.808 118.176 249.184 118.117 249.574C118.059 249.963 118.03 250.348 118.03 250.727C118.03 251.232 118.08 251.744 118.181 252.261C118.283 252.779 118.42 253.26 118.593 253.703C118.768 254.144 118.964 254.505 119.181 254.786H118.091C117.671 254.217 117.355 253.598 117.142 252.929C116.931 252.258 116.825 251.524 116.825 250.727ZM120.131 247.455H121.582L123.525 252.197H123.602L125.545 247.455H126.996V254H125.858V249.503H125.797L123.989 253.981H123.138L121.329 249.494H121.269V254H120.131V247.455ZM128.236 254V249.091H129.393V254H128.236ZM128.818 248.394C128.634 248.394 128.477 248.333 128.345 248.212C128.213 248.088 128.147 247.94 128.147 247.768C128.147 247.593 128.213 247.445 128.345 247.324C128.477 247.2 128.634 247.138 128.818 247.138C129.003 247.138 129.161 247.2 129.291 247.324C129.423 247.445 129.489 247.593 129.489 247.768C129.489 247.94 129.423 248.088 129.291 248.212C129.161 248.333 129.003 248.394 128.818 248.394ZM134.463 250.388L133.408 250.504C133.378 250.397 133.326 250.297 133.251 250.203C133.179 250.109 133.081 250.034 132.957 249.976C132.834 249.919 132.683 249.89 132.504 249.89C132.263 249.89 132.06 249.942 131.896 250.047C131.734 250.151 131.654 250.286 131.657 250.452C131.654 250.595 131.707 250.711 131.813 250.801C131.922 250.89 132.101 250.964 132.35 251.021L133.188 251.2C133.652 251.3 133.997 251.459 134.223 251.676C134.451 251.894 134.566 252.178 134.568 252.53C134.566 252.839 134.475 253.112 134.297 253.348C134.12 253.582 133.874 253.766 133.558 253.898C133.243 254.03 132.881 254.096 132.472 254.096C131.871 254.096 131.387 253.97 131.021 253.719C130.654 253.465 130.436 253.113 130.365 252.661L131.494 252.552C131.545 252.774 131.653 252.941 131.82 253.054C131.986 253.167 132.202 253.223 132.468 253.223C132.743 253.223 132.964 253.167 133.13 253.054C133.298 252.941 133.382 252.801 133.382 252.635C133.382 252.495 133.328 252.379 133.219 252.287C133.113 252.195 132.947 252.125 132.721 252.076L131.884 251.9C131.413 251.802 131.064 251.637 130.838 251.405C130.613 251.17 130.501 250.874 130.503 250.516C130.501 250.214 130.583 249.952 130.749 249.73C130.917 249.506 131.151 249.334 131.449 249.212C131.749 249.089 132.096 249.027 132.488 249.027C133.063 249.027 133.516 249.15 133.846 249.395C134.178 249.64 134.384 249.971 134.463 250.388ZM139.402 250.388L138.347 250.504C138.318 250.397 138.265 250.297 138.191 250.203C138.118 250.109 138.02 250.034 137.897 249.976C137.773 249.919 137.622 249.89 137.443 249.89C137.202 249.89 137 249.942 136.836 250.047C136.674 250.151 136.594 250.286 136.596 250.452C136.594 250.595 136.646 250.711 136.753 250.801C136.861 250.89 137.04 250.964 137.29 251.021L138.127 251.2C138.591 251.3 138.937 251.459 139.162 251.676C139.39 251.894 139.506 252.178 139.508 252.53C139.506 252.839 139.415 253.112 139.236 253.348C139.059 253.582 138.813 253.766 138.498 253.898C138.182 254.03 137.82 254.096 137.411 254.096C136.81 254.096 136.327 253.97 135.96 253.719C135.594 253.465 135.375 253.113 135.305 252.661L136.433 252.552C136.484 252.774 136.593 252.941 136.759 253.054C136.925 253.167 137.142 253.223 137.408 253.223C137.683 253.223 137.903 253.167 138.069 253.054C138.238 252.941 138.322 252.801 138.322 252.635C138.322 252.495 138.268 252.379 138.159 252.287C138.052 252.195 137.886 252.125 137.66 252.076L136.823 251.9C136.352 251.802 136.004 251.637 135.778 251.405C135.552 251.17 135.44 250.874 135.442 250.516C135.44 250.214 135.522 249.952 135.688 249.73C135.857 249.506 136.09 249.334 136.388 249.212C136.689 249.089 137.035 249.027 137.427 249.027C138.002 249.027 138.455 249.15 138.785 249.395C139.118 249.64 139.323 249.971 139.402 250.388ZM142.526 251.331C142.526 252.128 142.42 252.862 142.207 253.533C141.996 254.202 141.68 254.821 141.261 255.39H140.171C140.335 255.179 140.486 254.922 140.625 254.617C140.765 254.312 140.887 253.978 140.989 253.613C141.093 253.249 141.174 252.872 141.232 252.482C141.292 252.092 141.321 251.708 141.321 251.331C141.321 250.826 141.27 250.315 141.168 249.797C141.068 249.279 140.93 248.799 140.756 248.356C140.583 247.913 140.388 247.55 140.171 247.269H141.261C141.68 247.838 141.996 248.458 142.207 249.129C142.42 249.798 142.526 250.532 142.526 251.331Z" fill="black"/>
<path d="M125.772 2.45455H126.957V6.73082C126.957 7.19957 126.847 7.61186 126.625 7.96768C126.406 8.32351 126.097 8.60156 125.698 8.80185C125.3 9 124.834 9.09908 124.301 9.09908C123.767 9.09908 123.3 9 122.902 8.80185C122.503 8.60156 122.194 8.32351 121.975 7.96768C121.755 7.61186 121.646 7.19957 121.646 6.73082V2.45455H122.831V6.63175C122.831 6.90447 122.891 7.14737 123.01 7.36044C123.132 7.57351 123.302 7.74077 123.522 7.86222C123.741 7.98153 124.001 8.04119 124.301 8.04119C124.602 8.04119 124.862 7.98153 125.081 7.86222C125.303 7.74077 125.473 7.57351 125.593 7.36044C125.712 7.14737 125.772 6.90447 125.772 6.63175V2.45455ZM128.195 10.8409V4.09091H129.333V4.9027H129.4C129.46 4.78338 129.544 4.6566 129.652 4.52237C129.761 4.38601 129.908 4.26989 130.093 4.17401C130.279 4.07599 130.515 4.02699 130.803 4.02699C131.182 4.02699 131.524 4.12393 131.829 4.31783C132.136 4.50959 132.379 4.79403 132.558 5.17116C132.739 5.54616 132.829 6.00639 132.829 6.55185C132.829 7.09091 132.741 7.54901 132.564 7.92614C132.387 8.30327 132.146 8.59091 131.842 8.78906C131.537 8.98722 131.192 9.08629 130.806 9.08629C130.525 9.08629 130.292 9.03942 130.106 8.94567C129.921 8.85192 129.772 8.73899 129.659 8.60689C129.548 8.47266 129.462 8.34588 129.4 8.22656H129.352V10.8409H128.195ZM129.33 6.54545C129.33 6.86293 129.374 7.14098 129.464 7.37962C129.555 7.61825 129.687 7.80469 129.857 7.93892C130.03 8.07102 130.238 8.13707 130.483 8.13707C130.739 8.13707 130.953 8.06889 131.126 7.93253C131.298 7.79403 131.428 7.60547 131.516 7.36683C131.605 7.12607 131.65 6.85227 131.65 6.54545C131.65 6.24077 131.606 5.97017 131.519 5.73366C131.432 5.49716 131.302 5.31179 131.129 5.17756C130.956 5.04332 130.741 4.97621 130.483 4.97621C130.236 4.97621 130.026 5.04119 129.854 5.17116C129.681 5.30114 129.55 5.48331 129.461 5.71768C129.373 5.95206 129.33 6.22798 129.33 6.54545ZM133.82 10.8409V4.09091H134.958V4.9027H135.025C135.085 4.78338 135.169 4.6566 135.277 4.52237C135.386 4.38601 135.533 4.26989 135.718 4.17401C135.904 4.07599 136.14 4.02699 136.428 4.02699C136.807 4.02699 137.149 4.12393 137.454 4.31783C137.761 4.50959 138.004 4.79403 138.183 5.17116C138.364 5.54616 138.454 6.00639 138.454 6.55185C138.454 7.09091 138.366 7.54901 138.189 7.92614C138.012 8.30327 137.771 8.59091 137.467 8.78906C137.162 8.98722 136.817 9.08629 136.431 9.08629C136.15 9.08629 135.917 9.03942 135.731 8.94567C135.546 8.85192 135.397 8.73899 135.284 8.60689C135.173 8.47266 135.087 8.34588 135.025 8.22656H134.977V10.8409H133.82ZM134.955 6.54545C134.955 6.86293 134.999 7.14098 135.089 7.37962C135.18 7.61825 135.312 7.80469 135.482 7.93892C135.655 8.07102 135.863 8.13707 136.108 8.13707C136.364 8.13707 136.578 8.06889 136.751 7.93253C136.923 7.79403 137.053 7.60547 137.141 7.36683C137.23 7.12607 137.275 6.85227 137.275 6.54545C137.275 6.24077 137.231 5.97017 137.144 5.73366C137.057 5.49716 136.927 5.31179 136.754 5.17756C136.581 5.04332 136.366 4.97621 136.108 4.97621C135.861 4.97621 135.651 5.04119 135.479 5.17116C135.306 5.30114 135.175 5.48331 135.086 5.71768C134.998 5.95206 134.955 6.22798 134.955 6.54545ZM141.618 9.09588C141.126 9.09588 140.701 8.99361 140.343 8.78906C139.987 8.58239 139.714 8.29048 139.522 7.91335C139.33 7.53409 139.234 7.08771 139.234 6.57422C139.234 6.06925 139.33 5.62607 139.522 5.24467C139.716 4.86115 139.986 4.56285 140.334 4.34979C140.681 4.13459 141.089 4.02699 141.558 4.02699C141.86 4.02699 142.146 4.07599 142.414 4.17401C142.685 4.26989 142.923 4.41903 143.13 4.62145C143.339 4.82386 143.503 5.08168 143.622 5.39489C143.742 5.70597 143.801 6.0767 143.801 6.5071V6.86186H139.777V6.08203H142.692C142.69 5.86044 142.642 5.66335 142.548 5.49077C142.455 5.31605 142.324 5.17862 142.155 5.07848C141.989 4.97834 141.795 4.92827 141.574 4.92827C141.337 4.92827 141.129 4.9858 140.95 5.10085C140.771 5.21378 140.632 5.36293 140.532 5.5483C140.434 5.73153 140.384 5.93288 140.381 6.15234V6.8331C140.381 7.11861 140.434 7.36364 140.538 7.56818C140.642 7.7706 140.788 7.92614 140.976 8.0348C141.163 8.14134 141.383 8.1946 141.634 8.1946C141.803 8.1946 141.955 8.17116 142.091 8.12429C142.228 8.07528 142.346 8.00391 142.446 7.91016C142.546 7.81641 142.622 7.70028 142.673 7.56179L143.753 7.68324C143.685 7.96875 143.555 8.21804 143.363 8.43111C143.174 8.64205 142.931 8.80611 142.635 8.9233C142.339 9.03835 142 9.09588 141.618 9.09588ZM144.78 9V4.09091H145.902V4.90909H145.953C146.042 4.62571 146.196 4.40732 146.413 4.25391C146.633 4.09837 146.883 4.0206 147.164 4.0206C147.228 4.0206 147.3 4.02379 147.378 4.03018C147.459 4.03445 147.526 4.0419 147.58 4.05256V5.11683C147.531 5.09979 147.453 5.08487 147.346 5.07209C147.242 5.05717 147.141 5.04972 147.043 5.04972C146.832 5.04972 146.642 5.09553 146.474 5.18714C146.308 5.27663 146.177 5.40128 146.081 5.56108C145.985 5.72088 145.937 5.90518 145.937 6.11399V9H144.78ZM150.581 9V4.09091H151.703V4.90909H151.754C151.843 4.62571 151.997 4.40732 152.214 4.25391C152.433 4.09837 152.684 4.0206 152.965 4.0206C153.029 4.0206 153.1 4.02379 153.179 4.03018C153.26 4.03445 153.327 4.0419 153.381 4.05256V5.11683C153.331 5.09979 153.254 5.08487 153.147 5.07209C153.043 5.05717 152.942 5.04972 152.844 5.04972C152.633 5.04972 152.443 5.09553 152.275 5.18714C152.108 5.27663 151.977 5.40128 151.882 5.56108C151.786 5.72088 151.738 5.90518 151.738 6.11399V9H150.581ZM154.149 9V4.09091H155.306V9H154.149ZM154.731 3.39418C154.548 3.39418 154.39 3.33345 154.258 3.212C154.126 3.08842 154.06 2.94034 154.06 2.76776C154.06 2.59304 154.126 2.44496 154.258 2.32351C154.39 2.19993 154.548 2.13814 154.731 2.13814C154.916 2.13814 155.074 2.19993 155.204 2.32351C155.336 2.44496 155.402 2.59304 155.402 2.76776C155.402 2.94034 155.336 3.08842 155.204 3.212C155.074 3.33345 154.916 3.39418 154.731 3.39418ZM158.631 10.9432C158.215 10.9432 157.858 10.8867 157.56 10.7738C157.262 10.663 157.022 10.5138 156.841 10.3263C156.66 10.1388 156.534 9.93111 156.464 9.70312L157.506 9.45064C157.553 9.54652 157.621 9.64134 157.71 9.73509C157.8 9.83097 157.92 9.9098 158.071 9.97159C158.225 10.0355 158.418 10.0675 158.65 10.0675C158.978 10.0675 159.25 9.98757 159.465 9.82777C159.68 9.6701 159.788 9.41016 159.788 9.04794V8.1179H159.73C159.671 8.23722 159.583 8.35973 159.468 8.48544C159.355 8.61115 159.205 8.71662 159.017 8.80185C158.832 8.88707 158.599 8.92969 158.318 8.92969C157.94 8.92969 157.598 8.84126 157.292 8.66442C156.987 8.48544 156.744 8.21911 156.563 7.86541C156.384 7.50959 156.294 7.06428 156.294 6.52947C156.294 5.99041 156.384 5.53551 156.563 5.16477C156.744 4.7919 156.988 4.50959 157.295 4.31783C157.602 4.12393 157.944 4.02699 158.321 4.02699C158.608 4.02699 158.845 4.07599 159.03 4.17401C159.218 4.26989 159.367 4.38601 159.478 4.52237C159.589 4.6566 159.673 4.78338 159.73 4.9027H159.794V4.09091H160.935V9.0799C160.935 9.49964 160.835 9.84695 160.635 10.1218C160.434 10.3967 160.161 10.6023 159.813 10.7386C159.466 10.875 159.072 10.9432 158.631 10.9432ZM158.64 8.02202C158.885 8.02202 159.094 7.96236 159.267 7.84304C159.439 7.72372 159.57 7.5522 159.66 7.32848C159.749 7.10476 159.794 6.83629 159.794 6.52308C159.794 6.21413 159.749 5.94354 159.66 5.71129C159.573 5.47905 159.443 5.29901 159.27 5.17116C159.1 5.04119 158.89 4.97621 158.64 4.97621C158.383 4.97621 158.167 5.04332 157.995 5.17756C157.822 5.31179 157.692 5.49609 157.605 5.73047C157.517 5.96271 157.474 6.22692 157.474 6.52308C157.474 6.82351 157.517 7.08665 157.605 7.3125C157.694 7.53622 157.825 7.71094 157.998 7.83665C158.173 7.96023 158.387 8.02202 158.64 8.02202ZM163.278 6.12358V9H162.121V2.45455H163.252V4.92507H163.31C163.425 4.64808 163.603 4.42969 163.843 4.26989C164.086 4.10795 164.395 4.02699 164.77 4.02699C165.111 4.02699 165.408 4.09837 165.662 4.24112C165.916 4.38388 166.112 4.59268 166.25 4.86754C166.391 5.1424 166.461 5.47798 166.461 5.87429V9H165.304V6.05327C165.304 5.72301 165.219 5.46626 165.048 5.28303C164.88 5.09766 164.644 5.00497 164.339 5.00497C164.134 5.00497 163.951 5.04972 163.789 5.1392C163.629 5.22656 163.504 5.35334 163.412 5.51953C163.323 5.68572 163.278 5.88707 163.278 6.12358ZM170.092 4.09091V4.9858H167.27V4.09091H170.092ZM167.966 2.91477H169.123V7.52344C169.123 7.67898 169.147 7.7983 169.194 7.88139C169.243 7.96236 169.307 8.01776 169.385 8.04759C169.464 8.07741 169.552 8.09233 169.647 8.09233C169.72 8.09233 169.786 8.087 169.846 8.07635C169.907 8.0657 169.954 8.05611 169.986 8.04759L170.181 8.95206C170.119 8.97337 170.031 8.9968 169.916 9.02237C169.803 9.04794 169.665 9.06286 169.5 9.06712C169.211 9.07564 168.95 9.03196 168.717 8.93608C168.485 8.83807 168.301 8.68679 168.165 8.48224C168.03 8.2777 167.964 8.02202 167.966 7.7152V2.91477ZM175.781 6.80114H176.855L177.491 7.62571L177.945 8.16264L179.035 9.5625H177.884L177.143 8.62287L176.827 8.17543L175.781 6.80114ZM179.192 5.72727C179.192 6.43253 179.059 7.03658 178.795 7.53942C178.533 8.04013 178.175 8.42365 177.721 8.68999C177.27 8.95632 176.757 9.08949 176.184 9.08949C175.611 9.08949 175.097 8.95632 174.644 8.68999C174.192 8.42152 173.834 8.03693 173.57 7.53622C173.308 7.03338 173.177 6.4304 173.177 5.72727C173.177 5.02202 173.308 4.41903 173.57 3.91832C173.834 3.41548 174.192 3.03089 174.644 2.76456C175.097 2.49822 175.611 2.36506 176.184 2.36506C176.757 2.36506 177.27 2.49822 177.721 2.76456C178.175 3.03089 178.533 3.41548 178.795 3.91832C179.059 4.41903 179.192 5.02202 179.192 5.72727ZM177.999 5.72727C177.999 5.23082 177.922 4.81214 177.766 4.47124C177.613 4.1282 177.4 3.86932 177.127 3.6946C176.854 3.51776 176.54 3.42933 176.184 3.42933C175.828 3.42933 175.514 3.51776 175.241 3.6946C174.969 3.86932 174.754 4.1282 174.599 4.47124C174.445 4.81214 174.369 5.23082 174.369 5.72727C174.369 6.22372 174.445 6.64347 174.599 6.98651C174.754 7.32741 174.969 7.58629 175.241 7.76314C175.514 7.93786 175.828 8.02521 176.184 8.02521C176.54 8.02521 176.854 7.93786 177.127 7.76314C177.4 7.58629 177.613 7.32741 177.766 6.98651C177.922 6.64347 177.999 6.22372 177.999 5.72727ZM183.399 6.93537V4.09091H184.556V9H183.434V8.12749H183.383C183.272 8.40234 183.09 8.62713 182.837 8.80185C182.585 8.97656 182.275 9.06392 181.907 9.06392C181.585 9.06392 181.3 8.99254 181.053 8.84979C180.808 8.7049 180.616 8.49503 180.478 8.22017C180.339 7.94318 180.27 7.60866 180.27 7.21662V4.09091H181.427V7.03764C181.427 7.34872 181.512 7.59588 181.683 7.77912C181.853 7.96236 182.077 8.05398 182.354 8.05398C182.525 8.05398 182.69 8.01243 182.849 7.92933C183.009 7.84624 183.14 7.72266 183.243 7.55859C183.347 7.3924 183.399 7.18466 183.399 6.93537ZM187.158 9.09908C186.847 9.09908 186.567 9.04368 186.318 8.93288C186.071 8.81996 185.875 8.65376 185.73 8.4343C185.587 8.21484 185.516 7.94425 185.516 7.62251C185.516 7.34553 185.567 7.11648 185.669 6.93537C185.771 6.75426 185.911 6.60938 186.088 6.50071C186.265 6.39205 186.464 6.31001 186.685 6.25462C186.909 6.19709 187.14 6.15554 187.379 6.12997C187.667 6.10014 187.9 6.07351 188.079 6.05007C188.258 6.0245 188.388 5.98615 188.469 5.93501C188.552 5.88175 188.593 5.79972 188.593 5.68892V5.66974C188.593 5.42898 188.522 5.24254 188.379 5.11044C188.237 4.97834 188.031 4.91229 187.763 4.91229C187.479 4.91229 187.254 4.97408 187.088 5.09766C186.924 5.22124 186.813 5.36719 186.756 5.53551L185.676 5.3821C185.761 5.08381 185.901 4.83452 186.097 4.63423C186.293 4.43182 186.533 4.28054 186.816 4.1804C187.1 4.07812 187.413 4.02699 187.756 4.02699C187.993 4.02699 188.228 4.05469 188.462 4.11009C188.697 4.16548 188.911 4.2571 189.105 4.38494C189.299 4.51065 189.454 4.68217 189.571 4.8995C189.691 5.11683 189.75 5.38849 189.75 5.71449V9H188.638V8.32564H188.6C188.53 8.462 188.43 8.58984 188.303 8.70916C188.177 8.82635 188.018 8.92116 187.826 8.99361C187.637 9.06392 187.414 9.09908 187.158 9.09908ZM187.459 8.24893C187.691 8.24893 187.892 8.20312 188.063 8.11151C188.233 8.01776 188.364 7.89418 188.456 7.74077C188.55 7.58736 188.597 7.4201 188.597 7.23899V6.66051C188.56 6.69034 188.499 6.71804 188.411 6.74361C188.326 6.76918 188.23 6.79155 188.124 6.81072C188.017 6.8299 187.912 6.84695 187.807 6.86186C187.703 6.87678 187.612 6.88956 187.536 6.90021C187.363 6.92365 187.209 6.962 187.072 7.01527C186.936 7.06854 186.828 7.14311 186.749 7.23899C186.671 7.33274 186.631 7.45419 186.631 7.60334C186.631 7.81641 186.709 7.97727 186.864 8.08594C187.02 8.1946 187.218 8.24893 187.459 8.24893ZM192.736 9.08629C192.35 9.08629 192.005 8.98722 191.7 8.78906C191.395 8.59091 191.155 8.30327 190.978 7.92614C190.801 7.54901 190.712 7.09091 190.712 6.55185C190.712 6.00639 190.802 5.54616 190.981 5.17116C191.162 4.79403 191.406 4.50959 191.713 4.31783C192.02 4.12393 192.362 4.02699 192.739 4.02699C193.026 4.02699 193.263 4.07599 193.448 4.17401C193.634 4.26989 193.781 4.38601 193.889 4.52237C193.998 4.6566 194.082 4.78338 194.142 4.9027H194.19V2.45455H195.35V9H194.212V8.22656H194.142C194.082 8.34588 193.996 8.47266 193.883 8.60689C193.77 8.73899 193.621 8.85192 193.435 8.94567C193.25 9.03942 193.017 9.08629 192.736 9.08629ZM193.058 8.13707C193.303 8.13707 193.512 8.07102 193.685 7.93892C193.857 7.80469 193.988 7.61825 194.078 7.37962C194.167 7.14098 194.212 6.86293 194.212 6.54545C194.212 6.22798 194.167 5.95206 194.078 5.71768C193.991 5.48331 193.861 5.30114 193.688 5.17116C193.517 5.04119 193.308 4.97621 193.058 4.97621C192.801 4.97621 192.585 5.04332 192.413 5.17756C192.24 5.31179 192.11 5.49716 192.023 5.73366C191.935 5.97017 191.892 6.24077 191.892 6.54545C191.892 6.85227 191.935 7.12607 192.023 7.36683C192.112 7.60547 192.243 7.79403 192.416 7.93253C192.591 8.06889 192.805 8.13707 193.058 8.13707ZM196.583 9V4.09091H197.705V4.90909H197.756C197.845 4.62571 197.999 4.40732 198.216 4.25391C198.435 4.09837 198.686 4.0206 198.967 4.0206C199.031 4.0206 199.102 4.02379 199.181 4.03018C199.262 4.03445 199.329 4.0419 199.382 4.05256V5.11683C199.333 5.09979 199.256 5.08487 199.149 5.07209C199.045 5.05717 198.944 5.04972 198.846 5.04972C198.635 5.04972 198.445 5.09553 198.277 5.18714C198.11 5.27663 197.979 5.40128 197.884 5.56108C197.788 5.72088 197.74 5.90518 197.74 6.11399V9H196.583ZM201.476 9.09908C201.165 9.09908 200.885 9.04368 200.635 8.93288C200.388 8.81996 200.192 8.65376 200.047 8.4343C199.904 8.21484 199.833 7.94425 199.833 7.62251C199.833 7.34553 199.884 7.11648 199.987 6.93537C200.089 6.75426 200.228 6.60938 200.405 6.50071C200.582 6.39205 200.781 6.31001 201.003 6.25462C201.227 6.19709 201.458 6.15554 201.696 6.12997C201.984 6.10014 202.217 6.07351 202.396 6.05007C202.575 6.0245 202.705 5.98615 202.786 5.93501C202.869 5.88175 202.911 5.79972 202.911 5.68892V5.66974C202.911 5.42898 202.839 5.24254 202.697 5.11044C202.554 4.97834 202.348 4.91229 202.08 4.91229C201.797 4.91229 201.572 4.97408 201.406 5.09766C201.241 5.22124 201.131 5.36719 201.073 5.53551L199.993 5.3821C200.078 5.08381 200.219 4.83452 200.415 4.63423C200.611 4.43182 200.85 4.28054 201.134 4.1804C201.417 4.07812 201.73 4.02699 202.074 4.02699C202.31 4.02699 202.545 4.05469 202.78 4.11009C203.014 4.16548 203.228 4.2571 203.422 4.38494C203.616 4.51065 203.772 4.68217 203.889 4.8995C204.008 5.11683 204.068 5.38849 204.068 5.71449V9H202.956V8.32564H202.917C202.847 8.462 202.748 8.58984 202.62 8.70916C202.494 8.82635 202.336 8.92116 202.144 8.99361C201.954 9.06392 201.732 9.09908 201.476 9.09908ZM201.776 8.24893C202.009 8.24893 202.21 8.20312 202.38 8.11151C202.551 8.01776 202.682 7.89418 202.773 7.74077C202.867 7.58736 202.914 7.4201 202.914 7.23899V6.66051C202.878 6.69034 202.816 6.71804 202.729 6.74361C202.643 6.76918 202.548 6.79155 202.441 6.81072C202.335 6.8299 202.229 6.84695 202.125 6.86186C202.02 6.87678 201.93 6.88956 201.853 6.90021C201.68 6.92365 201.526 6.962 201.39 7.01527C201.253 7.06854 201.146 7.14311 201.067 7.23899C200.988 7.33274 200.949 7.45419 200.949 7.60334C200.949 7.81641 201.026 7.97727 201.182 8.08594C201.337 8.1946 201.536 8.24893 201.776 8.24893ZM206.388 6.12358V9H205.231V4.09091H206.337V4.92507H206.395C206.507 4.65021 206.688 4.43182 206.935 4.26989C207.184 4.10795 207.492 4.02699 207.858 4.02699C208.197 4.02699 208.492 4.09943 208.744 4.24432C208.997 4.3892 209.193 4.59908 209.332 4.87393C209.472 5.14879 209.542 5.48224 209.539 5.87429V9H208.382V6.05327C208.382 5.72514 208.297 5.46839 208.127 5.28303C207.958 5.09766 207.725 5.00497 207.427 5.00497C207.224 5.00497 207.044 5.04972 206.887 5.1392C206.731 5.22656 206.609 5.35334 206.519 5.51953C206.432 5.68572 206.388 5.88707 206.388 6.12358ZM213.167 4.09091V4.9858H210.345V4.09091H213.167ZM211.042 2.91477H212.199V7.52344C212.199 7.67898 212.222 7.7983 212.269 7.88139C212.318 7.96236 212.382 8.01776 212.461 8.04759C212.539 8.07741 212.627 8.09233 212.723 8.09233C212.795 8.09233 212.861 8.087 212.921 8.07635C212.983 8.0657 213.029 8.05611 213.061 8.04759L213.256 8.95206C213.195 8.97337 213.106 8.9968 212.991 9.02237C212.878 9.04794 212.74 9.06286 212.576 9.06712C212.286 9.07564 212.025 9.03196 211.793 8.93608C211.56 8.83807 211.376 8.68679 211.24 8.48224C211.105 8.2777 211.039 8.02202 211.042 7.7152V2.91477ZM123.736 20.0959C123.256 20.0959 122.841 19.9904 122.489 19.7795C122.138 19.5685 121.865 19.2734 121.671 18.8942C121.479 18.5149 121.384 18.0717 121.384 17.5646C121.384 17.0575 121.479 16.6133 121.671 16.2319C121.865 15.8505 122.138 15.5543 122.489 15.3434C122.841 15.1325 123.256 15.027 123.736 15.027C124.215 15.027 124.631 15.1325 124.982 15.3434C125.334 15.5543 125.605 15.8505 125.797 16.2319C125.991 16.6133 126.088 17.0575 126.088 17.5646C126.088 18.0717 125.991 18.5149 125.797 18.8942C125.605 19.2734 125.334 19.5685 124.982 19.7795C124.631 19.9904 124.215 20.0959 123.736 20.0959ZM123.742 19.169C124.002 19.169 124.219 19.0977 124.394 18.9549C124.569 18.81 124.699 18.6161 124.784 18.3732C124.871 18.1303 124.915 17.8597 124.915 17.5614C124.915 17.261 124.871 16.9893 124.784 16.7464C124.699 16.5014 124.569 16.3065 124.394 16.1616C124.219 16.0167 124.002 15.9442 123.742 15.9442C123.476 15.9442 123.254 16.0167 123.077 16.1616C122.903 16.3065 122.772 16.5014 122.684 16.7464C122.599 16.9893 122.556 17.261 122.556 17.5614C122.556 17.8597 122.599 18.1303 122.684 18.3732C122.772 18.6161 122.903 18.81 123.077 18.9549C123.254 19.0977 123.476 19.169 123.742 19.169ZM129.557 15.0909V15.9858H126.655V15.0909H129.557ZM127.38 20V14.6275C127.38 14.2972 127.448 14.0224 127.585 13.8029C127.723 13.5835 127.908 13.4194 128.141 13.3107C128.373 13.2021 128.631 13.1477 128.914 13.1477C129.114 13.1477 129.292 13.1637 129.448 13.1957C129.603 13.2276 129.718 13.2564 129.793 13.282L129.563 14.1768C129.514 14.1619 129.452 14.147 129.378 14.1321C129.303 14.1151 129.22 14.1065 129.128 14.1065C128.913 14.1065 128.761 14.1587 128.671 14.2631C128.584 14.3654 128.54 14.5124 128.54 14.7042V20H127.38ZM135.146 15.0909V15.9858H132.324V15.0909H135.146ZM133.021 13.9148H134.178V18.5234C134.178 18.679 134.201 18.7983 134.248 18.8814C134.297 18.9624 134.361 19.0178 134.44 19.0476C134.519 19.0774 134.606 19.0923 134.702 19.0923C134.775 19.0923 134.841 19.087 134.9 19.0763C134.962 19.0657 135.009 19.0561 135.041 19.0476L135.236 19.9521C135.174 19.9734 135.086 19.9968 134.971 20.0224C134.858 20.0479 134.719 20.0629 134.555 20.0671C134.265 20.0756 134.004 20.032 133.772 19.9361C133.54 19.8381 133.356 19.6868 133.219 19.4822C133.085 19.2777 133.019 19.022 133.021 18.7152V13.9148ZM137.376 17.1236V20H136.219V13.4545H137.351V15.9251H137.408C137.523 15.6481 137.701 15.4297 137.942 15.2699C138.185 15.108 138.494 15.027 138.869 15.027C139.21 15.027 139.507 15.0984 139.761 15.2411C140.014 15.3839 140.21 15.5927 140.349 15.8675C140.489 16.1424 140.56 16.478 140.56 16.8743V20H139.403V17.0533C139.403 16.723 139.317 16.4663 139.147 16.283C138.979 16.0977 138.742 16.005 138.438 16.005C138.233 16.005 138.05 16.0497 137.888 16.1392C137.728 16.2266 137.602 16.3533 137.511 16.5195C137.421 16.6857 137.376 16.8871 137.376 17.1236ZM143.912 20.0959C143.42 20.0959 142.995 19.9936 142.637 19.7891C142.281 19.5824 142.007 19.2905 141.816 18.9134C141.624 18.5341 141.528 18.0877 141.528 17.5742C141.528 17.0692 141.624 16.6261 141.816 16.2447C142.01 15.8612 142.28 15.5629 142.627 15.3498C142.975 15.1346 143.383 15.027 143.852 15.027C144.154 15.027 144.44 15.076 144.708 15.174C144.979 15.2699 145.217 15.419 145.424 15.6214C145.633 15.8239 145.797 16.0817 145.916 16.3949C146.036 16.706 146.095 17.0767 146.095 17.5071V17.8619H142.071V17.082H144.986C144.984 16.8604 144.936 16.6634 144.842 16.4908C144.749 16.3161 144.618 16.1786 144.449 16.0785C144.283 15.9783 144.089 15.9283 143.868 15.9283C143.631 15.9283 143.423 15.9858 143.244 16.1009C143.065 16.2138 142.926 16.3629 142.826 16.5483C142.728 16.7315 142.678 16.9329 142.675 17.1523V17.8331C142.675 18.1186 142.728 18.3636 142.832 18.5682C142.936 18.7706 143.082 18.9261 143.27 19.0348C143.457 19.1413 143.677 19.1946 143.928 19.1946C144.097 19.1946 144.249 19.1712 144.385 19.1243C144.522 19.0753 144.64 19.0039 144.74 18.9102C144.84 18.8164 144.916 18.7003 144.967 18.5618L146.047 18.6832C145.979 18.9687 145.849 19.218 145.657 19.4311C145.468 19.642 145.225 19.8061 144.929 19.9233C144.632 20.0384 144.294 20.0959 143.912 20.0959ZM153.186 16.3885L152.132 16.5036C152.102 16.397 152.05 16.2969 151.975 16.2031C151.903 16.1094 151.805 16.0337 151.681 15.9762C151.557 15.9187 151.406 15.8899 151.227 15.8899C150.986 15.8899 150.784 15.9421 150.62 16.0465C150.458 16.1509 150.378 16.2862 150.38 16.4524C150.378 16.5952 150.43 16.7113 150.537 16.8008C150.646 16.8903 150.824 16.9638 151.074 17.0213L151.911 17.2003C152.376 17.3004 152.721 17.4592 152.947 17.6765C153.175 17.8938 153.29 18.1783 153.292 18.5298C153.29 18.8388 153.199 19.1115 153.02 19.348C152.843 19.5824 152.597 19.7656 152.282 19.8977C151.967 20.0298 151.604 20.0959 151.195 20.0959C150.594 20.0959 150.111 19.9702 149.744 19.7188C149.378 19.4652 149.159 19.1126 149.089 18.6609L150.217 18.5522C150.268 18.7738 150.377 18.9411 150.543 19.054C150.709 19.1669 150.926 19.2234 151.192 19.2234C151.467 19.2234 151.687 19.1669 151.854 19.054C152.022 18.9411 152.106 18.8015 152.106 18.6353C152.106 18.4947 152.052 18.3786 151.943 18.2869C151.837 18.1953 151.67 18.125 151.445 18.076L150.607 17.9002C150.136 17.8022 149.788 17.6371 149.562 17.4048C149.336 17.1705 149.224 16.8743 149.226 16.5163C149.224 16.2138 149.306 15.9517 149.473 15.7301C149.641 15.5064 149.874 15.3338 150.172 15.2124C150.473 15.0888 150.819 15.027 151.211 15.027C151.786 15.027 152.239 15.1495 152.57 15.3945C152.902 15.6396 153.108 15.9709 153.186 16.3885ZM157.522 21.8409V19.2266H157.474C157.414 19.3459 157.328 19.4727 157.215 19.6069C157.102 19.739 156.953 19.8519 156.767 19.9457C156.582 20.0394 156.349 20.0863 156.068 20.0863C155.682 20.0863 155.337 19.9872 155.032 19.7891C154.727 19.5909 154.487 19.3033 154.31 18.9261C154.133 18.549 154.044 18.0909 154.044 17.5518C154.044 17.0064 154.134 16.5462 154.313 16.1712C154.494 15.794 154.738 15.5096 155.045 15.3178C155.352 15.1239 155.694 15.027 156.071 15.027C156.358 15.027 156.595 15.076 156.78 15.174C156.966 15.2699 157.113 15.386 157.221 15.5224C157.33 15.6566 157.414 15.7834 157.474 15.9027H157.544V15.0909H158.682V21.8409H157.522ZM156.39 19.1371C156.635 19.1371 156.844 19.071 157.017 18.9389C157.189 18.8047 157.32 18.6183 157.41 18.3796C157.499 18.141 157.544 17.8629 157.544 17.5455C157.544 17.228 157.499 16.9521 157.41 16.7177C157.323 16.4833 157.193 16.3011 157.02 16.1712C156.85 16.0412 156.64 15.9762 156.39 15.9762C156.133 15.9762 155.917 16.0433 155.745 16.1776C155.572 16.3118 155.442 16.4972 155.355 16.7337C155.267 16.9702 155.224 17.2408 155.224 17.5455C155.224 17.8523 155.267 18.1261 155.355 18.3668C155.444 18.6055 155.575 18.794 155.748 18.9325C155.923 19.0689 156.137 19.1371 156.39 19.1371ZM163 17.9354V15.0909H164.157V20H163.035V19.1275H162.984C162.873 19.4023 162.691 19.6271 162.437 19.8018C162.186 19.9766 161.876 20.0639 161.507 20.0639C161.185 20.0639 160.901 19.9925 160.654 19.8498C160.409 19.7049 160.217 19.495 160.079 19.2202C159.94 18.9432 159.871 18.6087 159.871 18.2166V15.0909H161.028V18.0376C161.028 18.3487 161.113 18.5959 161.283 18.7791C161.454 18.9624 161.678 19.054 161.955 19.054C162.125 19.054 162.29 19.0124 162.45 18.9293C162.61 18.8462 162.741 18.7227 162.843 18.5586C162.948 18.3924 163 18.1847 163 17.9354ZM166.759 20.0991C166.448 20.0991 166.168 20.0437 165.919 19.9329C165.671 19.82 165.475 19.6538 165.33 19.4343C165.188 19.2148 165.116 18.9442 165.116 18.6225C165.116 18.3455 165.167 18.1165 165.27 17.9354C165.372 17.7543 165.512 17.6094 165.688 17.5007C165.865 17.392 166.064 17.31 166.286 17.2546C166.51 17.1971 166.741 17.1555 166.98 17.13C167.267 17.1001 167.501 17.0735 167.68 17.0501C167.858 17.0245 167.988 16.9862 168.069 16.935C168.153 16.8817 168.194 16.7997 168.194 16.6889V16.6697C168.194 16.429 168.123 16.2425 167.98 16.1104C167.837 15.9783 167.632 15.9123 167.363 15.9123C167.08 15.9123 166.855 15.9741 166.689 16.0977C166.525 16.2212 166.414 16.3672 166.356 16.5355L165.276 16.3821C165.361 16.0838 165.502 15.8345 165.698 15.6342C165.894 15.4318 166.134 15.2805 166.417 15.1804C166.7 15.0781 167.014 15.027 167.357 15.027C167.593 15.027 167.829 15.0547 168.063 15.1101C168.297 15.1655 168.512 15.2571 168.705 15.3849C168.899 15.5107 169.055 15.6822 169.172 15.8995C169.291 16.1168 169.351 16.3885 169.351 16.7145V20H168.239V19.3256H168.2C168.13 19.462 168.031 19.5898 167.903 19.7092C167.778 19.8263 167.619 19.9212 167.427 19.9936C167.237 20.0639 167.015 20.0991 166.759 20.0991ZM167.059 19.2489C167.292 19.2489 167.493 19.2031 167.664 19.1115C167.834 19.0178 167.965 18.8942 168.057 18.7408C168.15 18.5874 168.197 18.4201 168.197 18.239V17.6605C168.161 17.6903 168.099 17.718 168.012 17.7436C167.927 17.7692 167.831 17.7915 167.724 17.8107C167.618 17.8299 167.512 17.8469 167.408 17.8619C167.303 17.8768 167.213 17.8896 167.136 17.9002C166.964 17.9237 166.809 17.962 166.673 18.0153C166.536 18.0685 166.429 18.1431 166.35 18.239C166.271 18.3327 166.232 18.4542 166.232 18.6033C166.232 18.8164 166.309 18.9773 166.465 19.0859C166.621 19.1946 166.819 19.2489 167.059 19.2489ZM170.514 20V15.0909H171.636V15.9091H171.687C171.777 15.6257 171.93 15.4073 172.148 15.2539C172.367 15.0984 172.617 15.0206 172.899 15.0206C172.963 15.0206 173.034 15.0238 173.113 15.0302C173.194 15.0344 173.261 15.0419 173.314 15.0526V16.1168C173.265 16.0998 173.187 16.0849 173.081 16.0721C172.976 16.0572 172.875 16.0497 172.777 16.0497C172.566 16.0497 172.377 16.0955 172.208 16.1871C172.042 16.2766 171.911 16.4013 171.815 16.5611C171.719 16.7209 171.671 16.9052 171.671 17.114V20H170.514ZM176.054 20.0959C175.562 20.0959 175.137 19.9936 174.779 19.7891C174.423 19.5824 174.149 19.2905 173.957 18.9134C173.766 18.5341 173.67 18.0877 173.67 17.5742C173.67 17.0692 173.766 16.6261 173.957 16.2447C174.151 15.8612 174.422 15.5629 174.769 15.3498C175.116 15.1346 175.524 15.027 175.993 15.027C176.296 15.027 176.581 15.076 176.85 15.174C177.12 15.2699 177.359 15.419 177.566 15.6214C177.774 15.8239 177.938 16.0817 178.058 16.3949C178.177 16.706 178.237 17.0767 178.237 17.5071V17.8619H174.213V17.082H177.128C177.126 16.8604 177.078 16.6634 176.984 16.4908C176.89 16.3161 176.759 16.1786 176.591 16.0785C176.425 15.9783 176.231 15.9283 176.009 15.9283C175.773 15.9283 175.565 15.9858 175.386 16.1009C175.207 16.2138 175.067 16.3629 174.967 16.5483C174.869 16.7315 174.819 16.9329 174.817 17.1523V17.8331C174.817 18.1186 174.869 18.3636 174.974 18.5682C175.078 18.7706 175.224 18.9261 175.411 19.0348C175.599 19.1413 175.818 19.1946 176.07 19.1946C176.238 19.1946 176.391 19.1712 176.527 19.1243C176.663 19.0753 176.782 19.0039 176.882 18.9102C176.982 18.8164 177.057 18.7003 177.109 18.5618L178.189 18.6832C178.121 18.9687 177.991 19.218 177.799 19.4311C177.609 19.642 177.366 19.8061 177.07 19.9233C176.774 20.0384 176.435 20.0959 176.054 20.0959Z" fill="black"/>
<path d="M149.855 49.3519C150.051 49.5471 150.367 49.5471 150.563 49.3519L153.745 46.1699C153.94 45.9746 153.94 45.658 153.745 45.4628C153.549 45.2675 153.233 45.2675 153.037 45.4628L150.209 48.2912L147.381 45.4628C147.185 45.2675 146.869 45.2675 146.674 45.4628C146.478 45.658 146.478 45.9746 146.674 46.1699L149.855 49.3519ZM150.709 48.9983V22.9983H149.709V48.9983H150.709Z" fill="black"/>
<path d="M197.486 92H196.221L198.525 85.4545H199.989L202.296 92H201.031L199.282 86.7969H199.231L197.486 92ZM197.528 89.4336H200.979V90.386H197.528V89.4336ZM204.264 85.4545V92H203.107V85.4545H204.264ZM206.611 85.4545V92H205.454V85.4545H206.611ZM211.855 92.0863C211.469 92.0863 211.124 91.9872 210.819 91.7891C210.514 91.5909 210.274 91.3033 210.097 90.9261C209.92 90.549 209.832 90.0909 209.832 89.5518C209.832 89.0064 209.921 88.5462 210.1 88.1712C210.281 87.794 210.525 87.5096 210.832 87.3178C211.139 87.1239 211.481 87.027 211.858 87.027C212.146 87.027 212.382 87.076 212.567 87.174C212.753 87.2699 212.9 87.386 213.008 87.5224C213.117 87.6566 213.201 87.7834 213.261 87.9027H213.309V85.4545H214.469V92H213.331V91.2266H213.261C213.201 91.3459 213.115 91.4727 213.002 91.6069C212.889 91.739 212.74 91.8519 212.555 91.9457C212.369 92.0394 212.136 92.0863 211.855 92.0863ZM212.177 91.1371C212.422 91.1371 212.631 91.071 212.804 90.9389C212.976 90.8047 213.108 90.6183 213.197 90.3796C213.286 90.141 213.331 89.8629 213.331 89.5455C213.331 89.228 213.286 88.9521 213.197 88.7177C213.11 88.4833 212.98 88.3011 212.807 88.1712C212.637 88.0412 212.427 87.9762 212.177 87.9762C211.92 87.9762 211.704 88.0433 211.532 88.1776C211.359 88.3118 211.229 88.4972 211.142 88.7337C211.055 88.9702 211.011 89.2408 211.011 89.5455C211.011 89.8523 211.055 90.1261 211.142 90.3668C211.231 90.6055 211.362 90.794 211.535 90.9325C211.71 91.0689 211.924 91.1371 212.177 91.1371ZM217.115 92.0991C216.803 92.0991 216.523 92.0437 216.274 91.9329C216.027 91.82 215.831 91.6538 215.686 91.4343C215.543 91.2148 215.472 90.9442 215.472 90.6225C215.472 90.3455 215.523 90.1165 215.625 89.9354C215.727 89.7543 215.867 89.6094 216.044 89.5007C216.221 89.392 216.42 89.31 216.642 89.2546C216.865 89.1971 217.096 89.1555 217.335 89.13C217.623 89.1001 217.856 89.0735 218.035 89.0501C218.214 89.0245 218.344 88.9862 218.425 88.935C218.508 88.8817 218.55 88.7997 218.55 88.6889V88.6697C218.55 88.429 218.478 88.2425 218.335 88.1104C218.193 87.9783 217.987 87.9123 217.719 87.9123C217.435 87.9123 217.21 87.9741 217.044 88.0977C216.88 88.2212 216.769 88.3672 216.712 88.5355L215.632 88.3821C215.717 88.0838 215.857 87.8345 216.053 87.6342C216.249 87.4318 216.489 87.2805 216.773 87.1804C217.056 87.0781 217.369 87.027 217.712 87.027C217.949 87.027 218.184 87.0547 218.419 87.1101C218.653 87.1655 218.867 87.2571 219.061 87.3849C219.255 87.5107 219.41 87.6822 219.528 87.8995C219.647 88.1168 219.706 88.3885 219.706 88.7145V92H218.594V91.3256H218.556C218.486 91.462 218.387 91.5898 218.259 91.7092C218.133 91.8263 217.974 91.9212 217.782 91.9936C217.593 92.0639 217.37 92.0991 217.115 92.0991ZM217.415 91.2489C217.647 91.2489 217.849 91.2031 218.019 91.1115C218.189 91.0178 218.32 90.8942 218.412 90.7408C218.506 90.5874 218.553 90.4201 218.553 90.239V89.6605C218.517 89.6903 218.455 89.718 218.367 89.7436C218.282 89.7692 218.186 89.7915 218.08 89.8107C217.973 89.8299 217.868 89.8469 217.763 89.8619C217.659 89.8768 217.568 89.8896 217.492 89.9002C217.319 89.9237 217.165 89.962 217.028 90.0153C216.892 90.0685 216.784 90.1431 216.705 90.239C216.627 90.3327 216.587 90.4542 216.587 90.6033C216.587 90.8164 216.665 90.9773 216.82 91.0859C216.976 91.1946 217.174 91.2489 217.415 91.2489ZM220.87 92V87.0909H221.992V87.9091H222.043C222.132 87.6257 222.286 87.4073 222.503 87.2539C222.722 87.0984 222.973 87.0206 223.254 87.0206C223.318 87.0206 223.389 87.0238 223.468 87.0302C223.549 87.0344 223.616 87.0419 223.67 87.0526V88.1168C223.621 88.0998 223.543 88.0849 223.436 88.0721C223.332 88.0572 223.231 88.0497 223.133 88.0497C222.922 88.0497 222.732 88.0955 222.564 88.1871C222.398 88.2766 222.267 88.4013 222.171 88.5611C222.075 88.7209 222.027 88.9052 222.027 89.114V92H220.87ZM227.153 87.0909V87.9858H224.331V87.0909H227.153ZM225.028 85.9148H226.185V90.5234C226.185 90.679 226.208 90.7983 226.255 90.8814C226.304 90.9624 226.368 91.0178 226.447 91.0476C226.526 91.0774 226.613 91.0923 226.709 91.0923C226.781 91.0923 226.847 91.087 226.907 91.0763C226.969 91.0657 227.016 91.0561 227.048 91.0476L227.243 91.9521C227.181 91.9734 227.093 91.9968 226.977 92.0224C226.865 92.0479 226.726 92.0629 226.562 92.0671C226.272 92.0756 226.011 92.032 225.779 91.9361C225.547 91.8381 225.362 91.6868 225.226 91.4822C225.092 91.2777 225.026 91.022 225.028 90.7152V85.9148ZM231.51 89.1236V92H230.353V85.4545H231.485V87.9251H231.542C231.657 87.6481 231.835 87.4297 232.076 87.2699C232.319 87.108 232.628 87.027 233.003 87.027C233.344 87.027 233.641 87.0984 233.894 87.2411C234.148 87.3839 234.344 87.5927 234.483 87.8675C234.623 88.1424 234.693 88.478 234.693 88.8743V92H233.536V89.0533C233.536 88.723 233.451 88.4663 233.281 88.283C233.112 88.0977 232.876 88.005 232.571 88.005C232.367 88.005 232.184 88.0497 232.022 88.1392C231.862 88.2266 231.736 88.3533 231.644 88.5195C231.555 88.6857 231.51 88.8871 231.51 89.1236ZM235.873 92V87.0909H237.03V92H235.873ZM236.454 86.3942C236.271 86.3942 236.114 86.3335 235.981 86.212C235.849 86.0884 235.783 85.9403 235.783 85.7678C235.783 85.593 235.849 85.445 235.981 85.3235C236.114 85.1999 236.271 85.1381 236.454 85.1381C236.64 85.1381 236.797 85.1999 236.927 85.3235C237.06 85.445 237.126 85.593 237.126 85.7678C237.126 85.9403 237.06 86.0884 236.927 86.212C236.797 86.3335 236.64 86.3942 236.454 86.3942ZM240.671 87.0909V87.9858H237.849V87.0909H240.671ZM238.545 85.9148H239.702V90.5234C239.702 90.679 239.726 90.7983 239.773 90.8814C239.822 90.9624 239.886 91.0178 239.964 91.0476C240.043 91.0774 240.131 91.0923 240.227 91.0923C240.299 91.0923 240.365 91.087 240.425 91.0763C240.487 91.0657 240.533 91.0561 240.565 91.0476L240.76 91.9521C240.699 91.9734 240.61 91.9968 240.495 92.0224C240.382 92.0479 240.244 92.0629 240.08 92.0671C239.79 92.0756 239.529 92.032 239.297 91.9361C239.064 91.8381 238.88 91.6868 238.744 91.4822C238.609 91.2777 238.543 91.022 238.545 90.7152V85.9148ZM245.448 88.3885L244.393 88.5036C244.364 88.397 244.311 88.2969 244.237 88.2031C244.164 88.1094 244.066 88.0337 243.943 87.9762C243.819 87.9187 243.668 87.8899 243.489 87.8899C243.248 87.8899 243.046 87.9421 242.882 88.0465C242.72 88.1509 242.64 88.2862 242.642 88.4524C242.64 88.5952 242.692 88.7113 242.799 88.8008C242.907 88.8903 243.086 88.9638 243.335 89.0213L244.173 89.2003C244.637 89.3004 244.983 89.4592 245.208 89.6765C245.436 89.8938 245.551 90.1783 245.554 90.5298C245.551 90.8388 245.461 91.1115 245.282 91.348C245.105 91.5824 244.859 91.7656 244.544 91.8977C244.228 92.0298 243.866 92.0959 243.457 92.0959C242.856 92.0959 242.372 91.9702 242.006 91.7188C241.639 91.4652 241.421 91.1126 241.351 90.6609L242.479 90.5522C242.53 90.7738 242.639 90.9411 242.805 91.054C242.971 91.1669 243.187 91.2234 243.454 91.2234C243.729 91.2234 243.949 91.1669 244.115 91.054C244.284 90.9411 244.368 90.8015 244.368 90.6353C244.368 90.4947 244.313 90.3786 244.205 90.2869C244.098 90.1953 243.932 90.125 243.706 90.076L242.869 89.9002C242.398 89.8022 242.05 89.6371 241.824 89.4048C241.598 89.1705 241.486 88.8743 241.488 88.5163C241.486 88.2138 241.568 87.9517 241.734 87.7301C241.903 87.5064 242.136 87.3338 242.434 87.2124C242.735 87.0888 243.081 87.027 243.473 87.027C244.048 87.027 244.501 87.1495 244.831 87.3945C245.164 87.6396 245.369 87.9709 245.448 88.3885Z" fill="black"/>
<path d="M161.504 113.939C161.47 114.213 161.665 114.463 161.939 114.496L166.405 115.045C166.68 115.078 166.929 114.884 166.963 114.609C166.996 114.335 166.801 114.086 166.527 114.052L162.557 113.565L163.045 109.595C163.078 109.32 162.884 109.071 162.609 109.037C162.335 109.004 162.086 109.199 162.052 109.473L161.504 113.939ZM162.308 114.394L194.308 89.394L193.692 88.606L161.692 113.606L162.308 114.394Z" fill="#282828"/>
<path d="M163.902 68.5097C163.631 68.5639 163.456 68.8273 163.51 69.0981L164.392 73.5107C164.446 73.7815 164.71 73.9571 164.981 73.9029C165.251 73.8487 165.427 73.5853 165.373 73.3146L164.588 69.3922L168.511 68.6078C168.781 68.5536 168.957 68.2902 168.903 68.0194C168.849 67.7486 168.585 67.573 168.315 67.6272L163.902 68.5097ZM163.723 69.416L193.723 89.416L194.277 88.584L164.277 68.584L163.723 69.416Z" fill="#282828"/>
</svg>
