<svg width="568" height="53" viewBox="0 0 568 53" fill="none" xmlns="http://www.w3.org/2000/svg">
<path d="M14.7285 6.36364V18H13.1148L7.20005 9.46591H7.0921V18H5.33642V6.36364H6.96142L12.8819 14.9091H12.9898V6.36364H14.7285ZM22.5056 14.3807V9.27273H24.2101V18H22.5397V16.4886H22.4488C22.248 16.9545 21.926 17.3428 21.4829 17.6534C21.0435 17.9602 20.4961 18.1136 19.8408 18.1136C19.2802 18.1136 18.784 17.9905 18.3522 17.7443C17.9241 17.4943 17.587 17.125 17.3408 16.6364C17.0984 16.1477 16.9772 15.5436 16.9772 14.8239V9.27273H18.676V14.6193C18.676 15.214 18.8408 15.6875 19.1704 16.0398C19.4999 16.392 19.9279 16.5682 20.4545 16.5682C20.7726 16.5682 21.0889 16.4886 21.4033 16.3295C21.7215 16.1705 21.9848 15.9299 22.1931 15.608C22.4052 15.286 22.5094 14.8769 22.5056 14.3807ZM26.3168 18V9.27273H27.9475V10.6932H28.0554C28.2373 10.2121 28.5346 9.83712 28.9475 9.56818C29.3604 9.29545 29.8547 9.15909 30.4304 9.15909C31.0138 9.15909 31.5024 9.29545 31.8963 9.56818C32.2941 9.84091 32.5876 10.2159 32.777 10.6932H32.8679C33.0763 10.2273 33.4077 9.85606 33.8623 9.57955C34.3168 9.29924 34.8585 9.15909 35.4873 9.15909C36.2789 9.15909 36.9248 9.4072 37.4248 9.90341C37.9285 10.3996 38.1804 11.1477 38.1804 12.1477V18H36.4816V12.3068C36.4816 11.7159 36.3206 11.2879 35.9986 11.0227C35.6767 10.7576 35.2922 10.625 34.8452 10.625C34.2922 10.625 33.8623 10.7955 33.5554 11.1364C33.2486 11.4735 33.0952 11.9072 33.0952 12.4375V18H31.402V12.1989C31.402 11.7254 31.2543 11.3447 30.9588 11.0568C30.6634 10.7689 30.2789 10.625 29.8054 10.625C29.4835 10.625 29.1861 10.7102 28.9134 10.8807C28.6445 11.0473 28.4267 11.2803 28.26 11.5795C28.0971 11.8788 28.0157 12.2254 28.0157 12.6193V18H26.3168ZM40.4178 18V6.36364H42.1167V10.6875H42.2189C42.3174 10.5057 42.4595 10.2955 42.6451 10.0568C42.8307 9.81818 43.0882 9.60985 43.4178 9.43182C43.7473 9.25 44.1829 9.15909 44.7246 9.15909C45.4292 9.15909 46.0579 9.33712 46.611 9.69318C47.164 10.0492 47.5977 10.5625 47.9121 11.233C48.2303 11.9034 48.3894 12.7102 48.3894 13.6534C48.3894 14.5966 48.2322 15.4053 47.9178 16.0795C47.6034 16.75 47.1716 17.267 46.6223 17.6307C46.0731 17.9905 45.4462 18.1705 44.7417 18.1705C44.2114 18.1705 43.7776 18.0814 43.4405 17.9034C43.1072 17.7254 42.8458 17.517 42.6564 17.2784C42.467 17.0398 42.3212 16.8277 42.2189 16.642H42.0769V18H40.4178ZM42.0826 13.6364C42.0826 14.25 42.1716 14.7879 42.3496 15.25C42.5276 15.7121 42.7852 16.0739 43.1223 16.3352C43.4595 16.5928 43.8723 16.7216 44.361 16.7216C44.8686 16.7216 45.2928 16.5871 45.6337 16.3182C45.9746 16.0455 46.2322 15.6761 46.4064 15.2102C46.5845 14.7443 46.6735 14.2197 46.6735 13.6364C46.6735 13.0606 46.5864 12.5436 46.4121 12.0852C46.2417 11.6269 45.9841 11.2652 45.6394 11C45.2985 10.7348 44.8723 10.6023 44.361 10.6023C43.8686 10.6023 43.4519 10.7292 43.111 10.983C42.7739 11.2367 42.5182 11.5909 42.3439 12.0455C42.1697 12.5 42.0826 13.0303 42.0826 13.6364ZM53.8824 18.1761C53.0226 18.1761 52.282 17.9924 51.6608 17.625C51.0434 17.2538 50.5661 16.733 50.229 16.0625C49.8957 15.3883 49.729 14.5985 49.729 13.6932C49.729 12.7992 49.8957 12.0114 50.229 11.3295C50.5661 10.6477 51.0358 10.1155 51.6381 9.73295C52.2442 9.35038 52.9525 9.15909 53.7631 9.15909C54.2555 9.15909 54.7328 9.24053 55.1949 9.40341C55.657 9.56629 56.0718 9.82197 56.4392 10.1705C56.8067 10.5189 57.0964 10.9716 57.3086 11.5284C57.5207 12.0814 57.6267 12.7538 57.6267 13.5455V14.1477H50.6892V12.875H55.962C55.962 12.428 55.8711 12.0322 55.6892 11.6875C55.5074 11.339 55.2517 11.0644 54.9222 10.8636C54.5964 10.6629 54.2139 10.5625 53.7745 10.5625C53.2972 10.5625 52.8805 10.6799 52.5245 10.9148C52.1722 11.1458 51.8995 11.4489 51.7063 11.8239C51.5169 12.1951 51.4222 12.5985 51.4222 13.0341V14.0284C51.4222 14.6117 51.5245 15.108 51.729 15.517C51.9373 15.9261 52.2271 16.2386 52.5983 16.4545C52.9695 16.6667 53.4033 16.7727 53.8995 16.7727C54.2214 16.7727 54.515 16.7273 54.7801 16.6364C55.0453 16.5417 55.2745 16.4015 55.4676 16.2159C55.6608 16.0303 55.8086 15.8011 55.9108 15.5284L57.5188 15.8182C57.39 16.2917 57.1589 16.7064 56.8256 17.0625C56.4961 17.4148 56.0813 17.6894 55.5813 17.8864C55.0851 18.0795 54.5188 18.1761 53.8824 18.1761ZM59.3357 18V9.27273H60.9777V10.6591H61.0686C61.2277 10.1894 61.508 9.82008 61.9095 9.55114C62.3148 9.27841 62.7732 9.14205 63.2845 9.14205C63.3906 9.14205 63.5156 9.14583 63.6595 9.15341C63.8073 9.16098 63.9228 9.17045 64.0061 9.18182V10.8068C63.938 10.7879 63.8167 10.767 63.6425 10.7443C63.4683 10.7178 63.294 10.7045 63.1198 10.7045C62.7183 10.7045 62.3603 10.7898 62.0459 10.9602C61.7353 11.1269 61.4891 11.3598 61.3073 11.6591C61.1255 11.9545 61.0345 12.2917 61.0345 12.6705V18H59.3357ZM73.0348 18.1761C72.2166 18.1761 71.5026 17.9886 70.8928 17.6136C70.2829 17.2386 69.8094 16.714 69.4723 16.0398C69.1352 15.3655 68.9666 14.5777 68.9666 13.6761C68.9666 12.7708 69.1352 11.9792 69.4723 11.3011C69.8094 10.6231 70.2829 10.0966 70.8928 9.72159C71.5026 9.34659 72.2166 9.15909 73.0348 9.15909C73.853 9.15909 74.567 9.34659 75.1769 9.72159C75.7867 10.0966 76.2602 10.6231 76.5973 11.3011C76.9344 11.9792 77.103 12.7708 77.103 13.6761C77.103 14.5777 76.9344 15.3655 76.5973 16.0398C76.2602 16.714 75.7867 17.2386 75.1769 17.6136C74.567 17.9886 73.853 18.1761 73.0348 18.1761ZM73.0405 16.75C73.5708 16.75 74.0102 16.6098 74.3587 16.3295C74.7072 16.0492 74.9647 15.6761 75.1314 15.2102C75.3019 14.7443 75.3871 14.2311 75.3871 13.6705C75.3871 13.1136 75.3019 12.6023 75.1314 12.1364C74.9647 11.6667 74.7072 11.2898 74.3587 11.0057C74.0102 10.7216 73.5708 10.5795 73.0405 10.5795C72.5064 10.5795 72.0632 10.7216 71.711 11.0057C71.3625 11.2898 71.103 11.6667 70.9325 12.1364C70.7659 12.6023 70.6825 13.1136 70.6825 13.6705C70.6825 14.2311 70.7659 14.7443 70.9325 15.2102C71.103 15.6761 71.3625 16.0492 71.711 16.3295C72.0632 16.6098 72.5064 16.75 73.0405 16.75ZM82.9767 9.27273V10.6364H78.0449V9.27273H82.9767ZM79.3972 18V8.26136C79.3972 7.71591 79.5165 7.26326 79.7551 6.90341C79.9938 6.53977 80.31 6.26894 80.704 6.09091C81.0979 5.90909 81.526 5.81818 81.9881 5.81818C82.329 5.81818 82.6207 5.84659 82.8631 5.90341C83.1055 5.95644 83.2854 6.00568 83.4029 6.05114L83.0051 7.42614C82.9256 7.40341 82.8233 7.37689 82.6983 7.34659C82.5733 7.3125 82.4218 7.29545 82.2438 7.29545C81.8309 7.29545 81.5354 7.39773 81.3574 7.60227C81.1832 7.80682 81.096 8.10227 81.096 8.48864V18H79.3972ZM91.879 18.1705C91.1744 18.1705 90.5456 17.9905 89.9926 17.6307C89.4434 17.267 89.0116 16.75 88.6972 16.0795C88.3866 15.4053 88.2313 14.5966 88.2313 13.6534C88.2313 12.7102 88.3884 11.9034 88.7028 11.233C89.021 10.5625 89.4566 10.0492 90.0097 9.69318C90.5627 9.33712 91.1896 9.15909 91.8903 9.15909C92.432 9.15909 92.8676 9.25 93.1972 9.43182C93.5305 9.60985 93.7881 9.81818 93.9699 10.0568C94.1555 10.2955 94.2994 10.5057 94.4017 10.6875H94.504V6.36364H96.2028V18H94.5438V16.642H94.4017C94.2994 16.8277 94.1517 17.0398 93.9585 17.2784C93.7691 17.517 93.5078 17.7254 93.1744 17.9034C92.8411 18.0814 92.4093 18.1705 91.879 18.1705ZM92.254 16.7216C92.7426 16.7216 93.1555 16.5928 93.4926 16.3352C93.8335 16.0739 94.0911 15.7121 94.2653 15.25C94.4434 14.7879 94.5324 14.25 94.5324 13.6364C94.5324 13.0303 94.4453 12.5 94.271 12.0455C94.0968 11.5909 93.8411 11.2367 93.504 10.983C93.1669 10.7292 92.7502 10.6023 92.254 10.6023C91.7426 10.6023 91.3165 10.7348 90.9756 11C90.6347 11.2652 90.3771 11.6269 90.2028 12.0852C90.0324 12.5436 89.9472 13.0606 89.9472 13.6364C89.9472 14.2197 90.0343 14.7443 90.2085 15.2102C90.3828 15.6761 90.6403 16.0455 90.9813 16.3182C91.3259 16.5871 91.7502 16.7216 92.254 16.7216ZM100.991 18.1932C100.438 18.1932 99.9383 18.0909 99.4913 17.8864C99.0444 17.678 98.6902 17.3769 98.4288 16.983C98.1713 16.589 98.0425 16.1061 98.0425 15.5341C98.0425 15.0417 98.1372 14.6364 98.3266 14.3182C98.5159 14 98.7716 13.7481 99.0936 13.5625C99.4156 13.3769 99.7754 13.2367 100.173 13.142C100.571 13.0473 100.976 12.9754 101.389 12.9261C101.912 12.8655 102.336 12.8163 102.662 12.7784C102.988 12.7367 103.224 12.6705 103.372 12.5795C103.52 12.4886 103.594 12.3409 103.594 12.1364V12.0966C103.594 11.6004 103.453 11.2159 103.173 10.9432C102.897 10.6705 102.484 10.5341 101.935 10.5341C101.363 10.5341 100.912 10.661 100.582 10.9148C100.256 11.1648 100.031 11.4432 99.9061 11.75L98.3095 11.3864C98.4989 10.8561 98.7754 10.428 99.1391 10.1023C99.5065 9.77273 99.9288 9.53409 100.406 9.38636C100.883 9.23485 101.385 9.15909 101.912 9.15909C102.26 9.15909 102.63 9.20076 103.02 9.28409C103.414 9.36364 103.781 9.51136 104.122 9.72727C104.467 9.94318 104.749 10.2519 104.969 10.6534C105.188 11.0511 105.298 11.5682 105.298 12.2045V18H103.639V16.8068H103.571C103.461 17.0265 103.296 17.2424 103.077 17.4545C102.857 17.6667 102.575 17.8428 102.23 17.983C101.885 18.1231 101.472 18.1932 100.991 18.1932ZM101.361 16.8295C101.83 16.8295 102.232 16.7367 102.565 16.5511C102.902 16.3655 103.158 16.1231 103.332 15.8239C103.51 15.5208 103.599 15.197 103.599 14.8523V13.7273C103.539 13.7879 103.421 13.8447 103.247 13.8977C103.077 13.947 102.881 13.9905 102.662 14.0284C102.442 14.0625 102.228 14.0947 102.02 14.125C101.811 14.1515 101.637 14.1742 101.497 14.1932C101.167 14.2348 100.866 14.3049 100.594 14.4034C100.325 14.5019 100.109 14.6439 99.9459 14.8295C99.7868 15.0114 99.7072 15.2538 99.7072 15.5568C99.7072 15.9773 99.8625 16.2955 100.173 16.5114C100.484 16.7235 100.88 16.8295 101.361 16.8295ZM107.385 18V9.27273H109.027V10.6591H109.118C109.277 10.1894 109.557 9.82008 109.959 9.55114C110.364 9.27841 110.822 9.14205 111.334 9.14205C111.44 9.14205 111.565 9.14583 111.709 9.15341C111.857 9.16098 111.972 9.17045 112.055 9.18182V10.8068C111.987 10.7879 111.866 10.767 111.692 10.7443C111.518 10.7178 111.343 10.7045 111.169 10.7045C110.768 10.7045 110.41 10.7898 110.095 10.9602C109.785 11.1269 109.538 11.3598 109.357 11.6591C109.175 11.9545 109.084 12.2917 109.084 12.6705V18H107.385ZM117.939 9.27273V10.6364H113.172V9.27273H117.939ZM114.45 7.18182H116.149V15.4375C116.149 15.767 116.199 16.0152 116.297 16.1818C116.395 16.3447 116.522 16.4564 116.678 16.517C116.837 16.5739 117.009 16.6023 117.195 16.6023C117.331 16.6023 117.45 16.5928 117.553 16.5739C117.655 16.5549 117.735 16.5398 117.791 16.5284L118.098 17.9318C118 17.9697 117.86 18.0076 117.678 18.0455C117.496 18.0871 117.269 18.1098 116.996 18.1136C116.549 18.1212 116.132 18.0417 115.746 17.875C115.36 17.7083 115.047 17.4508 114.808 17.1023C114.57 16.7538 114.45 16.3163 114.45 15.7898V7.18182ZM126.041 11.4034L124.502 11.6761C124.437 11.4792 124.335 11.2917 124.195 11.1136C124.058 10.9356 123.873 10.7898 123.638 10.6761C123.403 10.5625 123.11 10.5057 122.757 10.5057C122.276 10.5057 121.875 10.6136 121.553 10.8295C121.231 11.0417 121.07 11.3163 121.07 11.6534C121.07 11.9451 121.178 12.1799 121.394 12.358C121.61 12.536 121.958 12.6818 122.439 12.7955L123.826 13.1136C124.629 13.2992 125.227 13.5852 125.621 13.9716C126.015 14.358 126.212 14.8598 126.212 15.4773C126.212 16 126.06 16.4659 125.757 16.875C125.458 17.2803 125.04 17.5985 124.502 17.8295C123.968 18.0606 123.348 18.1761 122.644 18.1761C121.666 18.1761 120.869 17.9678 120.252 17.5511C119.634 17.1307 119.255 16.5341 119.115 15.7614L120.757 15.5114C120.86 15.9394 121.07 16.2633 121.388 16.483C121.706 16.6989 122.121 16.8068 122.632 16.8068C123.189 16.8068 123.634 16.6913 123.968 16.4602C124.301 16.2254 124.468 15.9394 124.468 15.6023C124.468 15.3295 124.365 15.1004 124.161 14.9148C123.96 14.7292 123.651 14.589 123.235 14.4943L121.757 14.1705C120.943 13.9848 120.341 13.6894 119.951 13.2841C119.564 12.8788 119.371 12.3655 119.371 11.7443C119.371 11.2292 119.515 10.7784 119.803 10.392C120.091 10.0057 120.488 9.70455 120.996 9.48864C121.504 9.26894 122.085 9.15909 122.74 9.15909C123.683 9.15909 124.426 9.36364 124.968 9.77273C125.509 10.178 125.867 10.7216 126.041 11.4034ZM133.661 12.8182V18H131.962V6.36364H133.638V10.6932H133.746C133.951 10.2235 134.263 9.85038 134.684 9.57386C135.104 9.29735 135.653 9.15909 136.331 9.15909C136.93 9.15909 137.453 9.2822 137.9 9.52841C138.35 9.77462 138.699 10.142 138.945 10.6307C139.195 11.1155 139.32 11.7216 139.32 12.4489V18H137.621V12.6534C137.621 12.0133 137.456 11.517 137.127 11.1648C136.797 10.8087 136.339 10.6307 135.752 10.6307C135.35 10.6307 134.991 10.7159 134.672 10.8864C134.358 11.0568 134.11 11.3068 133.928 11.6364C133.75 11.9621 133.661 12.3561 133.661 12.8182ZM141.411 18V9.27273H143.11V18H141.411ZM142.269 7.92614C141.974 7.92614 141.72 7.82765 141.508 7.63068C141.299 7.42992 141.195 7.19129 141.195 6.91477C141.195 6.63447 141.299 6.39583 141.508 6.19886C141.72 5.99811 141.974 5.89773 142.269 5.89773C142.565 5.89773 142.816 5.99811 143.025 6.19886C143.237 6.39583 143.343 6.63447 143.343 6.91477C143.343 7.19129 143.237 7.42992 143.025 7.63068C142.816 7.82765 142.565 7.92614 142.269 7.92614ZM149.293 9.27273V10.6364H144.526V9.27273H149.293ZM145.805 7.18182H147.504V15.4375C147.504 15.767 147.553 16.0152 147.651 16.1818C147.75 16.3447 147.877 16.4564 148.032 16.517C148.191 16.5739 148.363 16.6023 148.549 16.6023C148.685 16.6023 148.805 16.5928 148.907 16.5739C149.009 16.5549 149.089 16.5398 149.146 16.5284L149.453 17.9318C149.354 17.9697 149.214 18.0076 149.032 18.0455C148.85 18.0871 148.623 18.1098 148.35 18.1136C147.903 18.1212 147.487 18.0417 147.1 17.875C146.714 17.7083 146.401 17.4508 146.163 17.1023C145.924 16.7538 145.805 16.3163 145.805 15.7898V7.18182ZM158.731 18.1761C157.913 18.1761 157.199 17.9886 156.589 17.6136C155.979 17.2386 155.506 16.714 155.169 16.0398C154.832 15.3655 154.663 14.5777 154.663 13.6761C154.663 12.7708 154.832 11.9792 155.169 11.3011C155.506 10.6231 155.979 10.0966 156.589 9.72159C157.199 9.34659 157.913 9.15909 158.731 9.15909C159.549 9.15909 160.263 9.34659 160.873 9.72159C161.483 10.0966 161.957 10.6231 162.294 11.3011C162.631 11.9792 162.799 12.7708 162.799 13.6761C162.799 14.5777 162.631 15.3655 162.294 16.0398C161.957 16.714 161.483 17.2386 160.873 17.6136C160.263 17.9886 159.549 18.1761 158.731 18.1761ZM158.737 16.75C159.267 16.75 159.707 16.6098 160.055 16.3295C160.404 16.0492 160.661 15.6761 160.828 15.2102C160.998 14.7443 161.083 14.2311 161.083 13.6705C161.083 13.1136 160.998 12.6023 160.828 12.1364C160.661 11.6667 160.404 11.2898 160.055 11.0057C159.707 10.7216 159.267 10.5795 158.737 10.5795C158.203 10.5795 157.76 10.7216 157.407 11.0057C157.059 11.2898 156.799 11.6667 156.629 12.1364C156.462 12.6023 156.379 13.1136 156.379 13.6705C156.379 14.2311 156.462 14.7443 156.629 15.2102C156.799 15.6761 157.059 16.0492 157.407 16.3295C157.76 16.6098 158.203 16.75 158.737 16.75ZM166.219 12.8182V18H164.52V9.27273H166.15V10.6932H166.258C166.459 10.2311 166.773 9.85985 167.202 9.57955C167.633 9.29924 168.177 9.15909 168.832 9.15909C169.427 9.15909 169.948 9.28409 170.395 9.53409C170.842 9.7803 171.188 10.1477 171.434 10.6364C171.681 11.125 171.804 11.7292 171.804 12.4489V18H170.105V12.6534C170.105 12.0208 169.94 11.5265 169.611 11.1705C169.281 10.8106 168.828 10.6307 168.253 10.6307C167.859 10.6307 167.508 10.7159 167.202 10.8864C166.898 11.0568 166.658 11.3068 166.48 11.6364C166.306 11.9621 166.219 12.3561 166.219 12.8182ZM182.038 9.27273V10.6364H177.271V9.27273H182.038ZM178.55 7.18182H180.249V15.4375C180.249 15.767 180.298 16.0152 180.396 16.1818C180.495 16.3447 180.622 16.4564 180.777 16.517C180.936 16.5739 181.108 16.6023 181.294 16.6023C181.43 16.6023 181.55 16.5928 181.652 16.5739C181.754 16.5549 181.834 16.5398 181.891 16.5284L182.198 17.9318C182.099 17.9697 181.959 18.0076 181.777 18.0455C181.595 18.0871 181.368 18.1098 181.095 18.1136C180.648 18.1212 180.232 18.0417 179.845 17.875C179.459 17.7083 179.146 17.4508 178.908 17.1023C178.669 16.7538 178.55 16.3163 178.55 15.7898V7.18182ZM185.628 12.8182V18H183.929V6.36364H185.605V10.6932H185.713C185.918 10.2235 186.23 9.85038 186.651 9.57386C187.071 9.29735 187.62 9.15909 188.299 9.15909C188.897 9.15909 189.42 9.2822 189.867 9.52841C190.317 9.77462 190.666 10.142 190.912 10.6307C191.162 11.1155 191.287 11.7216 191.287 12.4489V18H189.588V12.6534C189.588 12.0133 189.424 11.517 189.094 11.1648C188.764 10.8087 188.306 10.6307 187.719 10.6307C187.317 10.6307 186.958 10.7159 186.639 10.8864C186.325 11.0568 186.077 11.3068 185.895 11.6364C185.717 11.9621 185.628 12.3561 185.628 12.8182ZM197.14 18.1761C196.28 18.1761 195.539 17.9924 194.918 17.625C194.301 17.2538 193.823 16.733 193.486 16.0625C193.153 15.3883 192.986 14.5985 192.986 13.6932C192.986 12.7992 193.153 12.0114 193.486 11.3295C193.823 10.6477 194.293 10.1155 194.895 9.73295C195.501 9.35038 196.21 9.15909 197.02 9.15909C197.513 9.15909 197.99 9.24053 198.452 9.40341C198.914 9.56629 199.329 9.82197 199.696 10.1705C200.064 10.5189 200.354 10.9716 200.566 11.5284C200.778 12.0814 200.884 12.7538 200.884 13.5455V14.1477H193.946V12.875H199.219C199.219 12.428 199.128 12.0322 198.946 11.6875C198.765 11.339 198.509 11.0644 198.179 10.8636C197.854 10.6629 197.471 10.5625 197.032 10.5625C196.554 10.5625 196.138 10.6799 195.782 10.9148C195.429 11.1458 195.157 11.4489 194.963 11.8239C194.774 12.1951 194.679 12.5985 194.679 13.0341V14.0284C194.679 14.6117 194.782 15.108 194.986 15.517C195.194 15.9261 195.484 16.2386 195.855 16.4545C196.227 16.6667 196.66 16.7727 197.157 16.7727C197.479 16.7727 197.772 16.7273 198.037 16.6364C198.302 16.5417 198.532 16.4015 198.725 16.2159C198.918 16.0303 199.066 15.8011 199.168 15.5284L200.776 15.8182C200.647 16.2917 200.416 16.7064 200.083 17.0625C199.753 17.4148 199.338 17.6894 198.838 17.8864C198.342 18.0795 197.776 18.1761 197.14 18.1761ZM210.327 18.1761C209.483 18.1761 208.755 17.9848 208.146 17.6023C207.539 17.2159 207.074 16.6837 206.748 16.0057C206.422 15.3277 206.259 14.5511 206.259 13.6761C206.259 12.7898 206.426 12.0076 206.759 11.3295C207.092 10.6477 207.562 10.1155 208.168 9.73295C208.774 9.35038 209.488 9.15909 210.31 9.15909C210.973 9.15909 211.564 9.2822 212.083 9.52841C212.602 9.77083 213.021 10.1117 213.339 10.5511C213.661 10.9905 213.852 11.5038 213.913 12.0909H212.259C212.168 11.6818 211.96 11.3295 211.634 11.0341C211.312 10.7386 210.88 10.5909 210.339 10.5909C209.865 10.5909 209.45 10.7159 209.094 10.9659C208.742 11.2121 208.467 11.5644 208.271 12.0227C208.074 12.4773 207.975 13.0152 207.975 13.6364C207.975 14.2727 208.072 14.822 208.265 15.2841C208.458 15.7462 208.731 16.1042 209.083 16.358C209.439 16.6117 209.858 16.7386 210.339 16.7386C210.661 16.7386 210.952 16.6799 211.214 16.5625C211.479 16.4413 211.7 16.2689 211.878 16.0455C212.06 15.822 212.187 15.553 212.259 15.2386H213.913C213.852 15.803 213.668 16.3068 213.361 16.75C213.055 17.1932 212.644 17.5417 212.128 17.7955C211.617 18.0492 211.017 18.1761 210.327 18.1761ZM215.553 18V9.27273H217.252V18H215.553ZM216.411 7.92614C216.116 7.92614 215.862 7.82765 215.65 7.63068C215.442 7.42992 215.337 7.19129 215.337 6.91477C215.337 6.63447 215.442 6.39583 215.65 6.19886C215.862 5.99811 216.116 5.89773 216.411 5.89773C216.707 5.89773 216.959 5.99811 217.167 6.19886C217.379 6.39583 217.485 6.63447 217.485 6.91477C217.485 7.19129 217.379 7.42992 217.167 7.63068C216.959 7.82765 216.707 7.92614 216.411 7.92614ZM219.362 18V9.27273H221.004V10.6591H221.095C221.254 10.1894 221.534 9.82008 221.936 9.55114C222.341 9.27841 222.799 9.14205 223.311 9.14205C223.417 9.14205 223.542 9.14583 223.686 9.15341C223.833 9.16098 223.949 9.17045 224.032 9.18182V10.8068C223.964 10.7879 223.843 10.767 223.668 10.7443C223.494 10.7178 223.32 10.7045 223.146 10.7045C222.744 10.7045 222.386 10.7898 222.072 10.9602C221.761 11.1269 221.515 11.3598 221.333 11.6591C221.151 11.9545 221.061 12.2917 221.061 12.6705V18H219.362ZM228.69 18.1761C227.845 18.1761 227.118 17.9848 226.508 17.6023C225.902 17.2159 225.436 16.6837 225.11 16.0057C224.785 15.3277 224.622 14.5511 224.622 13.6761C224.622 12.7898 224.788 12.0076 225.122 11.3295C225.455 10.6477 225.925 10.1155 226.531 9.73295C227.137 9.35038 227.851 9.15909 228.673 9.15909C229.336 9.15909 229.927 9.2822 230.446 9.52841C230.965 9.77083 231.383 10.1117 231.701 10.5511C232.023 10.9905 232.215 11.5038 232.275 12.0909H230.622C230.531 11.6818 230.323 11.3295 229.997 11.0341C229.675 10.7386 229.243 10.5909 228.701 10.5909C228.228 10.5909 227.813 10.7159 227.457 10.9659C227.105 11.2121 226.83 11.5644 226.633 12.0227C226.436 12.4773 226.338 13.0152 226.338 13.6364C226.338 14.2727 226.434 14.822 226.627 15.2841C226.821 15.7462 227.093 16.1042 227.446 16.358C227.802 16.6117 228.22 16.7386 228.701 16.7386C229.023 16.7386 229.315 16.6799 229.576 16.5625C229.841 16.4413 230.063 16.2689 230.241 16.0455C230.423 15.822 230.55 15.553 230.622 15.2386H232.275C232.215 15.803 232.031 16.3068 231.724 16.75C231.417 17.1932 231.006 17.5417 230.491 17.7955C229.98 18.0492 229.379 18.1761 228.69 18.1761ZM235.615 6.36364V18H233.916V6.36364H235.615ZM241.486 18.1761C240.626 18.1761 239.885 17.9924 239.264 17.625C238.647 17.2538 238.169 16.733 237.832 16.0625C237.499 15.3883 237.332 14.5985 237.332 13.6932C237.332 12.7992 237.499 12.0114 237.832 11.3295C238.169 10.6477 238.639 10.1155 239.241 9.73295C239.847 9.35038 240.556 9.15909 241.366 9.15909C241.859 9.15909 242.336 9.24053 242.798 9.40341C243.26 9.56629 243.675 9.82197 244.042 10.1705C244.41 10.5189 244.7 10.9716 244.912 11.5284C245.124 12.0814 245.23 12.7538 245.23 13.5455V14.1477H238.292V12.875H243.565C243.565 12.428 243.474 12.0322 243.292 11.6875C243.111 11.339 242.855 11.0644 242.525 10.8636C242.2 10.6629 241.817 10.5625 241.378 10.5625C240.9 10.5625 240.484 10.6799 240.128 10.9148C239.775 11.1458 239.503 11.4489 239.31 11.8239C239.12 12.1951 239.025 12.5985 239.025 13.0341V14.0284C239.025 14.6117 239.128 15.108 239.332 15.517C239.541 15.9261 239.83 16.2386 240.202 16.4545C240.573 16.6667 241.007 16.7727 241.503 16.7727C241.825 16.7727 242.118 16.7273 242.383 16.6364C242.649 16.5417 242.878 16.4015 243.071 16.2159C243.264 16.0303 243.412 15.8011 243.514 15.5284L245.122 15.8182C244.993 16.2917 244.762 16.7064 244.429 17.0625C244.099 17.4148 243.685 17.6894 243.185 17.8864C242.688 18.0795 242.122 18.1761 241.486 18.1761ZM259.66 12.4148V10.9205H266.938V12.4148H259.66ZM259.66 15.9148V14.4205H266.938V15.9148H259.66ZM291.006 18H289.142L293.329 6.36364H295.358L299.545 18H297.682L294.392 8.47727H294.301L291.006 18ZM291.318 13.4432H297.363V14.9205H291.318V13.4432ZM300.913 18V9.27273H302.555V10.6591H302.646C302.805 10.1894 303.086 9.82008 303.487 9.55114C303.892 9.27841 304.351 9.14205 304.862 9.14205C304.968 9.14205 305.093 9.14583 305.237 9.15341C305.385 9.16098 305.5 9.17045 305.584 9.18182V10.8068C305.516 10.7879 305.394 10.767 305.22 10.7443C305.046 10.7178 304.872 10.7045 304.697 10.7045C304.296 10.7045 303.938 10.7898 303.624 10.9602C303.313 11.1269 303.067 11.3598 302.885 11.6591C302.703 11.9545 302.612 12.2917 302.612 12.6705V18H300.913ZM310.327 18.1761C309.467 18.1761 308.726 17.9924 308.105 17.625C307.488 17.2538 307.01 16.733 306.673 16.0625C306.34 15.3883 306.173 14.5985 306.173 13.6932C306.173 12.7992 306.34 12.0114 306.673 11.3295C307.01 10.6477 307.48 10.1155 308.082 9.73295C308.689 9.35038 309.397 9.15909 310.207 9.15909C310.7 9.15909 311.177 9.24053 311.639 9.40341C312.101 9.56629 312.516 9.82197 312.884 10.1705C313.251 10.5189 313.541 10.9716 313.753 11.5284C313.965 12.0814 314.071 12.7538 314.071 13.5455V14.1477H307.134V12.875H312.406C312.406 12.428 312.315 12.0322 312.134 11.6875C311.952 11.339 311.696 11.0644 311.367 10.8636C311.041 10.6629 310.658 10.5625 310.219 10.5625C309.742 10.5625 309.325 10.6799 308.969 10.9148C308.617 11.1458 308.344 11.4489 308.151 11.8239C307.961 12.1951 307.867 12.5985 307.867 13.0341V14.0284C307.867 14.6117 307.969 15.108 308.173 15.517C308.382 15.9261 308.671 16.2386 309.043 16.4545C309.414 16.6667 309.848 16.7727 310.344 16.7727C310.666 16.7727 310.959 16.7273 311.225 16.6364C311.49 16.5417 311.719 16.4015 311.912 16.2159C312.105 16.0303 312.253 15.8011 312.355 15.5284L313.963 15.8182C313.834 16.2917 313.603 16.7064 313.27 17.0625C312.94 17.4148 312.526 17.6894 312.026 17.8864C311.529 18.0795 310.963 18.1761 310.327 18.1761ZM318.32 18.1932C317.767 18.1932 317.267 18.0909 316.82 17.8864C316.373 17.678 316.019 17.3769 315.757 16.983C315.5 16.589 315.371 16.1061 315.371 15.5341C315.371 15.0417 315.466 14.6364 315.655 14.3182C315.844 14 316.1 13.7481 316.422 13.5625C316.744 13.3769 317.104 13.2367 317.502 13.142C317.899 13.0473 318.305 12.9754 318.718 12.9261C319.24 12.8655 319.665 12.8163 319.99 12.7784C320.316 12.7367 320.553 12.6705 320.701 12.5795C320.848 12.4886 320.922 12.3409 320.922 12.1364V12.0966C320.922 11.6004 320.782 11.2159 320.502 10.9432C320.225 10.6705 319.812 10.5341 319.263 10.5341C318.691 10.5341 318.24 10.661 317.911 10.9148C317.585 11.1648 317.36 11.4432 317.235 11.75L315.638 11.3864C315.827 10.8561 316.104 10.428 316.468 10.1023C316.835 9.77273 317.257 9.53409 317.735 9.38636C318.212 9.23485 318.714 9.15909 319.24 9.15909C319.589 9.15909 319.958 9.20076 320.348 9.28409C320.742 9.36364 321.11 9.51136 321.451 9.72727C321.795 9.94318 322.077 10.2519 322.297 10.6534C322.517 11.0511 322.627 11.5682 322.627 12.2045V18H320.968V16.8068H320.899C320.79 17.0265 320.625 17.2424 320.405 17.4545C320.185 17.6667 319.903 17.8428 319.558 17.983C319.214 18.1231 318.801 18.1932 318.32 18.1932ZM318.689 16.8295C319.159 16.8295 319.56 16.7367 319.894 16.5511C320.231 16.3655 320.486 16.1231 320.661 15.8239C320.839 15.5208 320.928 15.197 320.928 14.8523V13.7273C320.867 13.7879 320.75 13.8447 320.576 13.8977C320.405 13.947 320.21 13.9905 319.99 14.0284C319.771 14.0625 319.557 14.0947 319.348 14.125C319.14 14.1515 318.966 14.1742 318.826 14.1932C318.496 14.2348 318.195 14.3049 317.922 14.4034C317.653 14.5019 317.437 14.6439 317.274 14.8295C317.115 15.0114 317.036 15.2538 317.036 15.5568C317.036 15.9773 317.191 16.2955 317.502 16.5114C317.812 16.7235 318.208 16.8295 318.689 16.8295ZM332.448 18.1761C331.63 18.1761 330.916 17.9886 330.306 17.6136C329.696 17.2386 329.223 16.714 328.885 16.0398C328.548 15.3655 328.38 14.5777 328.38 13.6761C328.38 12.7708 328.548 11.9792 328.885 11.3011C329.223 10.6231 329.696 10.0966 330.306 9.72159C330.916 9.34659 331.63 9.15909 332.448 9.15909C333.266 9.15909 333.98 9.34659 334.59 9.72159C335.2 10.0966 335.673 10.6231 336.01 11.3011C336.348 11.9792 336.516 12.7708 336.516 13.6761C336.516 14.5777 336.348 15.3655 336.01 16.0398C335.673 16.714 335.2 17.2386 334.59 17.6136C333.98 17.9886 333.266 18.1761 332.448 18.1761ZM332.454 16.75C332.984 16.75 333.423 16.6098 333.772 16.3295C334.12 16.0492 334.378 15.6761 334.545 15.2102C334.715 14.7443 334.8 14.2311 334.8 13.6705C334.8 13.1136 334.715 12.6023 334.545 12.1364C334.378 11.6667 334.12 11.2898 333.772 11.0057C333.423 10.7216 332.984 10.5795 332.454 10.5795C331.92 10.5795 331.476 10.7216 331.124 11.0057C330.776 11.2898 330.516 11.6667 330.346 12.1364C330.179 12.6023 330.096 13.1136 330.096 13.6705C330.096 14.2311 330.179 14.7443 330.346 15.2102C330.516 15.6761 330.776 16.0492 331.124 16.3295C331.476 16.6098 331.92 16.75 332.454 16.75ZM342.39 9.27273V10.6364H337.458V9.27273H342.39ZM338.81 18V8.26136C338.81 7.71591 338.93 7.26326 339.168 6.90341C339.407 6.53977 339.723 6.26894 340.117 6.09091C340.511 5.90909 340.939 5.81818 341.401 5.81818C341.742 5.81818 342.034 5.84659 342.276 5.90341C342.519 5.95644 342.699 6.00568 342.816 6.05114L342.418 7.42614C342.339 7.40341 342.236 7.37689 342.111 7.34659C341.986 7.3125 341.835 7.29545 341.657 7.29545C341.244 7.29545 340.949 7.39773 340.771 7.60227C340.596 7.80682 340.509 8.10227 340.509 8.48864V18H338.81ZM352.099 9.27273V10.6364H347.332V9.27273H352.099ZM348.61 7.18182H350.309V15.4375C350.309 15.767 350.358 16.0152 350.457 16.1818C350.555 16.3447 350.682 16.4564 350.838 16.517C350.997 16.5739 351.169 16.6023 351.355 16.6023C351.491 16.6023 351.61 16.5928 351.713 16.5739C351.815 16.5549 351.894 16.5398 351.951 16.5284L352.258 17.9318C352.16 17.9697 352.019 18.0076 351.838 18.0455C351.656 18.0871 351.428 18.1098 351.156 18.1136C350.709 18.1212 350.292 18.0417 349.906 17.875C349.519 17.7083 349.207 17.4508 348.968 17.1023C348.73 16.7538 348.61 16.3163 348.61 15.7898V7.18182ZM355.689 12.8182V18H353.99V6.36364H355.666V10.6932H355.774C355.978 10.2235 356.291 9.85038 356.711 9.57386C357.132 9.29735 357.681 9.15909 358.359 9.15909C358.957 9.15909 359.48 9.2822 359.927 9.52841C360.378 9.77462 360.726 10.142 360.973 10.6307C361.223 11.1155 361.348 11.7216 361.348 12.4489V18H359.649V12.6534C359.649 12.0133 359.484 11.517 359.154 11.1648C358.825 10.8087 358.367 10.6307 357.779 10.6307C357.378 10.6307 357.018 10.7159 356.7 10.8864C356.386 11.0568 356.137 11.3068 355.956 11.6364C355.778 11.9621 355.689 12.3561 355.689 12.8182ZM367.2 18.1761C366.34 18.1761 365.6 17.9924 364.978 17.625C364.361 17.2538 363.884 16.733 363.547 16.0625C363.213 15.3883 363.047 14.5985 363.047 13.6932C363.047 12.7992 363.213 12.0114 363.547 11.3295C363.884 10.6477 364.353 10.1155 364.956 9.73295C365.562 9.35038 366.27 9.15909 367.081 9.15909C367.573 9.15909 368.05 9.24053 368.513 9.40341C368.975 9.56629 369.389 9.82197 369.757 10.1705C370.124 10.5189 370.414 10.9716 370.626 11.5284C370.838 12.0814 370.944 12.7538 370.944 13.5455V14.1477H364.007V12.875H369.28C369.28 12.428 369.189 12.0322 369.007 11.6875C368.825 11.339 368.569 11.0644 368.24 10.8636C367.914 10.6629 367.531 10.5625 367.092 10.5625C366.615 10.5625 366.198 10.6799 365.842 10.9148C365.49 11.1458 365.217 11.4489 365.024 11.8239C364.835 12.1951 364.74 12.5985 364.74 13.0341V14.0284C364.74 14.6117 364.842 15.108 365.047 15.517C365.255 15.9261 365.545 16.2386 365.916 16.4545C366.287 16.6667 366.721 16.7727 367.217 16.7727C367.539 16.7727 367.833 16.7273 368.098 16.6364C368.363 16.5417 368.592 16.4015 368.785 16.2159C368.978 16.0303 369.126 15.8011 369.228 15.5284L370.836 15.8182C370.708 16.2917 370.477 16.7064 370.143 17.0625C369.814 17.4148 369.399 17.6894 368.899 17.8864C368.403 18.0795 367.836 18.1761 367.2 18.1761ZM380.388 18.1761C379.543 18.1761 378.816 17.9848 378.206 17.6023C377.6 17.2159 377.134 16.6837 376.808 16.0057C376.483 15.3277 376.32 14.5511 376.32 13.6761C376.32 12.7898 376.486 12.0076 376.82 11.3295C377.153 10.6477 377.623 10.1155 378.229 9.73295C378.835 9.35038 379.549 9.15909 380.371 9.15909C381.034 9.15909 381.625 9.2822 382.144 9.52841C382.662 9.77083 383.081 10.1117 383.399 10.5511C383.721 10.9905 383.912 11.5038 383.973 12.0909H382.32C382.229 11.6818 382.02 11.3295 381.695 11.0341C381.373 10.7386 380.941 10.5909 380.399 10.5909C379.926 10.5909 379.511 10.7159 379.155 10.9659C378.803 11.2121 378.528 11.5644 378.331 12.0227C378.134 12.4773 378.036 13.0152 378.036 13.6364C378.036 14.2727 378.132 14.822 378.325 15.2841C378.519 15.7462 378.791 16.1042 379.144 16.358C379.5 16.6117 379.918 16.7386 380.399 16.7386C380.721 16.7386 381.013 16.6799 381.274 16.5625C381.539 16.4413 381.761 16.2689 381.939 16.0455C382.121 15.822 382.248 15.553 382.32 15.2386H383.973C383.912 15.803 383.729 16.3068 383.422 16.75C383.115 17.1932 382.704 17.5417 382.189 17.7955C381.678 18.0492 381.077 18.1761 380.388 18.1761ZM385.614 18V9.27273H387.313V18H385.614ZM386.472 7.92614C386.176 7.92614 385.923 7.82765 385.71 7.63068C385.502 7.42992 385.398 7.19129 385.398 6.91477C385.398 6.63447 385.502 6.39583 385.71 6.19886C385.923 5.99811 386.176 5.89773 386.472 5.89773C386.767 5.89773 387.019 5.99811 387.227 6.19886C387.44 6.39583 387.546 6.63447 387.546 6.91477C387.546 7.19129 387.44 7.42992 387.227 7.63068C387.019 7.82765 386.767 7.92614 386.472 7.92614ZM389.422 18V9.27273H391.064V10.6591H391.155C391.314 10.1894 391.595 9.82008 391.996 9.55114C392.401 9.27841 392.86 9.14205 393.371 9.14205C393.477 9.14205 393.602 9.14583 393.746 9.15341C393.894 9.16098 394.009 9.17045 394.093 9.18182V10.8068C394.024 10.7879 393.903 10.767 393.729 10.7443C393.555 10.7178 393.38 10.7045 393.206 10.7045C392.805 10.7045 392.447 10.7898 392.132 10.9602C391.822 11.1269 391.576 11.3598 391.394 11.6591C391.212 11.9545 391.121 12.2917 391.121 12.6705V18H389.422ZM398.75 18.1761C397.906 18.1761 397.178 17.9848 396.569 17.6023C395.963 17.2159 395.497 16.6837 395.171 16.0057C394.845 15.3277 394.682 14.5511 394.682 13.6761C394.682 12.7898 394.849 12.0076 395.182 11.3295C395.516 10.6477 395.985 10.1155 396.591 9.73295C397.197 9.35038 397.911 9.15909 398.733 9.15909C399.396 9.15909 399.987 9.2822 400.506 9.52841C401.025 9.77083 401.444 10.1117 401.762 10.5511C402.084 10.9905 402.275 11.5038 402.336 12.0909H400.682C400.591 11.6818 400.383 11.3295 400.057 11.0341C399.735 10.7386 399.303 10.5909 398.762 10.5909C398.288 10.5909 397.874 10.7159 397.517 10.9659C397.165 11.2121 396.891 11.5644 396.694 12.0227C396.497 12.4773 396.398 13.0152 396.398 13.6364C396.398 14.2727 396.495 14.822 396.688 15.2841C396.881 15.7462 397.154 16.1042 397.506 16.358C397.862 16.6117 398.281 16.7386 398.762 16.7386C399.084 16.7386 399.375 16.6799 399.637 16.5625C399.902 16.4413 400.124 16.2689 400.302 16.0455C400.483 15.822 400.61 15.553 400.682 15.2386H402.336C402.275 15.803 402.091 16.3068 401.785 16.75C401.478 17.1932 401.067 17.5417 400.552 17.7955C400.04 18.0492 399.44 18.1761 398.75 18.1761ZM409.505 14.3807V9.27273H411.209V18H409.539V16.4886H409.448C409.247 16.9545 408.925 17.3428 408.482 17.6534C408.043 17.9602 407.495 18.1136 406.84 18.1136C406.279 18.1136 405.783 17.9905 405.351 17.7443C404.923 17.4943 404.586 17.125 404.34 16.6364C404.098 16.1477 403.976 15.5436 403.976 14.8239V9.27273H405.675V14.6193C405.675 15.214 405.84 15.6875 406.17 16.0398C406.499 16.392 406.927 16.5682 407.454 16.5682C407.772 16.5682 408.088 16.4886 408.403 16.3295C408.721 16.1705 408.984 15.9299 409.192 15.608C409.404 15.286 409.509 14.8769 409.505 14.3807ZM415.015 6.36364V18H413.316V6.36364H415.015ZM419.664 18.1932C419.111 18.1932 418.611 18.0909 418.164 17.8864C417.717 17.678 417.363 17.3769 417.102 16.983C416.844 16.589 416.715 16.1061 416.715 15.5341C416.715 15.0417 416.81 14.6364 416.999 14.3182C417.189 14 417.445 13.7481 417.766 13.5625C418.088 13.3769 418.448 13.2367 418.846 13.142C419.244 13.0473 419.649 12.9754 420.062 12.9261C420.585 12.8655 421.009 12.8163 421.335 12.7784C421.66 12.7367 421.897 12.6705 422.045 12.5795C422.193 12.4886 422.266 12.3409 422.266 12.1364V12.0966C422.266 11.6004 422.126 11.2159 421.846 10.9432C421.57 10.6705 421.157 10.5341 420.607 10.5341C420.035 10.5341 419.585 10.661 419.255 10.9148C418.929 11.1648 418.704 11.4432 418.579 11.75L416.982 11.3864C417.172 10.8561 417.448 10.428 417.812 10.1023C418.179 9.77273 418.602 9.53409 419.079 9.38636C419.556 9.23485 420.058 9.15909 420.585 9.15909C420.933 9.15909 421.302 9.20076 421.693 9.28409C422.087 9.36364 422.454 9.51136 422.795 9.72727C423.14 9.94318 423.422 10.2519 423.641 10.6534C423.861 11.0511 423.971 11.5682 423.971 12.2045V18H422.312V16.8068H422.244C422.134 17.0265 421.969 17.2424 421.749 17.4545C421.53 17.6667 421.248 17.8428 420.903 17.983C420.558 18.1231 420.145 18.1932 419.664 18.1932ZM420.034 16.8295C420.503 16.8295 420.905 16.7367 421.238 16.5511C421.575 16.3655 421.831 16.1231 422.005 15.8239C422.183 15.5208 422.272 15.197 422.272 14.8523V13.7273C422.212 13.7879 422.094 13.8447 421.92 13.8977C421.749 13.947 421.554 13.9905 421.335 14.0284C421.115 14.0625 420.901 14.0947 420.693 14.125C420.484 14.1515 420.31 14.1742 420.17 14.1932C419.84 14.2348 419.539 14.3049 419.266 14.4034C418.998 14.5019 418.782 14.6439 418.619 14.8295C418.46 15.0114 418.38 15.2538 418.38 15.5568C418.38 15.9773 418.535 16.2955 418.846 16.5114C419.157 16.7235 419.552 16.8295 420.034 16.8295ZM426.058 18V9.27273H427.7V10.6591H427.791C427.95 10.1894 428.23 9.82008 428.632 9.55114C429.037 9.27841 429.495 9.14205 430.007 9.14205C430.113 9.14205 430.238 9.14583 430.382 9.15341C430.529 9.16098 430.645 9.17045 430.728 9.18182V10.8068C430.66 10.7879 430.539 10.767 430.365 10.7443C430.19 10.7178 430.016 10.7045 429.842 10.7045C429.44 10.7045 429.082 10.7898 428.768 10.9602C428.457 11.1269 428.211 11.3598 428.029 11.6591C427.848 11.9545 427.757 12.2917 427.757 12.6705V18H426.058ZM436.081 21.2727V9.27273H437.74V10.6875H437.882C437.98 10.5057 438.122 10.2955 438.308 10.0568C438.494 9.81818 438.751 9.60985 439.081 9.43182C439.41 9.25 439.846 9.15909 440.388 9.15909C441.092 9.15909 441.721 9.33712 442.274 9.69318C442.827 10.0492 443.261 10.5625 443.575 11.233C443.893 11.9034 444.052 12.7102 444.052 13.6534C444.052 14.5966 443.895 15.4053 443.581 16.0795C443.266 16.75 442.835 17.267 442.285 17.6307C441.736 17.9905 441.109 18.1705 440.405 18.1705C439.874 18.1705 439.441 18.0814 439.104 17.9034C438.77 17.7254 438.509 17.517 438.319 17.2784C438.13 17.0398 437.984 16.8277 437.882 16.642H437.78V21.2727H436.081ZM437.746 13.6364C437.746 14.25 437.835 14.7879 438.013 15.25C438.191 15.7121 438.448 16.0739 438.785 16.3352C439.122 16.5928 439.535 16.7216 440.024 16.7216C440.532 16.7216 440.956 16.5871 441.297 16.3182C441.638 16.0455 441.895 15.6761 442.069 15.2102C442.247 14.7443 442.336 14.2197 442.336 13.6364C442.336 13.0606 442.249 12.5436 442.075 12.0852C441.905 11.6269 441.647 11.2652 441.302 11C440.961 10.7348 440.535 10.6023 440.024 10.6023C439.532 10.6023 439.115 10.7292 438.774 10.983C438.437 11.2367 438.181 11.5909 438.007 12.0455C437.833 12.5 437.746 13.0303 437.746 13.6364ZM448.32 18.1932C447.767 18.1932 447.267 18.0909 446.82 17.8864C446.373 17.678 446.018 17.3769 445.757 16.983C445.499 16.589 445.371 16.1061 445.371 15.5341C445.371 15.0417 445.465 14.6364 445.655 14.3182C445.844 14 446.1 13.7481 446.422 13.5625C446.744 13.3769 447.104 13.2367 447.501 13.142C447.899 13.0473 448.304 12.9754 448.717 12.9261C449.24 12.8655 449.664 12.8163 449.99 12.7784C450.316 12.7367 450.553 12.6705 450.7 12.5795C450.848 12.4886 450.922 12.3409 450.922 12.1364V12.0966C450.922 11.6004 450.782 11.2159 450.501 10.9432C450.225 10.6705 449.812 10.5341 449.263 10.5341C448.691 10.5341 448.24 10.661 447.91 10.9148C447.585 11.1648 447.359 11.4432 447.234 11.75L445.638 11.3864C445.827 10.8561 446.104 10.428 446.467 10.1023C446.835 9.77273 447.257 9.53409 447.734 9.38636C448.212 9.23485 448.714 9.15909 449.24 9.15909C449.589 9.15909 449.958 9.20076 450.348 9.28409C450.742 9.36364 451.109 9.51136 451.45 9.72727C451.795 9.94318 452.077 10.2519 452.297 10.6534C452.517 11.0511 452.626 11.5682 452.626 12.2045V18H450.967V16.8068H450.899C450.789 17.0265 450.624 17.2424 450.405 17.4545C450.185 17.6667 449.903 17.8428 449.558 17.983C449.214 18.1231 448.801 18.1932 448.32 18.1932ZM448.689 16.8295C449.159 16.8295 449.56 16.7367 449.893 16.5511C450.231 16.3655 450.486 16.1231 450.66 15.8239C450.839 15.5208 450.928 15.197 450.928 14.8523V13.7273C450.867 13.7879 450.749 13.8447 450.575 13.8977C450.405 13.947 450.21 13.9905 449.99 14.0284C449.77 14.0625 449.556 14.0947 449.348 14.125C449.14 14.1515 448.965 14.1742 448.825 14.1932C448.496 14.2348 448.195 14.3049 447.922 14.4034C447.653 14.5019 447.437 14.6439 447.274 14.8295C447.115 15.0114 447.035 15.2538 447.035 15.5568C447.035 15.9773 447.191 16.2955 447.501 16.5114C447.812 16.7235 448.208 16.8295 448.689 16.8295ZM454.713 18V9.27273H456.355V10.6591H456.446C456.605 10.1894 456.886 9.82008 457.287 9.55114C457.692 9.27841 458.151 9.14205 458.662 9.14205C458.768 9.14205 458.893 9.14583 459.037 9.15341C459.185 9.16098 459.3 9.17045 459.384 9.18182V10.8068C459.315 10.7879 459.194 10.767 459.02 10.7443C458.846 10.7178 458.672 10.7045 458.497 10.7045C458.096 10.7045 457.738 10.7898 457.423 10.9602C457.113 11.1269 456.867 11.3598 456.685 11.6591C456.503 11.9545 456.412 12.2917 456.412 12.6705V18H454.713ZM465.267 9.27273V10.6364H460.5V9.27273H465.267ZM461.779 7.18182H463.478V15.4375C463.478 15.767 463.527 16.0152 463.625 16.1818C463.724 16.3447 463.851 16.4564 464.006 16.517C464.165 16.5739 464.337 16.6023 464.523 16.6023C464.659 16.6023 464.779 16.5928 464.881 16.5739C464.983 16.5549 465.063 16.5398 465.12 16.5284L465.426 17.9318C465.328 17.9697 465.188 18.0076 465.006 18.0455C464.824 18.0871 464.597 18.1098 464.324 18.1136C463.877 18.1212 463.46 18.0417 463.074 17.875C462.688 17.7083 462.375 17.4508 462.137 17.1023C461.898 16.7538 461.779 16.3163 461.779 15.7898V7.18182ZM471.523 13.1705C471.523 11.7462 471.711 10.4356 472.086 9.23864C472.461 8.04167 473.008 6.9375 473.728 5.92614H475.285C475.004 6.30114 474.743 6.76136 474.501 7.30682C474.258 7.85227 474.046 8.45076 473.864 9.10227C473.682 9.75 473.54 10.4223 473.438 11.1193C473.336 11.8125 473.285 12.4962 473.285 13.1705C473.285 14.072 473.374 14.9848 473.552 15.9091C473.73 16.8333 473.97 17.6913 474.273 18.483C474.576 19.2746 474.913 19.9205 475.285 20.4205H473.728C473.008 19.4091 472.461 18.3049 472.086 17.108C471.711 15.911 471.523 14.5985 471.523 13.1705ZM478.019 18H476.155L480.343 6.36364H482.371L486.559 18H484.695L481.405 8.47727H481.315L478.019 18ZM478.332 13.4432H484.377V14.9205H478.332V13.4432ZM491.462 18.1761C490.618 18.1761 489.89 17.9848 489.281 17.6023C488.675 17.2159 488.209 16.6837 487.883 16.0057C487.557 15.3277 487.394 14.5511 487.394 13.6761C487.394 12.7898 487.561 12.0076 487.894 11.3295C488.228 10.6477 488.697 10.1155 489.303 9.73295C489.909 9.35038 490.623 9.15909 491.445 9.15909C492.108 9.15909 492.699 9.2822 493.218 9.52841C493.737 9.77083 494.156 10.1117 494.474 10.5511C494.796 10.9905 494.987 11.5038 495.048 12.0909H493.394C493.303 11.6818 493.095 11.3295 492.769 11.0341C492.447 10.7386 492.015 10.5909 491.474 10.5909C491 10.5909 490.586 10.7159 490.229 10.9659C489.877 11.2121 489.603 11.5644 489.406 12.0227C489.209 12.4773 489.11 13.0152 489.11 13.6364C489.11 14.2727 489.207 14.822 489.4 15.2841C489.593 15.7462 489.866 16.1042 490.218 16.358C490.574 16.6117 490.993 16.7386 491.474 16.7386C491.796 16.7386 492.087 16.6799 492.349 16.5625C492.614 16.4413 492.836 16.2689 493.014 16.0455C493.195 15.822 493.322 15.553 493.394 15.2386H495.048C494.987 15.803 494.803 16.3068 494.497 16.75C494.19 17.1932 493.779 17.5417 493.264 17.7955C492.752 18.0492 492.152 18.1761 491.462 18.1761ZM499.955 13.1705C499.955 14.5985 499.768 15.911 499.393 17.108C499.018 18.3049 498.471 19.4091 497.751 20.4205H496.194C496.474 20.0455 496.736 19.5852 496.978 19.0398C497.221 18.4943 497.433 17.8977 497.615 17.25C497.796 16.5985 497.938 15.9242 498.041 15.2273C498.143 14.5303 498.194 13.8447 498.194 13.1705C498.194 12.2727 498.105 11.3617 497.927 10.4375C497.749 9.51326 497.509 8.6553 497.205 7.86364C496.902 7.07197 496.565 6.42614 496.194 5.92614H497.751C498.471 6.9375 499.018 8.04167 499.393 9.23864C499.768 10.4356 499.955 11.7462 499.955 13.1705ZM519.338 12.4148V10.9205H526.617V12.4148H519.338ZM519.338 15.9148V14.4205H526.617V15.9148H519.338ZM541.943 12.1818C541.943 10.7576 542.13 9.44697 542.505 8.25C542.88 7.05303 543.427 5.94886 544.147 4.9375H545.704C545.424 5.3125 545.162 5.77273 544.92 6.31818C544.677 6.86364 544.465 7.46212 544.283 8.11364C544.102 8.76136 543.96 9.43371 543.857 10.1307C543.755 10.8239 543.704 11.5076 543.704 12.1818C543.704 13.0833 543.793 13.9962 543.971 14.9205C544.149 15.8447 544.389 16.7027 544.693 17.4943C544.996 18.286 545.333 18.9318 545.704 19.4318H544.147C543.427 18.4205 542.88 17.3163 542.505 16.1193C542.13 14.9223 541.943 13.6098 541.943 12.1818ZM547.455 18V6.36364H551.603C552.508 6.36364 553.258 6.52841 553.853 6.85795C554.448 7.1875 554.893 7.63826 555.188 8.21023C555.484 8.77841 555.632 9.41856 555.632 10.1307C555.632 10.8466 555.482 11.4905 555.183 12.0625C554.887 12.6307 554.44 13.0814 553.842 13.4148C553.247 13.7443 552.499 13.9091 551.597 13.9091H548.745V12.4205H551.438C552.01 12.4205 552.474 12.322 552.83 12.125C553.186 11.9242 553.448 11.6515 553.615 11.3068C553.781 10.9621 553.865 10.5701 553.865 10.1307C553.865 9.69129 553.781 9.30114 553.615 8.96023C553.448 8.61932 553.185 8.35227 552.825 8.15909C552.469 7.96591 551.999 7.86932 551.416 7.86932H549.211V18H547.455ZM560.645 12.1818C560.645 13.6098 560.457 14.9223 560.082 16.1193C559.707 17.3163 559.16 18.4205 558.44 19.4318H556.883C557.163 19.0568 557.425 18.5966 557.667 18.0511C557.91 17.5057 558.122 16.9091 558.304 16.2614C558.485 15.6098 558.627 14.9356 558.73 14.2386C558.832 13.5417 558.883 12.8561 558.883 12.1818C558.883 11.2841 558.794 10.3731 558.616 9.44886C558.438 8.52462 558.198 7.66667 557.895 6.875C557.591 6.08333 557.254 5.4375 556.883 4.9375H558.44C559.16 5.94886 559.707 7.05303 560.082 8.25C560.457 9.44697 560.645 10.7576 560.645 12.1818ZM16.9377 31.875V30.3636H25.9434V31.875H22.3127V42H20.5627V31.875H16.9377ZM30.0316 42.1761C29.2134 42.1761 28.4994 41.9886 27.8895 41.6136C27.2797 41.2386 26.8062 40.714 26.4691 40.0398C26.1319 39.3655 25.9634 38.5777 25.9634 37.6761C25.9634 36.7708 26.1319 35.9792 26.4691 35.3011C26.8062 34.6231 27.2797 34.0966 27.8895 33.7216C28.4994 33.3466 29.2134 33.1591 30.0316 33.1591C30.8497 33.1591 31.5638 33.3466 32.1736 33.7216C32.7835 34.0966 33.2569 34.6231 33.5941 35.3011C33.9312 35.9792 34.0997 36.7708 34.0997 37.6761C34.0997 38.5777 33.9312 39.3655 33.5941 40.0398C33.2569 40.714 32.7835 41.2386 32.1736 41.6136C31.5638 41.9886 30.8497 42.1761 30.0316 42.1761ZM30.0372 40.75C30.5676 40.75 31.0069 40.6098 31.3554 40.3295C31.7039 40.0492 31.9615 39.6761 32.1282 39.2102C32.2986 38.7443 32.3838 38.2311 32.3838 37.6705C32.3838 37.1136 32.2986 36.6023 32.1282 36.1364C31.9615 35.6667 31.7039 35.2898 31.3554 35.0057C31.0069 34.7216 30.5676 34.5795 30.0372 34.5795C29.5032 34.5795 29.06 34.7216 28.7077 35.0057C28.3592 35.2898 28.0997 35.6667 27.9293 36.1364C27.7626 36.6023 27.6793 37.1136 27.6793 37.6705C27.6793 38.2311 27.7626 38.7443 27.9293 39.2102C28.0997 39.6761 28.3592 40.0492 28.7077 40.3295C29.06 40.6098 29.5032 40.75 30.0372 40.75ZM39.8939 33.2727V34.6364H35.1269V33.2727H39.8939ZM36.4053 31.1818H38.1041V39.4375C38.1041 39.767 38.1534 40.0152 38.2519 40.1818C38.3504 40.3447 38.4773 40.4564 38.6326 40.517C38.7916 40.5739 38.964 40.6023 39.1496 40.6023C39.286 40.6023 39.4053 40.5928 39.5076 40.5739C39.6098 40.5549 39.6894 40.5398 39.7462 40.5284L40.053 41.9318C39.9545 41.9697 39.8144 42.0076 39.6326 42.0455C39.4507 42.0871 39.2235 42.1098 38.9507 42.1136C38.5038 42.1212 38.0871 42.0417 37.7007 41.875C37.3144 41.7083 37.0019 41.4508 36.7632 41.1023C36.5246 40.7538 36.4053 40.3163 36.4053 39.7898V31.1818ZM44.137 42.1932C43.5839 42.1932 43.0839 42.0909 42.637 41.8864C42.19 41.678 41.8358 41.3769 41.5745 40.983C41.3169 40.589 41.1881 40.1061 41.1881 39.5341C41.1881 39.0417 41.2828 38.6364 41.4722 38.3182C41.6616 38 41.9173 37.7481 42.2392 37.5625C42.5612 37.3769 42.921 37.2367 43.3188 37.142C43.7165 37.0473 44.1218 36.9754 44.5347 36.9261C45.0574 36.8655 45.4817 36.8163 45.8074 36.7784C46.1332 36.7367 46.3699 36.6705 46.5176 36.5795C46.6654 36.4886 46.7392 36.3409 46.7392 36.1364V36.0966C46.7392 35.6004 46.5991 35.2159 46.3188 34.9432C46.0423 34.6705 45.6294 34.5341 45.0801 34.5341C44.5082 34.5341 44.0574 34.661 43.7279 34.9148C43.4021 35.1648 43.1767 35.4432 43.0517 35.75L41.4551 35.3864C41.6445 34.8561 41.921 34.428 42.2847 34.1023C42.6521 33.7727 43.0745 33.5341 43.5517 33.3864C44.029 33.2348 44.5309 33.1591 45.0574 33.1591C45.4059 33.1591 45.7752 33.2008 46.1654 33.2841C46.5593 33.3636 46.9267 33.5114 47.2676 33.7273C47.6123 33.9432 47.8945 34.2519 48.1142 34.6534C48.3339 35.0511 48.4438 35.5682 48.4438 36.2045V42H46.7847V40.8068H46.7165C46.6067 41.0265 46.4419 41.2424 46.2222 41.4545C46.0025 41.6667 45.7203 41.8428 45.3756 41.983C45.0309 42.1231 44.618 42.1932 44.137 42.1932ZM44.5063 40.8295C44.976 40.8295 45.3775 40.7367 45.7108 40.5511C46.0479 40.3655 46.3036 40.1231 46.4779 39.8239C46.6559 39.5208 46.7449 39.197 46.7449 38.8523V37.7273C46.6843 37.7879 46.5669 37.8447 46.3926 37.8977C46.2222 37.947 46.0271 37.9905 45.8074 38.0284C45.5877 38.0625 45.3737 38.0947 45.1654 38.125C44.957 38.1515 44.7828 38.1742 44.6426 38.1932C44.3131 38.2348 44.012 38.3049 43.7392 38.4034C43.4703 38.5019 43.2544 38.6439 43.0915 38.8295C42.9324 39.0114 42.8529 39.2538 42.8529 39.5568C42.8529 39.9773 43.0082 40.2955 43.3188 40.5114C43.6294 40.7235 44.0252 40.8295 44.5063 40.8295ZM52.2294 30.3636V42H50.5306V30.3636H52.2294ZM60.0962 36.8182V42H58.3973V33.2727H60.028V34.6932H60.1359C60.3367 34.2311 60.6511 33.8598 61.0791 33.5795C61.5109 33.2992 62.0545 33.1591 62.7098 33.1591C63.3045 33.1591 63.8253 33.2841 64.2723 33.5341C64.7193 33.7803 65.0659 34.1477 65.3121 34.6364C65.5583 35.125 65.6814 35.7292 65.6814 36.4489V42H63.9825V36.6534C63.9825 36.0208 63.8178 35.5265 63.4882 35.1705C63.1587 34.8106 62.706 34.6307 62.1303 34.6307C61.7363 34.6307 61.3859 34.7159 61.0791 34.8864C60.7761 35.0568 60.5356 35.3068 60.3575 35.6364C60.1833 35.9621 60.0962 36.3561 60.0962 36.8182ZM73.3122 38.3807V33.2727H75.0168V42H73.3463V40.4886H73.2554C73.0546 40.9545 72.7327 41.3428 72.2895 41.6534C71.8501 41.9602 71.3027 42.1136 70.6474 42.1136C70.0868 42.1136 69.5906 41.9905 69.1588 41.7443C68.7308 41.4943 68.3937 41.125 68.1474 40.6364C67.905 40.1477 67.7838 39.5436 67.7838 38.8239V33.2727H69.4827V38.6193C69.4827 39.214 69.6474 39.6875 69.977 40.0398C70.3065 40.392 70.7346 40.5682 71.2611 40.5682C71.5793 40.5682 71.8955 40.4886 72.2099 40.3295C72.5281 40.1705 72.7914 39.9299 72.9997 39.608C73.2118 39.286 73.316 38.8769 73.3122 38.3807ZM77.1234 42V33.2727H78.7541V34.6932H78.8621C79.0439 34.2121 79.3412 33.8371 79.7541 33.5682C80.167 33.2955 80.6613 33.1591 81.2371 33.1591C81.8204 33.1591 82.309 33.2955 82.703 33.5682C83.1007 33.8409 83.3943 34.2159 83.5837 34.6932H83.6746C83.8829 34.2273 84.2143 33.8561 84.6689 33.5795C85.1234 33.2992 85.6651 33.1591 86.2939 33.1591C87.0856 33.1591 87.7314 33.4072 88.2314 33.9034C88.7352 34.3996 88.9871 35.1477 88.9871 36.1477V42H87.2882V36.3068C87.2882 35.7159 87.1272 35.2879 86.8052 35.0227C86.4833 34.7576 86.0988 34.625 85.6518 34.625C85.0988 34.625 84.6689 34.7955 84.3621 35.1364C84.0552 35.4735 83.9018 35.9072 83.9018 36.4375V42H82.2087V36.1989C82.2087 35.7254 82.0609 35.3447 81.7655 35.0568C81.47 34.7689 81.0856 34.625 80.6121 34.625C80.2901 34.625 79.9927 34.7102 79.72 34.8807C79.4511 35.0473 79.2333 35.2803 79.0666 35.5795C78.9037 35.8788 78.8223 36.2254 78.8223 36.6193V42H77.1234ZM91.2244 42V30.3636H92.9233V34.6875H93.0256C93.124 34.5057 93.2661 34.2955 93.4517 34.0568C93.6373 33.8182 93.8949 33.6098 94.2244 33.4318C94.554 33.25 94.9896 33.1591 95.5312 33.1591C96.2358 33.1591 96.8646 33.3371 97.4176 33.6932C97.9706 34.0492 98.4043 34.5625 98.7187 35.233C99.0369 35.9034 99.196 36.7102 99.196 37.6534C99.196 38.5966 99.0388 39.4053 98.7244 40.0795C98.41 40.75 97.9782 41.267 97.429 41.6307C96.8797 41.9905 96.2528 42.1705 95.5483 42.1705C95.018 42.1705 94.5843 42.0814 94.2471 41.9034C93.9138 41.7254 93.6524 41.517 93.4631 41.2784C93.2737 41.0398 93.1278 40.8277 93.0256 40.642H92.8835V42H91.2244ZM92.8892 37.6364C92.8892 38.25 92.9782 38.7879 93.1562 39.25C93.3343 39.7121 93.5918 40.0739 93.929 40.3352C94.2661 40.5928 94.679 40.7216 95.1676 40.7216C95.6752 40.7216 96.0994 40.5871 96.4403 40.3182C96.7812 40.0455 97.0388 39.6761 97.2131 39.2102C97.3911 38.7443 97.4801 38.2197 97.4801 37.6364C97.4801 37.0606 97.393 36.5436 97.2187 36.0852C97.0483 35.6269 96.7907 35.2652 96.446 35C96.1051 34.7348 95.679 34.6023 95.1676 34.6023C94.6752 34.6023 94.2585 34.7292 93.9176 34.983C93.5805 35.2367 93.3248 35.5909 93.1506 36.0455C92.9763 36.5 92.8892 37.0303 92.8892 37.6364ZM104.689 42.1761C103.829 42.1761 103.089 41.9924 102.467 41.625C101.85 41.2538 101.373 40.733 101.036 40.0625C100.702 39.3883 100.536 38.5985 100.536 37.6932C100.536 36.7992 100.702 36.0114 101.036 35.3295C101.373 34.6477 101.842 34.1155 102.445 33.733C103.051 33.3504 103.759 33.1591 104.57 33.1591C105.062 33.1591 105.539 33.2405 106.002 33.4034C106.464 33.5663 106.878 33.822 107.246 34.1705C107.613 34.5189 107.903 34.9716 108.115 35.5284C108.327 36.0814 108.433 36.7538 108.433 37.5455V38.1477H101.496V36.875H106.769C106.769 36.428 106.678 36.0322 106.496 35.6875C106.314 35.339 106.058 35.0644 105.729 34.8636C105.403 34.6629 105.02 34.5625 104.581 34.5625C104.104 34.5625 103.687 34.6799 103.331 34.9148C102.979 35.1458 102.706 35.4489 102.513 35.8239C102.324 36.1951 102.229 36.5985 102.229 37.0341V38.0284C102.229 38.6117 102.331 39.108 102.536 39.517C102.744 39.9261 103.034 40.2386 103.405 40.4545C103.776 40.6667 104.21 40.7727 104.706 40.7727C105.028 40.7727 105.322 40.7273 105.587 40.6364C105.852 40.5417 106.081 40.4015 106.274 40.2159C106.467 40.0303 106.615 39.8011 106.717 39.5284L108.325 39.8182C108.197 40.2917 107.966 40.7064 107.632 41.0625C107.303 41.4148 106.888 41.6894 106.388 41.8864C105.892 42.0795 105.325 42.1761 104.689 42.1761ZM110.142 42V33.2727H111.784V34.6591H111.875C112.034 34.1894 112.315 33.8201 112.716 33.5511C113.121 33.2784 113.58 33.142 114.091 33.142C114.197 33.142 114.322 33.1458 114.466 33.1534C114.614 33.161 114.729 33.1705 114.813 33.1818V34.8068C114.745 34.7879 114.623 34.767 114.449 34.7443C114.275 34.7178 114.101 34.7045 113.926 34.7045C113.525 34.7045 113.167 34.7898 112.853 34.9602C112.542 35.1269 112.296 35.3598 112.114 35.6591C111.932 35.9545 111.841 36.2917 111.841 36.6705V42H110.142ZM123.841 42.1761C123.023 42.1761 122.309 41.9886 121.699 41.6136C121.09 41.2386 120.616 40.714 120.279 40.0398C119.942 39.3655 119.773 38.5777 119.773 37.6761C119.773 36.7708 119.942 35.9792 120.279 35.3011C120.616 34.6231 121.09 34.0966 121.699 33.7216C122.309 33.3466 123.023 33.1591 123.841 33.1591C124.66 33.1591 125.374 33.3466 125.983 33.7216C126.593 34.0966 127.067 34.6231 127.404 35.3011C127.741 35.9792 127.91 36.7708 127.91 37.6761C127.91 38.5777 127.741 39.3655 127.404 40.0398C127.067 40.714 126.593 41.2386 125.983 41.6136C125.374 41.9886 124.66 42.1761 123.841 42.1761ZM123.847 40.75C124.377 40.75 124.817 40.6098 125.165 40.3295C125.514 40.0492 125.771 39.6761 125.938 39.2102C126.108 38.7443 126.194 38.2311 126.194 37.6705C126.194 37.1136 126.108 36.6023 125.938 36.1364C125.771 35.6667 125.514 35.2898 125.165 35.0057C124.817 34.7216 124.377 34.5795 123.847 34.5795C123.313 34.5795 122.87 34.7216 122.518 35.0057C122.169 35.2898 121.91 35.6667 121.739 36.1364C121.573 36.6023 121.489 37.1136 121.489 37.6705C121.489 38.2311 121.573 38.7443 121.739 39.2102C121.91 39.6761 122.169 40.0492 122.518 40.3295C122.87 40.6098 123.313 40.75 123.847 40.75ZM133.783 33.2727V34.6364H128.852V33.2727H133.783ZM130.204 42V32.2614C130.204 31.7159 130.323 31.2633 130.562 30.9034C130.8 30.5398 131.117 30.2689 131.511 30.0909C131.905 29.9091 132.333 29.8182 132.795 29.8182C133.136 29.8182 133.427 29.8466 133.67 29.9034C133.912 29.9564 134.092 30.0057 134.209 30.0511L133.812 31.4261C133.732 31.4034 133.63 31.3769 133.505 31.3466C133.38 31.3125 133.228 31.2955 133.05 31.2955C132.638 31.2955 132.342 31.3977 132.164 31.6023C131.99 31.8068 131.903 32.1023 131.903 32.4886V42H130.204ZM142.686 42.1705C141.981 42.1705 141.352 41.9905 140.799 41.6307C140.25 41.267 139.818 40.75 139.504 40.0795C139.193 39.4053 139.038 38.5966 139.038 37.6534C139.038 36.7102 139.195 35.9034 139.509 35.233C139.828 34.5625 140.263 34.0492 140.816 33.6932C141.369 33.3371 141.996 33.1591 142.697 33.1591C143.239 33.1591 143.674 33.25 144.004 33.4318C144.337 33.6098 144.595 33.8182 144.777 34.0568C144.962 34.2955 145.106 34.5057 145.208 34.6875H145.311V30.3636H147.009V42H145.35V40.642H145.208C145.106 40.8277 144.958 41.0398 144.765 41.2784C144.576 41.517 144.314 41.7254 143.981 41.9034C143.648 42.0814 143.216 42.1705 142.686 42.1705ZM143.061 40.7216C143.549 40.7216 143.962 40.5928 144.299 40.3352C144.64 40.0739 144.898 39.7121 145.072 39.25C145.25 38.7879 145.339 38.25 145.339 37.6364C145.339 37.0303 145.252 36.5 145.078 36.0455C144.903 35.5909 144.648 35.2367 144.311 34.983C143.973 34.7292 143.557 34.6023 143.061 34.6023C142.549 34.6023 142.123 34.7348 141.782 35C141.441 35.2652 141.184 35.6269 141.009 36.0852C140.839 36.5436 140.754 37.0606 140.754 37.6364C140.754 38.2197 140.841 38.7443 141.015 39.2102C141.189 39.6761 141.447 40.0455 141.788 40.3182C142.133 40.5871 142.557 40.7216 143.061 40.7216ZM151.798 42.1932C151.245 42.1932 150.745 42.0909 150.298 41.8864C149.851 41.678 149.497 41.3769 149.235 40.983C148.978 40.589 148.849 40.1061 148.849 39.5341C148.849 39.0417 148.944 38.6364 149.133 38.3182C149.323 38 149.578 37.7481 149.9 37.5625C150.222 37.3769 150.582 37.2367 150.98 37.142C151.377 37.0473 151.783 36.9754 152.196 36.9261C152.718 36.8655 153.143 36.8163 153.468 36.7784C153.794 36.7367 154.031 36.6705 154.179 36.5795C154.326 36.4886 154.4 36.3409 154.4 36.1364V36.0966C154.4 35.6004 154.26 35.2159 153.98 34.9432C153.703 34.6705 153.29 34.5341 152.741 34.5341C152.169 34.5341 151.718 34.661 151.389 34.9148C151.063 35.1648 150.838 35.4432 150.713 35.75L149.116 35.3864C149.306 34.8561 149.582 34.428 149.946 34.1023C150.313 33.7727 150.735 33.5341 151.213 33.3864C151.69 33.2348 152.192 33.1591 152.718 33.1591C153.067 33.1591 153.436 33.2008 153.826 33.2841C154.22 33.3636 154.588 33.5114 154.929 33.7273C155.273 33.9432 155.556 34.2519 155.775 34.6534C155.995 35.0511 156.105 35.5682 156.105 36.2045V42H154.446V40.8068H154.377C154.268 41.0265 154.103 41.2424 153.883 41.4545C153.663 41.6667 153.381 41.8428 153.037 41.983C152.692 42.1231 152.279 42.1932 151.798 42.1932ZM152.167 40.8295C152.637 40.8295 153.038 40.7367 153.372 40.5511C153.709 40.3655 153.965 40.1231 154.139 39.8239C154.317 39.5208 154.406 39.197 154.406 38.8523V37.7273C154.345 37.7879 154.228 37.8447 154.054 37.8977C153.883 37.947 153.688 37.9905 153.468 38.0284C153.249 38.0625 153.035 38.0947 152.826 38.125C152.618 38.1515 152.444 38.1742 152.304 38.1932C151.974 38.2348 151.673 38.3049 151.4 38.4034C151.131 38.5019 150.915 38.6439 150.752 38.8295C150.593 39.0114 150.514 39.2538 150.514 39.5568C150.514 39.9773 150.669 40.2955 150.98 40.5114C151.29 40.7235 151.686 40.8295 152.167 40.8295ZM158.192 42V33.2727H159.834V34.6591H159.925C160.084 34.1894 160.364 33.8201 160.765 33.5511C161.171 33.2784 161.629 33.142 162.14 33.142C162.246 33.142 162.371 33.1458 162.515 33.1534C162.663 33.161 162.779 33.1705 162.862 33.1818V34.8068C162.794 34.7879 162.673 34.767 162.498 34.7443C162.324 34.7178 162.15 34.7045 161.976 34.7045C161.574 34.7045 161.216 34.7898 160.902 34.9602C160.591 35.1269 160.345 35.3598 160.163 35.6591C159.981 35.9545 159.89 36.2917 159.89 36.6705V42H158.192ZM168.746 33.2727V34.6364H163.979V33.2727H168.746ZM165.257 31.1818H166.956V39.4375C166.956 39.767 167.005 40.0152 167.104 40.1818C167.202 40.3447 167.329 40.4564 167.484 40.517C167.643 40.5739 167.816 40.6023 168.001 40.6023C168.138 40.6023 168.257 40.5928 168.359 40.5739C168.462 40.5549 168.541 40.5398 168.598 40.5284L168.905 41.9318C168.806 41.9697 168.666 42.0076 168.484 42.0455C168.302 42.0871 168.075 42.1098 167.802 42.1136C167.356 42.1212 166.939 42.0417 166.552 41.875C166.166 41.7083 165.854 41.4508 165.615 41.1023C165.376 40.7538 165.257 40.3163 165.257 39.7898V31.1818ZM176.848 35.4034L175.308 35.6761C175.244 35.4792 175.142 35.2917 175.001 35.1136C174.865 34.9356 174.68 34.7898 174.445 34.6761C174.21 34.5625 173.916 34.5057 173.564 34.5057C173.083 34.5057 172.681 34.6136 172.359 34.8295C172.037 35.0417 171.876 35.3163 171.876 35.6534C171.876 35.9451 171.984 36.1799 172.2 36.358C172.416 36.536 172.765 36.6818 173.246 36.7955L174.632 37.1136C175.435 37.2992 176.034 37.5852 176.428 37.9716C176.822 38.358 177.019 38.8598 177.019 39.4773C177.019 40 176.867 40.4659 176.564 40.875C176.265 41.2803 175.846 41.5985 175.308 41.8295C174.774 42.0606 174.155 42.1761 173.45 42.1761C172.473 42.1761 171.676 41.9678 171.058 41.5511C170.441 41.1307 170.062 40.5341 169.922 39.7614L171.564 39.5114C171.666 39.9394 171.876 40.2633 172.195 40.483C172.513 40.6989 172.928 40.8068 173.439 40.8068C173.996 40.8068 174.441 40.6913 174.774 40.4602C175.108 40.2254 175.274 39.9394 175.274 39.6023C175.274 39.3295 175.172 39.1004 174.967 38.9148C174.767 38.7292 174.458 38.589 174.041 38.4943L172.564 38.1705C171.75 37.9848 171.147 37.6894 170.757 37.2841C170.371 36.8788 170.178 36.3655 170.178 35.7443C170.178 35.2292 170.322 34.7784 170.609 34.392C170.897 34.0057 171.295 33.7045 171.803 33.4886C172.31 33.2689 172.892 33.1591 173.547 33.1591C174.49 33.1591 175.233 33.3636 175.774 33.7727C176.316 34.178 176.674 34.7216 176.848 35.4034ZM293.464 42H291.601L295.788 30.3636H297.817L302.004 42H300.14L296.851 32.4773H296.76L293.464 42ZM293.777 37.4432H299.822V38.9205H293.777V37.4432ZM303.372 42V33.2727H305.014V34.6591H305.105C305.264 34.1894 305.544 33.8201 305.946 33.5511C306.351 33.2784 306.81 33.142 307.321 33.142C307.427 33.142 307.552 33.1458 307.696 33.1534C307.844 33.161 307.959 33.1705 308.043 33.1818V34.8068C307.974 34.7879 307.853 34.767 307.679 34.7443C307.505 34.7178 307.33 34.7045 307.156 34.7045C306.755 34.7045 306.397 34.7898 306.082 34.9602C305.772 35.1269 305.525 35.3598 305.344 35.6591C305.162 35.9545 305.071 36.2917 305.071 36.6705V42H303.372ZM312.786 42.1761C311.926 42.1761 311.185 41.9924 310.564 41.625C309.947 41.2538 309.469 40.733 309.132 40.0625C308.799 39.3883 308.632 38.5985 308.632 37.6932C308.632 36.7992 308.799 36.0114 309.132 35.3295C309.469 34.6477 309.939 34.1155 310.541 33.733C311.147 33.3504 311.856 33.1591 312.666 33.1591C313.159 33.1591 313.636 33.2405 314.098 33.4034C314.56 33.5663 314.975 33.822 315.342 34.1705C315.71 34.5189 316 34.9716 316.212 35.5284C316.424 36.0814 316.53 36.7538 316.53 37.5455V38.1477H309.592V36.875H314.865C314.865 36.428 314.774 36.0322 314.592 35.6875C314.411 35.339 314.155 35.0644 313.825 34.8636C313.5 34.6629 313.117 34.5625 312.678 34.5625C312.2 34.5625 311.784 34.6799 311.428 34.9148C311.075 35.1458 310.803 35.4489 310.609 35.8239C310.42 36.1951 310.325 36.5985 310.325 37.0341V38.0284C310.325 38.6117 310.428 39.108 310.632 39.517C310.84 39.9261 311.13 40.2386 311.501 40.4545C311.873 40.6667 312.306 40.7727 312.803 40.7727C313.125 40.7727 313.418 40.7273 313.683 40.6364C313.948 40.5417 314.178 40.4015 314.371 40.2159C314.564 40.0303 314.712 39.8011 314.814 39.5284L316.422 39.8182C316.293 40.2917 316.062 40.7064 315.729 41.0625C315.399 41.4148 314.984 41.6894 314.484 41.8864C313.988 42.0795 313.422 42.1761 312.786 42.1761ZM320.779 42.1932C320.226 42.1932 319.726 42.0909 319.279 41.8864C318.832 41.678 318.477 41.3769 318.216 40.983C317.959 40.589 317.83 40.1061 317.83 39.5341C317.83 39.0417 317.924 38.6364 318.114 38.3182C318.303 38 318.559 37.7481 318.881 37.5625C319.203 37.3769 319.563 37.2367 319.96 37.142C320.358 37.0473 320.763 36.9754 321.176 36.9261C321.699 36.8655 322.123 36.8163 322.449 36.7784C322.775 36.7367 323.012 36.6705 323.159 36.5795C323.307 36.4886 323.381 36.3409 323.381 36.1364V36.0966C323.381 35.6004 323.241 35.2159 322.96 34.9432C322.684 34.6705 322.271 34.5341 321.722 34.5341C321.15 34.5341 320.699 34.661 320.369 34.9148C320.044 35.1648 319.818 35.4432 319.693 35.75L318.097 35.3864C318.286 34.8561 318.563 34.428 318.926 34.1023C319.294 33.7727 319.716 33.5341 320.193 33.3864C320.671 33.2348 321.173 33.1591 321.699 33.1591C322.048 33.1591 322.417 33.2008 322.807 33.2841C323.201 33.3636 323.568 33.5114 323.909 33.7273C324.254 33.9432 324.536 34.2519 324.756 34.6534C324.976 35.0511 325.085 35.5682 325.085 36.2045V42H323.426V40.8068H323.358C323.248 41.0265 323.084 41.2424 322.864 41.4545C322.644 41.6667 322.362 41.8428 322.017 41.983C321.673 42.1231 321.26 42.1932 320.779 42.1932ZM321.148 40.8295C321.618 40.8295 322.019 40.7367 322.352 40.5511C322.69 40.3655 322.945 40.1231 323.119 39.8239C323.298 39.5208 323.387 39.197 323.387 38.8523V37.7273C323.326 37.7879 323.209 37.8447 323.034 37.8977C322.864 37.947 322.669 37.9905 322.449 38.0284C322.229 38.0625 322.015 38.0947 321.807 38.125C321.599 38.1515 321.424 38.1742 321.284 38.1932C320.955 38.2348 320.654 38.3049 320.381 38.4034C320.112 38.5019 319.896 38.6439 319.733 38.8295C319.574 39.0114 319.494 39.2538 319.494 39.5568C319.494 39.9773 319.65 40.2955 319.96 40.5114C320.271 40.7235 320.667 40.8295 321.148 40.8295ZM334.907 42.1761C334.089 42.1761 333.374 41.9886 332.765 41.6136C332.155 41.2386 331.681 40.714 331.344 40.0398C331.007 39.3655 330.839 38.5777 330.839 37.6761C330.839 36.7708 331.007 35.9792 331.344 35.3011C331.681 34.6231 332.155 34.0966 332.765 33.7216C333.374 33.3466 334.089 33.1591 334.907 33.1591C335.725 33.1591 336.439 33.3466 337.049 33.7216C337.659 34.0966 338.132 34.6231 338.469 35.3011C338.806 35.9792 338.975 36.7708 338.975 37.6761C338.975 38.5777 338.806 39.3655 338.469 40.0398C338.132 40.714 337.659 41.2386 337.049 41.6136C336.439 41.9886 335.725 42.1761 334.907 42.1761ZM334.912 40.75C335.443 40.75 335.882 40.6098 336.231 40.3295C336.579 40.0492 336.837 39.6761 337.003 39.2102C337.174 38.7443 337.259 38.2311 337.259 37.6705C337.259 37.1136 337.174 36.6023 337.003 36.1364C336.837 35.6667 336.579 35.2898 336.231 35.0057C335.882 34.7216 335.443 34.5795 334.912 34.5795C334.378 34.5795 333.935 34.7216 333.583 35.0057C333.234 35.2898 332.975 35.6667 332.804 36.1364C332.638 36.6023 332.554 37.1136 332.554 37.6705C332.554 38.2311 332.638 38.7443 332.804 39.2102C332.975 39.6761 333.234 40.0492 333.583 40.3295C333.935 40.6098 334.378 40.75 334.912 40.75ZM344.849 33.2727V34.6364H339.917V33.2727H344.849ZM341.269 42V32.2614C341.269 31.7159 341.388 31.2633 341.627 30.9034C341.866 30.5398 342.182 30.2689 342.576 30.0909C342.97 29.9091 343.398 29.8182 343.86 29.8182C344.201 29.8182 344.493 29.8466 344.735 29.9034C344.977 29.9564 345.157 30.0057 345.275 30.0511L344.877 31.4261C344.797 31.4034 344.695 31.3769 344.57 31.3466C344.445 31.3125 344.294 31.2955 344.116 31.2955C343.703 31.2955 343.407 31.3977 343.229 31.6023C343.055 31.8068 342.968 32.1023 342.968 32.4886V42H341.269ZM354.558 33.2727V34.6364H349.791V33.2727H354.558ZM351.069 31.1818H352.768V39.4375C352.768 39.767 352.817 40.0152 352.916 40.1818C353.014 40.3447 353.141 40.4564 353.296 40.517C353.455 40.5739 353.628 40.6023 353.813 40.6023C353.95 40.6023 354.069 40.5928 354.171 40.5739C354.274 40.5549 354.353 40.5398 354.41 40.5284L354.717 41.9318C354.618 41.9697 354.478 42.0076 354.296 42.0455C354.114 42.0871 353.887 42.1098 353.614 42.1136C353.168 42.1212 352.751 42.0417 352.364 41.875C351.978 41.7083 351.666 41.4508 351.427 41.1023C351.188 40.7538 351.069 40.3163 351.069 39.7898V31.1818ZM358.147 36.8182V42H356.448V30.3636H358.125V34.6932H358.233C358.437 34.2235 358.75 33.8504 359.17 33.5739C359.59 33.2973 360.14 33.1591 360.818 33.1591C361.416 33.1591 361.939 33.2822 362.386 33.5284C362.837 33.7746 363.185 34.142 363.431 34.6307C363.681 35.1155 363.806 35.7216 363.806 36.4489V42H362.108V36.6534C362.108 36.0133 361.943 35.517 361.613 35.1648C361.284 34.8087 360.825 34.6307 360.238 34.6307C359.837 34.6307 359.477 34.7159 359.159 34.8864C358.844 35.0568 358.596 35.3068 358.414 35.6364C358.236 35.9621 358.147 36.3561 358.147 36.8182ZM369.659 42.1761C368.799 42.1761 368.058 41.9924 367.437 41.625C366.82 41.2538 366.342 40.733 366.005 40.0625C365.672 39.3883 365.505 38.5985 365.505 37.6932C365.505 36.7992 365.672 36.0114 366.005 35.3295C366.342 34.6477 366.812 34.1155 367.414 33.733C368.021 33.3504 368.729 33.1591 369.539 33.1591C370.032 33.1591 370.509 33.2405 370.971 33.4034C371.433 33.5663 371.848 33.822 372.216 34.1705C372.583 34.5189 372.873 34.9716 373.085 35.5284C373.297 36.0814 373.403 36.7538 373.403 37.5455V38.1477H366.466V36.875H371.738C371.738 36.428 371.647 36.0322 371.466 35.6875C371.284 35.339 371.028 35.0644 370.699 34.8636C370.373 34.6629 369.99 34.5625 369.551 34.5625C369.074 34.5625 368.657 34.6799 368.301 34.9148C367.949 35.1458 367.676 35.4489 367.483 35.8239C367.293 36.1951 367.199 36.5985 367.199 37.0341V38.0284C367.199 38.6117 367.301 39.108 367.505 39.517C367.714 39.9261 368.003 40.2386 368.375 40.4545C368.746 40.6667 369.18 40.7727 369.676 40.7727C369.998 40.7727 370.291 40.7273 370.557 40.6364C370.822 40.5417 371.051 40.4015 371.244 40.2159C371.437 40.0303 371.585 39.8011 371.687 39.5284L373.295 39.8182C373.166 40.2917 372.935 40.7064 372.602 41.0625C372.272 41.4148 371.858 41.6894 371.358 41.8864C370.861 42.0795 370.295 42.1761 369.659 42.1761ZM385.71 35.4034L384.17 35.6761C384.106 35.4792 384.004 35.2917 383.864 35.1136C383.727 34.9356 383.542 34.7898 383.307 34.6761C383.072 34.5625 382.778 34.5057 382.426 34.5057C381.945 34.5057 381.544 34.6136 381.222 34.8295C380.9 35.0417 380.739 35.3163 380.739 35.6534C380.739 35.9451 380.847 36.1799 381.062 36.358C381.278 36.536 381.627 36.6818 382.108 36.7955L383.494 37.1136C384.297 37.2992 384.896 37.5852 385.29 37.9716C385.684 38.358 385.881 38.8598 385.881 39.4773C385.881 40 385.729 40.4659 385.426 40.875C385.127 41.2803 384.708 41.5985 384.17 41.8295C383.636 42.0606 383.017 42.1761 382.312 42.1761C381.335 42.1761 380.538 41.9678 379.92 41.5511C379.303 41.1307 378.924 40.5341 378.784 39.7614L380.426 39.5114C380.528 39.9394 380.739 40.2633 381.057 40.483C381.375 40.6989 381.79 40.8068 382.301 40.8068C382.858 40.8068 383.303 40.6913 383.636 40.4602C383.97 40.2254 384.136 39.9394 384.136 39.6023C384.136 39.3295 384.034 39.1004 383.83 38.9148C383.629 38.7292 383.32 38.589 382.903 38.4943L381.426 38.1705C380.612 37.9848 380.009 37.6894 379.619 37.2841C379.233 36.8788 379.04 36.3655 379.04 35.7443C379.04 35.2292 379.184 34.7784 379.472 34.392C379.759 34.0057 380.157 33.7045 380.665 33.4886C381.172 33.2689 381.754 33.1591 382.409 33.1591C383.352 33.1591 384.095 33.3636 384.636 33.7727C385.178 34.178 385.536 34.7216 385.71 35.4034ZM393.465 45.2727V40.642H393.362C393.26 40.8277 393.112 41.0398 392.919 41.2784C392.73 41.517 392.468 41.7254 392.135 41.9034C391.802 42.0814 391.37 42.1705 390.84 42.1705C390.135 42.1705 389.506 41.9905 388.953 41.6307C388.404 41.267 387.972 40.75 387.658 40.0795C387.347 39.4053 387.192 38.5966 387.192 37.6534C387.192 36.7102 387.349 35.9034 387.663 35.233C387.982 34.5625 388.417 34.0492 388.97 33.6932C389.523 33.3371 390.15 33.1591 390.851 33.1591C391.393 33.1591 391.828 33.25 392.158 33.4318C392.491 33.6098 392.749 33.8182 392.931 34.0568C393.116 34.2955 393.26 34.5057 393.362 34.6875H393.504V33.2727H395.163V45.2727H393.465ZM391.215 40.7216C391.703 40.7216 392.116 40.5928 392.453 40.3352C392.794 40.0739 393.052 39.7121 393.226 39.25C393.404 38.7879 393.493 38.25 393.493 37.6364C393.493 37.0303 393.406 36.5 393.232 36.0455C393.057 35.5909 392.802 35.2367 392.465 34.983C392.127 34.7292 391.711 34.6023 391.215 34.6023C390.703 34.6023 390.277 34.7348 389.936 35C389.595 35.2652 389.338 35.6269 389.163 36.0852C388.993 36.5436 388.908 37.0606 388.908 37.6364C388.908 38.2197 388.995 38.7443 389.169 39.2102C389.343 39.6761 389.601 40.0455 389.942 40.3182C390.287 40.5871 390.711 40.7216 391.215 40.7216ZM402.8 38.3807V33.2727H404.505V42H402.834V40.4886H402.743C402.542 40.9545 402.22 41.3428 401.777 41.6534C401.338 41.9602 400.791 42.1136 400.135 42.1136C399.575 42.1136 399.078 41.9905 398.647 41.7443C398.219 41.4943 397.881 41.125 397.635 40.6364C397.393 40.1477 397.272 39.5436 397.272 38.8239V33.2727H398.97V38.6193C398.97 39.214 399.135 39.6875 399.465 40.0398C399.794 40.392 400.222 40.5682 400.749 40.5682C401.067 40.5682 401.383 40.4886 401.698 40.3295C402.016 40.1705 402.279 39.9299 402.487 39.608C402.7 39.286 402.804 38.8769 402.8 38.3807ZM409.151 42.1932C408.598 42.1932 408.098 42.0909 407.651 41.8864C407.204 41.678 406.85 41.3769 406.588 40.983C406.331 40.589 406.202 40.1061 406.202 39.5341C406.202 39.0417 406.297 38.6364 406.486 38.3182C406.676 38 406.931 37.7481 407.253 37.5625C407.575 37.3769 407.935 37.2367 408.333 37.142C408.731 37.0473 409.136 36.9754 409.549 36.9261C410.071 36.8655 410.496 36.8163 410.821 36.7784C411.147 36.7367 411.384 36.6705 411.532 36.5795C411.679 36.4886 411.753 36.3409 411.753 36.1364V36.0966C411.753 35.6004 411.613 35.2159 411.333 34.9432C411.056 34.6705 410.643 34.5341 410.094 34.5341C409.522 34.5341 409.071 34.661 408.742 34.9148C408.416 35.1648 408.191 35.4432 408.066 35.75L406.469 35.3864C406.659 34.8561 406.935 34.428 407.299 34.1023C407.666 33.7727 408.088 33.5341 408.566 33.3864C409.043 33.2348 409.545 33.1591 410.071 33.1591C410.42 33.1591 410.789 33.2008 411.179 33.2841C411.573 33.3636 411.941 33.5114 412.282 33.7273C412.626 33.9432 412.909 34.2519 413.128 34.6534C413.348 35.0511 413.458 35.5682 413.458 36.2045V42H411.799V40.8068H411.731C411.621 41.0265 411.456 41.2424 411.236 41.4545C411.016 41.6667 410.734 41.8428 410.39 41.983C410.045 42.1231 409.632 42.1932 409.151 42.1932ZM409.52 40.8295C409.99 40.8295 410.391 40.7367 410.725 40.5511C411.062 40.3655 411.318 40.1231 411.492 39.8239C411.67 39.5208 411.759 39.197 411.759 38.8523V37.7273C411.698 37.7879 411.581 37.8447 411.407 37.8977C411.236 37.947 411.041 37.9905 410.821 38.0284C410.602 38.0625 410.388 38.0947 410.179 38.125C409.971 38.1515 409.797 38.1742 409.657 38.1932C409.327 38.2348 409.026 38.3049 408.753 38.4034C408.484 38.5019 408.268 38.6439 408.106 38.8295C407.946 39.0114 407.867 39.2538 407.867 39.5568C407.867 39.9773 408.022 40.2955 408.333 40.5114C408.643 40.7235 409.039 40.8295 409.52 40.8295ZM415.545 42V33.2727H417.187V34.6591H417.277C417.437 34.1894 417.717 33.8201 418.118 33.5511C418.524 33.2784 418.982 33.142 419.493 33.142C419.599 33.142 419.724 33.1458 419.868 33.1534C420.016 33.161 420.132 33.1705 420.215 33.1818V34.8068C420.147 34.7879 420.026 34.767 419.851 34.7443C419.677 34.7178 419.503 34.7045 419.329 34.7045C418.927 34.7045 418.569 34.7898 418.255 34.9602C417.944 35.1269 417.698 35.3598 417.516 35.6591C417.334 35.9545 417.243 36.2917 417.243 36.6705V42H415.545ZM424.958 42.1761C424.098 42.1761 423.358 41.9924 422.736 41.625C422.119 41.2538 421.642 40.733 421.305 40.0625C420.971 39.3883 420.805 38.5985 420.805 37.6932C420.805 36.7992 420.971 36.0114 421.305 35.3295C421.642 34.6477 422.111 34.1155 422.714 33.733C423.32 33.3504 424.028 33.1591 424.839 33.1591C425.331 33.1591 425.808 33.2405 426.271 33.4034C426.733 33.5663 427.147 33.822 427.515 34.1705C427.882 34.5189 428.172 34.9716 428.384 35.5284C428.596 36.0814 428.702 36.7538 428.702 37.5455V38.1477H421.765V36.875H427.038C427.038 36.428 426.947 36.0322 426.765 35.6875C426.583 35.339 426.327 35.0644 425.998 34.8636C425.672 34.6629 425.289 34.5625 424.85 34.5625C424.373 34.5625 423.956 34.6799 423.6 34.9148C423.248 35.1458 422.975 35.4489 422.782 35.8239C422.593 36.1951 422.498 36.5985 422.498 37.0341V38.0284C422.498 38.6117 422.6 39.108 422.805 39.517C423.013 39.9261 423.303 40.2386 423.674 40.4545C424.045 40.6667 424.479 40.7727 424.975 40.7727C425.297 40.7727 425.591 40.7273 425.856 40.6364C426.121 40.5417 426.35 40.4015 426.543 40.2159C426.736 40.0303 426.884 39.8011 426.986 39.5284L428.594 39.8182C428.466 40.2917 428.235 40.7064 427.901 41.0625C427.572 41.4148 427.157 41.6894 426.657 41.8864C426.161 42.0795 425.594 42.1761 424.958 42.1761ZM434.47 45.2727V33.2727H436.129V34.6875H436.271C436.369 34.5057 436.511 34.2955 436.697 34.0568C436.883 33.8182 437.14 33.6098 437.47 33.4318C437.799 33.25 438.235 33.1591 438.777 33.1591C439.481 33.1591 440.11 33.3371 440.663 33.6932C441.216 34.0492 441.65 34.5625 441.964 35.233C442.282 35.9034 442.441 36.7102 442.441 37.6534C442.441 38.5966 442.284 39.4053 441.97 40.0795C441.655 40.75 441.223 41.267 440.674 41.6307C440.125 41.9905 439.498 42.1705 438.794 42.1705C438.263 42.1705 437.83 42.0814 437.492 41.9034C437.159 41.7254 436.898 41.517 436.708 41.2784C436.519 41.0398 436.373 40.8277 436.271 40.642H436.169V45.2727H434.47ZM436.134 37.6364C436.134 38.25 436.223 38.7879 436.402 39.25C436.58 39.7121 436.837 40.0739 437.174 40.3352C437.511 40.5928 437.924 40.7216 438.413 40.7216C438.92 40.7216 439.345 40.5871 439.686 40.3182C440.027 40.0455 440.284 39.6761 440.458 39.2102C440.636 38.7443 440.725 38.2197 440.725 37.6364C440.725 37.0606 440.638 36.5436 440.464 36.0852C440.294 35.6269 440.036 35.2652 439.691 35C439.35 34.7348 438.924 34.6023 438.413 34.6023C437.92 34.6023 437.504 34.7292 437.163 34.983C436.826 35.2367 436.57 35.5909 436.396 36.0455C436.222 36.5 436.134 37.0303 436.134 37.6364ZM446.708 42.1932C446.155 42.1932 445.655 42.0909 445.208 41.8864C444.761 41.678 444.407 41.3769 444.146 40.983C443.888 40.589 443.76 40.1061 443.76 39.5341C443.76 39.0417 443.854 38.6364 444.044 38.3182C444.233 38 444.489 37.7481 444.811 37.5625C445.133 37.3769 445.493 37.2367 445.89 37.142C446.288 37.0473 446.693 36.9754 447.106 36.9261C447.629 36.8655 448.053 36.8163 448.379 36.7784C448.705 36.7367 448.941 36.6705 449.089 36.5795C449.237 36.4886 449.311 36.3409 449.311 36.1364V36.0966C449.311 35.6004 449.171 35.2159 448.89 34.9432C448.614 34.6705 448.201 34.5341 447.652 34.5341C447.08 34.5341 446.629 34.661 446.299 34.9148C445.974 35.1648 445.748 35.4432 445.623 35.75L444.027 35.3864C444.216 34.8561 444.493 34.428 444.856 34.1023C445.224 33.7727 445.646 33.5341 446.123 33.3864C446.601 33.2348 447.102 33.1591 447.629 33.1591C447.977 33.1591 448.347 33.2008 448.737 33.2841C449.131 33.3636 449.498 33.5114 449.839 33.7273C450.184 33.9432 450.466 34.2519 450.686 34.6534C450.905 35.0511 451.015 35.5682 451.015 36.2045V42H449.356V40.8068H449.288C449.178 41.0265 449.013 41.2424 448.794 41.4545C448.574 41.6667 448.292 41.8428 447.947 41.983C447.602 42.1231 447.19 42.1932 446.708 42.1932ZM447.078 40.8295C447.547 40.8295 447.949 40.7367 448.282 40.5511C448.619 40.3655 448.875 40.1231 449.049 39.8239C449.227 39.5208 449.316 39.197 449.316 38.8523V37.7273C449.256 37.7879 449.138 37.8447 448.964 37.8977C448.794 37.947 448.599 37.9905 448.379 38.0284C448.159 38.0625 447.945 38.0947 447.737 38.125C447.529 38.1515 447.354 38.1742 447.214 38.1932C446.885 38.2348 446.583 38.3049 446.311 38.4034C446.042 38.5019 445.826 38.6439 445.663 38.8295C445.504 39.0114 445.424 39.2538 445.424 39.5568C445.424 39.9773 445.58 40.2955 445.89 40.5114C446.201 40.7235 446.597 40.8295 447.078 40.8295ZM453.102 42V33.2727H454.744V34.6591H454.835C454.994 34.1894 455.274 33.8201 455.676 33.5511C456.081 33.2784 456.54 33.142 457.051 33.142C457.157 33.142 457.282 33.1458 457.426 33.1534C457.574 33.161 457.689 33.1705 457.773 33.1818V34.8068C457.704 34.7879 457.583 34.767 457.409 34.7443C457.235 34.7178 457.06 34.7045 456.886 34.7045C456.485 34.7045 456.127 34.7898 455.812 34.9602C455.502 35.1269 455.255 35.3598 455.074 35.6591C454.892 35.9545 454.801 36.2917 454.801 36.6705V42H453.102ZM463.656 33.2727V34.6364H458.889V33.2727H463.656ZM460.168 31.1818H461.866V39.4375C461.866 39.767 461.916 40.0152 462.014 40.1818C462.113 40.3447 462.239 40.4564 462.395 40.517C462.554 40.5739 462.726 40.6023 462.912 40.6023C463.048 40.6023 463.168 40.5928 463.27 40.5739C463.372 40.5549 463.452 40.5398 463.508 40.5284L463.815 41.9318C463.717 41.9697 463.577 42.0076 463.395 42.0455C463.213 42.0871 462.986 42.1098 462.713 42.1136C462.266 42.1212 461.849 42.0417 461.463 41.875C461.077 41.7083 460.764 41.4508 460.525 41.1023C460.287 40.7538 460.168 40.3163 460.168 39.7898V31.1818ZM473.971 37.1705C473.971 35.7462 474.158 34.4356 474.533 33.2386C474.908 32.0417 475.455 30.9375 476.175 29.9261H477.732C477.452 30.3011 477.19 30.7614 476.948 31.3068C476.705 31.8523 476.493 32.4508 476.311 33.1023C476.13 33.75 475.988 34.4223 475.885 35.1193C475.783 35.8125 475.732 36.4962 475.732 37.1705C475.732 38.072 475.821 38.9848 475.999 39.9091C476.177 40.8333 476.417 41.6913 476.721 42.483C477.024 43.2746 477.361 43.9205 477.732 44.4205H476.175C475.455 43.4091 474.908 42.3049 474.533 41.108C474.158 39.911 473.971 38.5985 473.971 37.1705ZM480.466 42H478.603L482.79 30.3636H484.819L489.006 42H487.143L483.853 32.4773H483.762L480.466 42ZM480.779 37.4432H486.824V38.9205H480.779V37.4432ZM496.851 35.4034L495.312 35.6761C495.247 35.4792 495.145 35.2917 495.005 35.1136C494.869 34.9356 494.683 34.7898 494.448 34.6761C494.213 34.5625 493.92 34.5057 493.567 34.5057C493.086 34.5057 492.685 34.6136 492.363 34.8295C492.041 35.0417 491.88 35.3163 491.88 35.6534C491.88 35.9451 491.988 36.1799 492.204 36.358C492.42 36.536 492.768 36.6818 493.249 36.7955L494.636 37.1136C495.439 37.2992 496.037 37.5852 496.431 37.9716C496.825 38.358 497.022 38.8598 497.022 39.4773C497.022 40 496.87 40.4659 496.567 40.875C496.268 41.2803 495.85 41.5985 495.312 41.8295C494.778 42.0606 494.158 42.1761 493.454 42.1761C492.476 42.1761 491.679 41.9678 491.062 41.5511C490.444 41.1307 490.065 40.5341 489.925 39.7614L491.567 39.5114C491.67 39.9394 491.88 40.2633 492.198 40.483C492.516 40.6989 492.931 40.8068 493.442 40.8068C493.999 40.8068 494.444 40.6913 494.778 40.4602C495.111 40.2254 495.278 39.9394 495.278 39.6023C495.278 39.3295 495.175 39.1004 494.971 38.9148C494.77 38.7292 494.461 38.589 494.045 38.4943L492.567 38.1705C491.753 37.9848 491.151 37.6894 490.761 37.2841C490.374 36.8788 490.181 36.3655 490.181 35.7443C490.181 35.2292 490.325 34.7784 490.613 34.392C490.901 34.0057 491.298 33.7045 491.806 33.4886C492.314 33.2689 492.895 33.1591 493.55 33.1591C494.494 33.1591 495.236 33.3636 495.778 33.7727C496.319 34.178 496.677 34.7216 496.851 35.4034ZM501.981 37.1705C501.981 38.5985 501.793 39.911 501.418 41.108C501.043 42.3049 500.496 43.4091 499.776 44.4205H498.219C498.5 44.0455 498.761 43.5852 499.004 43.0398C499.246 42.4943 499.458 41.8977 499.64 41.25C499.822 40.5985 499.964 39.9242 500.066 39.2273C500.168 38.5303 500.219 37.8447 500.219 37.1705C500.219 36.2727 500.13 35.3617 499.952 34.4375C499.774 33.5133 499.534 32.6553 499.231 31.8636C498.928 31.072 498.591 30.4261 498.219 29.9261H499.776C500.496 30.9375 501.043 32.0417 501.418 33.2386C501.793 34.4356 501.981 35.7462 501.981 37.1705Z" fill="#1E1E1E"/>
<line x1="-0.003479" y1="25.5314" x2="249" y2="25.5314" stroke="black"/>
<line x1="283.999" y1="25.5" x2="504.936" y2="25.0579" stroke="black"/>
</svg>
